<svg xmlns="http://www.w3.org/2000/svg" width="37.072" height="56.739" viewBox="0 0 37.072 56.739"><g transform="translate(-117.928 -1693)"><path d="M-7424.038,36.19A12.976,12.976,0,0,1-7437,23.23V13.3a10.043,10.043,0,0,1,10.03-10.032h1.913V4.787h-1.913a8.518,8.518,0,0,0-8.507,8.509V23.23a11.452,11.452,0,0,0,11.439,11.438A11.45,11.45,0,0,0-7412.6,23.23V13.3a8.44,8.44,0,0,0-.664-3.3h1.631a9.993,9.993,0,0,1,.556,3.3V23.23A12.976,12.976,0,0,1-7424.038,36.19Z" transform="translate(7556.058 1708)" fill="#0167ab" stroke="rgba(0,0,0,0)" stroke-miterlimit="10" stroke-width="1"/><path d="M17.246,9.42a9.41,9.41,0,0,1-6.169-1.971c-4.306-3.6-9.64-.1-9.867.049A.762.762,0,1,1,.361,6.231c.06-.042,6.5-4.283,11.692.049,4.385,3.663,12.734-.072,12.817-.109A.762.762,0,1,1,25.5,7.557,22.378,22.378,0,0,1,17.246,9.42" transform="translate(119.032 1716.958)" fill="#0167ab"/><g transform="translate(127 1693)" fill="none"><path d="M12.3,2.71a2,2,0,0,1,3.391,0l.768,1.228a2,2,0,0,0,2.308.843l1.361-.438a2,2,0,0,1,2.6,2.164l-.2,1.531a2,2,0,0,0,1.21,2.1l1.4.587a2,2,0,0,1,.587,3.31L24.584,15.1a2,2,0,0,0-.418,2.38l.717,1.395a2,2,0,0,1-1.693,2.913l-1.467.063a2,2,0,0,0-1.868,1.574l-.318,1.463a2,2,0,0,1-3.186,1.152l-1.121-.876a2,2,0,0,0-2.462,0l-1.121.876a2,2,0,0,1-3.186-1.152l-.318-1.463a2,2,0,0,0-1.868-1.574L4.81,21.787a2,2,0,0,1-1.693-2.913l.717-1.395a2,2,0,0,0-.418-2.38L2.274,14.04a2,2,0,0,1,.587-3.31l1.4-.587a2,2,0,0,0,1.21-2.1l-.2-1.531a2,2,0,0,1,2.6-2.164l1.361.438a2,2,0,0,0,2.308-.843Z" stroke="none"/><path d="M 13.99999904632568 3.470643997192383 C 13.88972949981689 3.470643997192383 13.80415916442871 3.518045425415039 13.74567890167236 3.611515045166016 L 12.97723865509033 4.83967399597168 C 12.29646873474121 5.927743911743164 11.12381935119629 6.57734489440918 9.840398788452148 6.57734489440918 C 9.455888748168945 6.57734489440918 9.074888229370117 6.517515182495117 8.707988739013672 6.399534225463867 L 7.346759796142578 5.961833953857422 C 7.312278747558594 5.950754165649414 7.28046989440918 5.945363998413086 7.249578475952148 5.945363998413086 C 7.168678283691406 5.945375442504883 7.085058212280273 5.985624313354492 7.025899887084961 6.053045272827148 C 6.939739227294922 6.151214599609375 6.953058242797852 6.252954483032227 6.957429885864258 6.286365509033203 L 7.157838821411133 7.81744384765625 C 7.373678207397461 9.466474533081055 6.453178405761719 11.06716537475586 4.919368743896484 11.71003532409668 L 3.518949508666992 12.2969856262207 C 3.418859481811523 12.33894538879395 3.358489990234375 12.41439437866211 3.339529037475586 12.52125453948975 C 3.320558547973633 12.62811470031738 3.351278305053711 12.71973514556885 3.430818557739258 12.79355430603027 L 4.572799682617188 13.85348510742188 C 5.783609390258789 14.97730445861816 6.101638793945312 16.78825378417969 5.346199035644531 18.25737380981445 L 4.629058837890625 19.65202331542969 C 4.579248428344727 19.74889373779297 4.58173942565918 19.84576416015625 4.636459350585938 19.93993377685547 C 4.691188812255859 20.03412437438965 4.774118423461914 20.08425521850586 4.882938385009766 20.08893585205078 L 6.349479675292969 20.15211486816406 C 8.028249740600586 20.22443389892578 9.449638366699219 21.42179489135742 9.806049346923828 23.06387519836426 L 10.12355995178223 24.52672576904297 C 10.17462921142578 24.76200485229492 10.41313934326172 24.76471519470215 10.42326927185059 24.76471519470215 C 10.48786926269531 24.76471519470215 10.54447937011719 24.74399566650391 10.60141944885254 24.69951438903809 L 11.72226905822754 23.82395553588867 C 12.36961936950684 23.3182544708252 13.17853927612305 23.03975486755371 13.99999904632568 23.03975486755371 C 14.82143878936768 23.03975486755371 15.63034915924072 23.3182544708252 16.27771949768066 23.82394409179688 L 17.39857864379883 24.69951438903809 C 17.45551872253418 24.74399566650391 17.51212882995605 24.76471519470215 17.57672882080078 24.76471519470215 C 17.58685874938965 24.76471519470215 17.82536888122559 24.76201438903809 17.87642860412598 24.5267448425293 L 18.19393920898438 23.06387519836426 C 18.55035781860352 21.42178535461426 19.97175979614258 20.22442436218262 21.6505184173584 20.15210342407227 L 23.11705017089844 20.08894348144531 C 23.22587966918945 20.08425521850586 23.30880928039551 20.03412437438965 23.36352920532227 19.93994522094727 C 23.41825866699219 19.84576416015625 23.42074966430664 19.74889373779297 23.37094879150391 19.65203475952148 L 22.65378952026367 18.25736427307129 C 21.89835929870605 16.78823471069336 22.21640014648438 14.977294921875 23.42719841003418 13.85348510742188 L 24.56916809082031 12.79356479644775 C 24.64871978759766 12.71973514556885 24.67943954467773 12.62811470031738 24.66046905517578 12.52125453948975 C 24.64151000976562 12.41439437866211 24.58113861083984 12.33894538879395 24.48106002807617 12.29699516296387 L 23.08061981201172 11.71003532409668 C 21.54681015014648 11.06716537475586 20.62631988525391 9.466474533081055 20.84215927124023 7.817434310913086 L 21.04256820678711 6.286375045776367 C 21.04694938659668 6.252914428710938 21.06027984619141 6.15107536315918 20.97409820556641 6.052894592285156 C 20.91500854492188 5.985565185546875 20.83148956298828 5.945375442504883 20.75066947937012 5.945375442504883 C 20.71957969665527 5.945375442504883 20.68772888183594 5.950754165649414 20.65326881408691 5.961845397949219 L 19.29196929931641 6.399555206298828 C 18.92503929138184 6.517524719238281 18.54404830932617 6.57734489440918 18.15959930419922 6.57734489440918 C 16.87619018554688 6.57734489440918 15.70353889465332 5.927755355834961 15.02275943756104 4.839685440063477 L 14.254319190979 3.611515045166016 C 14.19583892822266 3.518045425415039 14.11026859283447 3.470643997192383 13.99999904632568 3.470643997192383 M 13.99999904632568 1.770641326904297 C 14.65186405181885 1.770641326904297 15.30372905731201 2.083700180053711 15.69547939300537 2.709814071655273 L 16.46391868591309 3.937984466552734 C 16.94950866699219 4.714086532592773 17.90007400512695 5.061384201049805 18.7716178894043 4.781145095825195 L 20.13288879394531 4.34344482421875 C 21.52971076965332 3.89430046081543 22.91861915588379 5.052154541015625 22.72818946838379 6.507003784179688 L 22.52777862548828 8.038074493408203 C 22.4107780456543 8.931983947753906 22.90629959106445 9.793684005737305 23.73775863647461 10.14217376708984 L 25.1381893157959 10.72913551330566 C 26.4789981842041 11.29111480712891 26.79122924804688 13.05054473876953 25.72566986083984 14.03956508636475 L 24.58368873596191 15.09949493408203 C 23.92642974853516 15.70953464508057 23.75555801391602 16.6824836730957 24.16562843322754 17.4799747467041 L 24.88277816772461 18.8746337890625 C 25.55002975463867 20.17226409912109 24.64800834655762 21.72456359863281 23.19021987915039 21.7873649597168 L 21.72367858886719 21.85053443908691 C 20.81557846069336 21.8896541595459 20.04805946350098 22.53620529174805 19.85525894165039 23.42446517944336 L 19.53775024414062 24.88732528686523 C 19.22502899169922 26.328125 17.51392364501953 26.94682312011719 16.35205841064453 26.03921508789062 L 15.23119926452637 25.16364479064941 C 14.50768852233887 24.59846496582031 13.4923095703125 24.59846496582031 12.768798828125 25.16364479064941 L 11.64793968200684 26.03921508789062 C 10.48605918884277 26.94682502746582 8.774971008300781 26.32811546325684 8.462238311767578 24.88731384277344 L 8.144729614257812 23.42445373535156 C 7.951938629150391 22.53620529174805 7.184408187866211 21.8896541595459 6.276309967041016 21.85053443908691 L 4.809778213500977 21.7873649597168 C 3.35198974609375 21.72456359863281 2.449958801269531 20.17226409912109 3.117219924926758 18.87462425231934 L 3.834358215332031 17.4799747467041 C 4.244438171386719 16.6824836730957 4.073568344116211 15.70953464508057 3.416309356689453 15.09949493408203 L 2.274328231811523 14.03956508636475 C 1.208768844604492 13.05054473876953 1.520999908447266 11.29111480712891 2.861808776855469 10.72913551330566 L 4.262239456176758 10.14217376708984 C 5.093698501586914 9.793684005737305 5.589218139648438 8.931983947753906 5.472219467163086 8.038064956665039 L 5.271808624267578 6.507003784179688 C 5.081388473510742 5.052156448364258 6.470287322998047 3.89430046081543 7.867118835449219 4.343435287475586 L 9.228378295898438 4.781145095825195 C 10.09993362426758 5.061382293701172 11.05048942565918 4.714084625244141 11.53607940673828 3.937984466552734 L 12.304518699646 2.709814071655273 C 12.69626903533936 2.083700180053711 13.34813404083252 1.770641326904297 13.99999904632568 1.770641326904297 Z" stroke="none" fill="#00a34c"/></g><g transform="translate(135 1701)" fill="none" stroke="#00a34c" stroke-width="1.7"><circle cx="6" cy="6" r="6" stroke="none"/><circle cx="6" cy="6" r="5.15" fill="none"/></g><path d="M7556,1748.667l7.487-2.448a10.607,10.607,0,0,0,6.4,1.621c3.9-.2,5.467-1.621,5.467-1.621l7.5,2.448" transform="translate(-7437)" fill="none" stroke="#00a34c" stroke-linecap="round" stroke-width="1.7"/></g></svg>