<svg xmlns="http://www.w3.org/2000/svg" xmlns:xlink="http://www.w3.org/1999/xlink" width="40.066" height="40.157" viewBox="0 0 40.066 40.157"><defs><clipPath id="a"><rect width="40.066" height="40.157" fill="#fff"/></clipPath></defs><g transform="translate(0 0)"><g transform="translate(0 -0.001)" clip-path="url(#a)"><path d="M6.735,22.752a.743.743,0,0,1-.744-.744V8.377a.744.744,0,0,1,1.488,0V22.008a.743.743,0,0,1-.744.744" transform="translate(8.43 10.741)" fill="#fff"/><path d="M10.8,22.752a.743.743,0,0,1-.744-.744V8.377a.744.744,0,0,1,1.488,0V22.008a.743.743,0,0,1-.744.744" transform="translate(14.151 10.741)" fill="#fff"/><path d="M39.32,16a.745.745,0,0,0,.746-.744V10.372a.746.746,0,0,0-.412-.667L20.342.077a.75.75,0,0,0-.664,0L.412,9.706A.742.742,0,0,0,0,10.372v4.882A.744.744,0,0,0,.744,16H4.663V32H.994a.744.744,0,0,0-.744.744v6.665a.744.744,0,0,0,.744.744H39.32a.746.746,0,0,0,.746-.744V32.746A.746.746,0,0,0,39.32,32H35.483V16ZM1.488,10.832,20.01,1.575l18.566,9.258V14.51H1.488ZM38.576,38.668H1.738V33.493H38.576ZM34,32H6.15V16H34Z" transform="translate(0 0.001)" fill="#fff"/><path d="M15.37,4.789H7.022a.744.744,0,0,1,0-1.488H15.37a.744.744,0,1,1,0,1.488" transform="translate(8.834 4.646)" fill="#fff"/></g></g></svg>