<svg xmlns="http://www.w3.org/2000/svg" xmlns:xlink="http://www.w3.org/1999/xlink" width="40.39" height="63.111" viewBox="0 0 40.39 63.111"><defs><clipPath id="a"><rect width="40.39" height="63.111" fill="none"/></clipPath></defs><g transform="translate(0 0)" clip-path="url(#a)"><path d="M19.1,13.149H1.965a1.269,1.269,0,1,1,0-2.538H19.1a1.269,1.269,0,1,1,0,2.538" transform="translate(1.797 27.475)" fill="#02a34d"/><path d="M28.061,24.931l-7.534-3.09-8.108,3.087-2.5-7.136L1.59,19.953A1.26,1.26,0,0,1,.04,19.041a1.275,1.275,0,0,1,.912-1.547l10.592-2.746,2.408,6.877,6.611-2.513,6.131,2.509,2.875-6.877L39.461,17.5a1.269,1.269,0,1,1-.682,2.444L31.048,17.8Z" transform="translate(0 38.179)" fill="#02a34d"/><path d="M20.132,51.072A20.127,20.127,0,0,1,.025,30.969V15.56A15.574,15.574,0,0,1,15.585,0h9.088A15.577,15.577,0,0,1,40.236,15.56V30.969a20.126,20.126,0,0,1-20.1,20.1M15.585,2.362a13.213,13.213,0,0,0-13.2,13.2V30.969a17.744,17.744,0,0,0,35.487,0V15.56a13.214,13.214,0,0,0-13.2-13.2Z" transform="translate(0.065 0)" fill="#0167ab"/><path d="M26.738,12.224a14.6,14.6,0,0,1-9.569-3.058c-6.68-5.578-14.953-.158-15.3.075A1.182,1.182,0,1,1,.547,7.278C.641,7.213,10.63.634,18.684,7.353c6.8,5.682,19.752-.111,19.881-.169a1.181,1.181,0,1,1,.98,2.15,34.713,34.713,0,0,1-12.807,2.889" transform="translate(0.063 11.218)" fill="#0167ab"/></g></svg>