<svg xmlns="http://www.w3.org/2000/svg" xmlns:xlink="http://www.w3.org/1999/xlink" width="58.147" height="53.525" viewBox="0 0 58.147 53.525"><defs><clipPath id="a"><rect width="58.147" height="53.525" fill="none"/></clipPath></defs><g transform="translate(0 0)"><g transform="translate(0 0)" clip-path="url(#a)"><path d="M52.172,53.525H5.979A5.984,5.984,0,0,1,0,47.546V5.975A5.983,5.983,0,0,1,5.979,0H52.172a5.982,5.982,0,0,1,5.975,5.975v41.57a5.983,5.983,0,0,1-5.975,5.979M5.979,2.719A3.262,3.262,0,0,0,2.719,5.975v41.57A3.264,3.264,0,0,0,5.979,50.81H52.172a3.265,3.265,0,0,0,3.257-3.265V5.975a3.264,3.264,0,0,0-3.257-3.257Z" transform="translate(0 -0.001)" fill="#0167ab"/><path d="M23.184,7.78H10.55a1.359,1.359,0,0,1,0-2.719H23.184a1.359,1.359,0,0,1,0,2.719" transform="translate(25.663 14.127)" fill="#02a34d"/><path d="M12.219,18.75a1.356,1.356,0,0,1-1.357-1.357V4.759a1.357,1.357,0,1,1,2.715,0V17.393a1.356,1.356,0,0,1-1.357,1.357" transform="translate(30.322 9.485)" fill="#02a34d"/><path d="M33.682,11.916H3.289a1.359,1.359,0,0,1,0-2.719H33.682a1.359,1.359,0,0,1,0,2.719" transform="translate(5.393 25.673)" fill="#02a34d"/><path d="M33.682,13.812H3.289a1.359,1.359,0,0,1,0-2.719H33.682a1.359,1.359,0,0,1,0,2.719" transform="translate(5.393 30.966)" fill="#02a34d"/><path d="M9.863,12.543A4.844,4.844,0,1,1,14.7,7.7a4.851,4.851,0,0,1-4.842,4.846m0-7.659A2.813,2.813,0,1,0,12.676,7.7,2.817,2.817,0,0,0,9.863,4.884" transform="translate(14.016 7.972)" fill="#02a34d"/><path d="M19.595,16.3H4.277L4.3,15.276c.087-5.5,3.443-9.8,7.644-9.8s7.557,4.3,7.64,9.8Zm-13.2-2.028H17.487C17.07,10.457,14.719,7.5,11.94,7.5s-5.134,2.954-5.547,6.772" transform="translate(11.939 15.283)" fill="#02a34d"/></g></g></svg>