<svg xmlns="http://www.w3.org/2000/svg" xmlns:xlink="http://www.w3.org/1999/xlink" width="62.002" height="47.385" viewBox="0 0 62.002 47.385"><defs><clipPath id="a"><rect width="62.002" height="47.385" fill="none"/></clipPath></defs><g transform="translate(0 0)"><g transform="translate(0 0)" clip-path="url(#a)"><path d="M20.14,35.638V27.923H12.321a3.513,3.513,0,0,1-3.509-3.509V3.512A3.514,3.514,0,0,1,12.321,0H45.073a3.514,3.514,0,0,1,3.509,3.512v20.9a3.513,3.513,0,0,1-3.509,3.509H31.6ZM12.321,1.809a1.7,1.7,0,0,0-1.7,1.7v20.9a1.7,1.7,0,0,0,1.7,1.7h9.625V32.24l9.1-6.126h14.03a1.7,1.7,0,0,0,1.7-1.7V3.512a1.7,1.7,0,0,0-1.7-1.7Z" transform="translate(13.42 0)" fill="#0167ab"/><path d="M28.445,40.294l-11.459-7.72H3.509A3.513,3.513,0,0,1,0,29.067V8.165A3.513,3.513,0,0,1,3.509,4.656H19.883a.9.9,0,1,1,0,1.809H3.509a1.7,1.7,0,0,0-1.7,1.7v20.9a1.7,1.7,0,0,0,1.7,1.7h14.03l9.1,6.126V30.768h9.625a1.7,1.7,0,0,0,1.7-1.7.9.9,0,1,1,1.809,0,3.513,3.513,0,0,1-3.509,3.507H28.445Z" transform="translate(0 7.09)" fill="#0167ab"/><path d="M15.138,9.374H4.023a.9.9,0,1,1,0-1.809H15.138a.9.9,0,0,1,0,1.809" transform="translate(4.747 11.52)" fill="#02a34d"/><path d="M15.138,10.912H4.023a.9.9,0,1,1,0-1.809H15.138a.9.9,0,0,1,0,1.809" transform="translate(4.747 13.862)" fill="#02a34d"/><path d="M15.138,12.45H4.023a.9.9,0,1,1,0-1.809H15.138a.9.9,0,0,1,0,1.809" transform="translate(4.747 16.204)" fill="#02a34d"/><path d="M25.311,13.988H4.023a.9.9,0,1,1,0-1.809H25.311a.9.9,0,0,1,0,1.809" transform="translate(4.747 18.547)" fill="#02a34d"/><path d="M19.178,17.058a.9.9,0,0,1-.9-.9V13.372a4.02,4.02,0,0,1,1.171-2.828l1.594-1.6a2.431,2.431,0,0,0,.719-1.733V6.3a2.451,2.451,0,0,0-4.9,0v1.05a.9.9,0,1,1-1.809,0V6.3a4.26,4.26,0,0,1,8.52,0v.918a4.245,4.245,0,0,1-1.246,3.012l-1.6,1.6a2.193,2.193,0,0,0-.643,1.547v2.783a.9.9,0,0,1-.9.9" transform="translate(22.916 3.102)" fill="#02a34d"/><path d="M17.445,11.414a1.5,1.5,0,0,0,0-3,1.5,1.5,0,0,0,0,3" transform="translate(24.359 12.805)" fill="#02a34d"/></g></g></svg>