<svg xmlns="http://www.w3.org/2000/svg" width="31.901" height="28" viewBox="0 0 31.901 28"><g transform="translate(-470.667 -967.804)"><path d="M27.992,13.965A14,14,0,1,1,13.976,0,13.98,13.98,0,0,1,27.992,13.965M13.948,22.939c1.355,0,2.71.009,4.064,0a4.822,4.822,0,0,0,4.94-4.9q.04-4.087,0-8.175A4.826,4.826,0,0,0,18.1,5.076q-4.11-.011-8.221,0A4.821,4.821,0,0,0,5.057,9.941q0,3.972,0,7.944a4.835,4.835,0,0,0,5.057,5.053c1.278,0,2.556,0,3.833,0" transform="translate(470.667 967.803)" fill="#0167ab"/><path d="M26.726,35.749c-1.278,0-2.556,0-3.833,0A4.835,4.835,0,0,1,17.836,30.7q0-3.972,0-7.944a4.82,4.82,0,0,1,4.821-4.865q4.111-.014,8.221,0a4.826,4.826,0,0,1,4.856,4.791q.038,4.087,0,8.175a4.822,4.822,0,0,1-4.94,4.9c-1.355.01-2.71,0-4.064,0m7.43-8.939q0-1.962,0-3.924a3.3,3.3,0,0,0-3.43-3.434q-3.947-.011-7.895,0a3.3,3.3,0,0,0-3.428,3.4q-.021,3.97,0,7.941a3.287,3.287,0,0,0,3.39,3.382q3.993.019,7.987,0a3.288,3.288,0,0,0,3.377-3.392q0-1.985,0-3.971" transform="translate(457.889 954.994)" fill="#fff"/><path d="M38.087,30.767q0,1.985,0,3.971a3.288,3.288,0,0,1-3.377,3.392q-3.994.015-7.987,0a3.287,3.287,0,0,1-3.39-3.382q-.021-3.97,0-7.941a3.3,3.3,0,0,1,3.428-3.4q3.947-.011,7.895,0a3.3,3.3,0,0,1,3.43,3.434c0,1.308,0,2.616,0,3.924m-7.353,4.878a4.876,4.876,0,1,0-4.879-4.864,4.857,4.857,0,0,0,4.879,4.864m4.8-10.687a1.035,1.035,0,1,0-.047,2.069,1.06,1.06,0,0,0,1.072-1.034,1.071,1.071,0,0,0-1.025-1.036" transform="translate(453.957 951.036)" fill="#0167ab"/><path d="M37.131,41.935a4.876,4.876,0,0,1-.06-9.752,4.877,4.877,0,1,1,.06,9.752m-3.219-4.871a3.2,3.2,0,1,0,3.167-3.184,3.209,3.209,0,0,0-3.167,3.184" transform="translate(447.561 944.746)" fill="#fff"/><path d="M63.688,28.888a1.071,1.071,0,0,1,1.025,1.036,1.06,1.06,0,0,1-1.072,1.034,1.035,1.035,0,1,1,.047-2.069" transform="translate(425.8 947.107)" fill="#fff"/><path d="M38.1,41.352a3.2,3.2,0,1,1,3.229,3.216A3.211,3.211,0,0,1,38.1,41.352" transform="translate(443.367 940.458)" fill="#0167ab"/><path d="M85.919,63.531a5.261,5.261,0,1,1-5.261-5.261,5.261,5.261,0,0,1,5.261,5.261" transform="translate(416.649 926.056)" fill="#2c9539"/><path d="M80.941,73.285c.054-.094,1.83-2.833,1.83-2.833a.92.92,0,0,1,.885-.421.879.879,0,0,1,.389.149L85.5,71.262a.336.336,0,0,0,.4,0L87.814,69.8a.3.3,0,0,1,.4.035l.01.011a.265.265,0,0,1,.028.314s-1.53,2.5-1.774,2.9a.8.8,0,0,1-1.2.31l-1.57-1.137a.368.368,0,0,0-.44.007S81.7,73.512,81.4,73.688c-.358.215-.639-.1-.462-.4" transform="translate(412.716 917.837)" fill="#fffdff"/><rect width="31.901" height="28" transform="translate(470.667 967.804)" fill="none"/></g></svg>