<svg xmlns="http://www.w3.org/2000/svg" xmlns:xlink="http://www.w3.org/1999/xlink" width="28.719" height="27.999" viewBox="0 0 28.719 27.999"><defs><clipPath id="a"><rect width="28.719" height="27.999" fill="none"/></clipPath></defs><g clip-path="url(#a)"><path d="M28,13.969A14,14,0,1,1,13.921,0,14.019,14.019,0,0,1,28,13.969m-9.979,1.8.569-3.6h-3.38c0-.974-.029-1.881.01-2.785a1.359,1.359,0,0,1,1.008-1.254,4.178,4.178,0,0,1,1.084-.175c.454-.029.91-.007,1.362-.007V4.869c-.871,0-1.7-.008-2.53,0a8.892,8.892,0,0,0-1.606.074,4.076,4.076,0,0,0-3.142,3.915c-.065.935-.028,1.877-.04,2.816,0,.161-.02.322-.034.523H8.167v3.584h3.2v8.763H15.21V15.771Z" transform="translate(0 0)" fill="#0167ab"/><path d="M38.657,28.069H35.848v8.776H32.01V28.082h-3.2V24.5h3.153c.014-.2.032-.362.034-.523.012-.939-.025-1.881.04-2.816a4.076,4.076,0,0,1,3.142-3.915,8.892,8.892,0,0,1,1.606-.074c.829-.01,1.658,0,2.53,0v3.086c-.451,0-.908-.022-1.362.007a4.178,4.178,0,0,0-1.084.175,1.359,1.359,0,0,0-1.008,1.254c-.039.9-.01,1.811-.01,2.785h3.38l-.569,3.6" transform="translate(-20.637 -12.297)" fill="#fff"/><path d="M74.7,63.527a5.261,5.261,0,1,1-5.261-5.261A5.261,5.261,0,0,1,74.7,63.527" transform="translate(-45.977 -41.745)" fill="#2c9539"/><path d="M69.72,73.28c.054-.094,1.83-2.833,1.83-2.833a.92.92,0,0,1,.885-.421.879.879,0,0,1,.389.149l1.459,1.082a.336.336,0,0,0,.4,0L76.593,69.8a.3.3,0,0,1,.4.035l.01.011a.265.265,0,0,1,.028.314s-1.53,2.5-1.774,2.9a.8.8,0,0,1-1.2.31l-1.57-1.137a.368.368,0,0,0-.44.007s-1.579,1.268-1.873,1.444c-.358.215-.639-.1-.462-.4" transform="translate(-49.912 -49.963)" fill="#fffdff"/></g></svg>