<svg xmlns="http://www.w3.org/2000/svg" xmlns:xlink="http://www.w3.org/1999/xlink" width="33.867" height="35.968" viewBox="0 0 33.867 35.968"><defs><clipPath id="a"><rect width="33.868" height="35.968" fill="none"/></clipPath></defs><g transform="translate(0 0)"><g transform="translate(0 0)" clip-path="url(#a)"><path d="M3.036,16.632a.643.643,0,0,1-.461-1.091L6.421,11.6a3.818,3.818,0,0,1,2.718-1.146H21.416a2.566,2.566,0,0,1,0,5.131H14.909a.643.643,0,1,1,0-1.286h6.507a1.28,1.28,0,0,0,0-2.56H9.139a2.526,2.526,0,0,0-1.8.759L3.5,16.438a.642.642,0,0,1-.461.194" transform="translate(1.9 8.299)" fill="#00569e"/><path d="M6.858,24.927a.635.635,0,0,1-.457-.19.642.642,0,0,1,.007-.911L9.825,20.46a3.816,3.816,0,0,1,2.691-1.1h6.315a2.572,2.572,0,0,0,1.8-.748l6.626-6.626a1.317,1.317,0,1,0-1.864-1.86l-4.537,4.521a.648.648,0,0,1-.91,0,.642.642,0,0,1,0-.91L24.49,9.213A2.6,2.6,0,0,1,28.17,12.9l-6.624,6.626a3.87,3.87,0,0,1-2.714,1.123H12.517a2.544,2.544,0,0,0-1.789.732l-3.42,3.366a.634.634,0,0,1-.45.185" transform="translate(4.935 6.712)" fill="#00569e"/><path d="M11.8,9.075H11.01A1.878,1.878,0,0,1,9.133,7.2V6.879a.643.643,0,0,1,1.286,0V7.2a.591.591,0,0,0,.59.59H11.8a.59.59,0,0,0,.262-1.12l-1.886-.944A1.863,1.863,0,0,1,9.133,4.046v-.37A1.878,1.878,0,0,1,11.01,1.8H11.8a1.878,1.878,0,0,1,1.877,1.877v.395a.642.642,0,0,1-1.285,0V3.677a.592.592,0,0,0-.592-.59H11.01a.592.592,0,0,0-.59.59v.37a.584.584,0,0,0,.327.527l1.889.947a1.876,1.876,0,0,1-.84,3.554" transform="translate(7.253 1.43)" fill="#2d9539"/><path d="M10.709,7.385a.642.642,0,0,1-.642-.642V5.788a.642.642,0,1,1,1.285,0v.954a.642.642,0,0,1-.642.642" transform="translate(7.994 4.087)" fill="#2d9539"/><path d="M10.709,3.33a.642.642,0,0,1-.642-.642V1.9a.642.642,0,1,1,1.285,0v.784a.642.642,0,0,1-.642.642" transform="translate(7.994 1.002)" fill="#2d9539"/><path d="M10.985,26.091a2.693,2.693,0,0,1-1.907-.786L.791,17.016a2.694,2.694,0,0,1,0-3.814,2.759,2.759,0,0,1,3.812,0l8.289,8.287a2.7,2.7,0,0,1,0,3.812v0a2.693,2.693,0,0,1-1.907.786m1.451-1.242h0ZM2.7,13.7a1.409,1.409,0,0,0-1,2.408l8.287,8.287a1.409,1.409,0,0,0,1.993,0h0a1.406,1.406,0,0,0,.413-1,1.392,1.392,0,0,0-.413-.994L3.694,14.112a1.4,1.4,0,0,0-1-.413" transform="translate(0 9.878)" fill="#2d9539"/><path d="M18.262,15.386H6.7a.643.643,0,0,1,0-1.286H18.262a2.1,2.1,0,0,0,2.1-2.1V2.341a.643.643,0,1,1,1.286,0V12a3.385,3.385,0,0,1-3.382,3.382" transform="translate(4.807 1.348)" fill="#2d9539"/><path d="M6.7,13.666a.642.642,0,0,1-.642-.642V3.382A3.385,3.385,0,0,1,9.436,0h14.4a.643.643,0,0,1,0,1.286H9.436a2.1,2.1,0,0,0-2.1,2.1v9.642a.642.642,0,0,1-.642.642" transform="translate(4.808 0)" fill="#2d9539"/><path d="M15.442,8.186H6.7A.643.643,0,0,1,6.7,6.9h8.746a.643.643,0,0,1,0,1.286" transform="translate(4.807 5.48)" fill="#2d9539"/><path d="M7.951,11.254A3.48,3.48,0,0,1,4.474,7.779V6.9H7.951a.643.643,0,0,1,0,1.286H5.8A2.2,2.2,0,0,0,7.951,9.968a.643.643,0,0,1,0,1.286" transform="translate(3.553 5.48)" fill="#2d9539"/><path d="M14.4,11.254a3.48,3.48,0,0,1-3.477-3.475V7.544a.642.642,0,1,1,1.285,0v.235A2.195,2.195,0,0,0,14.4,9.968a.643.643,0,0,1,0,1.286" transform="translate(8.678 5.48)" fill="#2d9539"/><path d="M14.669,4.354a.642.642,0,0,1-.642-.642V3.479A3.48,3.48,0,0,1,17.5,0a.643.643,0,0,1,0,1.286,2.2,2.2,0,0,0-2.192,2.192v.233a.642.642,0,0,1-.642.642" transform="translate(11.139 0)" fill="#2d9539"/><path d="M20.981,4.354H14.669a.643.643,0,0,1,0-1.286h4.988A2.2,2.2,0,0,0,17.5,1.286.643.643,0,0,1,17.5,0a3.48,3.48,0,0,1,3.477,3.479Z" transform="translate(11.139 0)" fill="#2d9539"/></g></g></svg>