<svg xmlns="http://www.w3.org/2000/svg" width="59.067" height="58.654" viewBox="0 0 59.067 58.654">
  <g id="Grupo_162413" data-name="Grupo 162413" transform="translate(-415.016 -249.462)">
    <ellipse id="Elipse_12" data-name="Elipse 12" cx="29.534" cy="29.327" rx="29.534" ry="29.327" transform="translate(415.016 249.462)" fill="#00a34c"/>
    <g id="Grupo_161823" data-name="Grupo 161823" transform="translate(430.016 264.462)">
      <path id="Trazado_83332" data-name="Trazado 83332" d="M16.678,3.685V3.307A1.189,1.189,0,0,0,15.491,2.12h-.757a1.189,1.189,0,0,0-1.187,1.187v.361A1.213,1.213,0,0,0,14.2,4.735l1.806.912a1.193,1.193,0,0,1,.654,1.066h0A1.189,1.189,0,0,1,15.474,7.9h-.757A1.189,1.189,0,0,1,13.53,6.713V6.4" transform="translate(9.124 0.907)" fill="none" stroke="#fff" stroke-linecap="round" stroke-width="2"/>
      <line id="Línea_227" data-name="Línea 227" y2="0.929" transform="translate(24.288 9.139)" fill="none" stroke="#fff" stroke-linecap="round" stroke-width="2"/>
      <line id="Línea_228" data-name="Línea 228" y2="0.757" transform="translate(24.288 2.099)" fill="none" stroke="#fff" stroke-linecap="round" stroke-width="2"/>
      <path id="Trazado_83333" data-name="Trazado 83333" d="M24.424,12.076v5.952a2.613,2.613,0,0,1-2.615,2.615H2.975A2.613,2.613,0,0,1,.36,18.028V7.725A2.613,2.613,0,0,1,2.975,5.11H15.411" transform="translate(-0.36 4.012)" fill="none" stroke="#fff" stroke-linecap="round" stroke-width="2"/>
      <line id="Línea_229" data-name="Línea 229" x2="3.199" transform="translate(3.595 18.768)" fill="none" stroke="#fff" stroke-linecap="round" stroke-width="2"/>
      <line id="Línea_230" data-name="Línea 230" x2="3.199" transform="translate(10.424 18.768)" fill="none" stroke="#fff" stroke-linecap="round" stroke-width="2"/>
      <line id="Línea_231" data-name="Línea 231" x2="3.199" transform="translate(17.253 18.768)" fill="none" stroke="#fff" stroke-linecap="round" stroke-width="2"/>
      <ellipse id="Elipse_2" data-name="Elipse 2" cx="6.003" cy="6.003" rx="6.003" ry="6.003" transform="translate(18.061 0)" fill="none" stroke="#fff" stroke-linecap="round" stroke-width="2"/>
    </g>
  </g>
</svg>
