<svg xmlns="http://www.w3.org/2000/svg" xmlns:xlink="http://www.w3.org/1999/xlink" width="34.203" height="22.026" viewBox="0 0 34.203 22.026"><defs><clipPath id="a"><rect width="34.203" height="22.026" fill="none"/></clipPath></defs><g transform="translate(0 0)"><g transform="translate(0 0)" clip-path="url(#a)"><path d="M6.453,9.473A3.577,3.577,0,1,1,10.029,5.9,3.58,3.58,0,0,1,6.453,9.473m0-5.653A2.077,2.077,0,1,0,8.528,5.9,2.079,2.079,0,0,0,6.453,3.819" transform="translate(3.14 2.532)" fill="#02a34d"/><path d="M13.2,11.583H1.88l.013-.762C1.98,5.689,4.73,5.26,7.54,5.26s5.557.429,5.645,5.561Zm-9.769-1.5h8.221C11.4,7,9.9,6.76,7.54,6.76S3.681,7,3.428,10.083" transform="translate(2.054 5.745)" fill="#02a34d"/><path d="M30.023,22.028H4.178A4.184,4.184,0,0,1,0,17.845V4.178A4.182,4.182,0,0,1,4.178,0H30.023A4.185,4.185,0,0,1,34.2,4.178V17.845a4.188,4.188,0,0,1-4.18,4.183M4.178,1.5A2.681,2.681,0,0,0,1.5,4.178V17.845a2.683,2.683,0,0,0,2.678,2.682H30.023a2.685,2.685,0,0,0,2.68-2.682V4.178A2.682,2.682,0,0,0,30.023,1.5Z" transform="translate(0 -0.001)" fill="#02a34d"/><path d="M13.67,15.921H1.731V1.371H13.67Zm-10.439-1.5H12.17V2.869H3.231Z" transform="translate(1.891 1.497)" fill="#0167ab"/><path d="M9.728,10.091H3.466a.75.75,0,1,1,0-1.5H9.728a.75.75,0,0,1,0,1.5" transform="translate(2.966 9.383)" fill="#02a34d"/><path d="M17.992,4.105H9.12a.75.75,0,1,1,0-1.5h8.871a.75.75,0,0,1,0,1.5" transform="translate(9.142 2.845)" fill="#0167ab"/><path d="M20.194,5.74H9.117a.75.75,0,0,1,0-1.5H20.194a.75.75,0,0,1,0,1.5" transform="translate(9.143 4.631)" fill="#0167ab"/><path d="M14.165,9.009H9.12a.75.75,0,1,1,0-1.5h5.045a.75.75,0,0,1,0,1.5" transform="translate(9.142 8.202)" fill="#0167ab"/><path d="M13.991,7.375H9.12a.75.75,0,1,1,0-1.5h4.871a.75.75,0,0,1,0,1.5" transform="translate(9.142 6.417)" fill="#0167ab"/></g></g></svg>