<svg xmlns="http://www.w3.org/2000/svg" xmlns:xlink="http://www.w3.org/1999/xlink" width="34.928" height="42.591" viewBox="0 0 34.928 42.591"><defs><clipPath id="a"><rect width="34.928" height="42.591" fill="none"/></clipPath></defs><g transform="translate(0 0)"><g transform="translate(0 0)" clip-path="url(#a)"><path d="M17.681,8.043h-.81a1.937,1.937,0,0,1-1.935-1.935V5.778a.662.662,0,1,1,1.325,0v.329a.61.61,0,0,0,.611.609h.81a.608.608,0,0,0,.272-1.153L16,4.588a1.921,1.921,0,0,1-1.069-1.732V2.475A1.937,1.937,0,0,1,16.87.54h.81a1.937,1.937,0,0,1,1.935,1.935v.405a.663.663,0,0,1-1.327,0V2.475a.61.61,0,0,0-.609-.609h-.81a.611.611,0,0,0-.611.609v.381A.6.6,0,0,0,16.6,3.4l1.948.977a1.935,1.935,0,0,1-.866,3.665" transform="translate(12.699 0.46)" fill="#2d9539"/><path d="M16.531,6.194a.662.662,0,0,1-.662-.662V4.547a.662.662,0,1,1,1.325,0v.984a.662.662,0,0,1-.662.662" transform="translate(13.493 3.304)" fill="#2d9539"/><path d="M16.531,2.133a.662.662,0,0,1-.662-.662V.662a.662.662,0,1,1,1.325,0v.809a.662.662,0,0,1-.662.662" transform="translate(13.493 0.001)" fill="#2d9539"/><path d="M3.056,19.792a.663.663,0,0,1-.476-1.125L6.547,14.6a3.936,3.936,0,0,1,2.8-1.18H22.012a2.645,2.645,0,0,1,0,5.29H15.3a.663.663,0,1,1,0-1.327h6.711a1.319,1.319,0,0,0,0-2.638H9.35a2.611,2.611,0,0,0-1.852.781L3.531,19.593a.663.663,0,0,1-.476.2" transform="translate(2.034 11.411)" fill="#00569e"/><path d="M6.878,28.411a.655.655,0,0,1-.472-.2.662.662,0,0,1,.007-.94l3.525-3.469a3.926,3.926,0,0,1,2.775-1.138h6.513a2.647,2.647,0,0,0,1.86-.77l6.835-6.833A1.359,1.359,0,0,0,26,13.145l-4.679,4.665a.663.663,0,0,1-.936-.94L25.063,12.2a2.685,2.685,0,1,1,3.795,3.8l-6.831,6.831a3.984,3.984,0,0,1-2.8,1.158H12.714a2.615,2.615,0,0,0-1.845.757L7.342,28.221a.654.654,0,0,1-.464.191" transform="translate(5.284 9.713)" fill="#00569e"/><path d="M11.329,29.5a2.763,2.763,0,0,1-1.967-.816L.816,20.138A2.78,2.78,0,0,1,4.746,16.2l8.548,8.548A2.781,2.781,0,0,1,11.329,29.5M2.781,16.719A1.452,1.452,0,0,0,1.752,19.2L10.3,27.747a1.484,1.484,0,0,0,2.056,0v0a1.447,1.447,0,0,0,0-2.054L3.81,17.143a1.454,1.454,0,0,0-1.029-.424" transform="translate(0 13.09)" fill="#2d9539"/><path d="M27.178,19.541H6.94a3.489,3.489,0,0,1-3.486-3.484V4.981A3.489,3.489,0,0,1,6.94,1.5H21.515a.663.663,0,1,1,0,1.327H6.94A2.16,2.16,0,0,0,4.781,4.981V16.057A2.16,2.16,0,0,0,6.94,18.214H27.178a2.161,2.161,0,0,0,2.159-2.157v-6.4a.662.662,0,1,1,1.325,0v6.4a3.488,3.488,0,0,1-3.484,3.484" transform="translate(2.937 1.274)" fill="#2d9539"/><path d="M9.656,8.56H6.212a.663.663,0,1,1,0-1.327H9.656a.663.663,0,0,1,0,1.327" transform="translate(4.717 6.151)" fill="#2d9539"/><path d="M13.626,8.56H10.182a.663.663,0,1,1,0-1.327h3.443a.663.663,0,0,1,0,1.327" transform="translate(8.093 6.151)" fill="#2d9539"/><path d="M17.6,8.56H14.152a.663.663,0,1,1,0-1.327H17.6a.663.663,0,0,1,0,1.327" transform="translate(11.468 6.151)" fill="#2d9539"/></g></g></svg>