<svg xmlns="http://www.w3.org/2000/svg" xmlns:xlink="http://www.w3.org/1999/xlink" width="34.427" height="34.891" viewBox="0 0 34.427 34.891"><defs><clipPath id="a"><rect width="34.427" height="34.891" fill="none"/></clipPath></defs><g transform="translate(0 0)"><g transform="translate(0 0)" clip-path="url(#a)"><path d="M3.046,15.816a.654.654,0,0,1-.469-1.109l3.91-4.01A3.88,3.88,0,0,1,9.251,9.533h12.48a2.608,2.608,0,0,1,0,5.216H15.116a.654.654,0,1,1,0-1.308h6.615a1.3,1.3,0,0,0,0-2.6H9.251a2.574,2.574,0,0,0-1.826.77l-3.91,4.01a.653.653,0,0,1-.469.2" transform="translate(1.971 7.853)" fill="#00569e"/><path d="M6.869,24.28a.645.645,0,0,1-.465-.193.653.653,0,0,1,.007-.926l3.474-3.42a3.87,3.87,0,0,1,2.736-1.122h6.42a2.577,2.577,0,0,0,1.835-.761l6.735-6.733a1.339,1.339,0,1,0-1.895-1.893L21.1,13.83a.654.654,0,1,1-.923-.926l4.612-4.6a2.647,2.647,0,0,1,3.741,3.746L21.8,18.785a3.875,3.875,0,0,1-2.759,1.142h-6.42a2.577,2.577,0,0,0-1.818.746l-3.476,3.42a.644.644,0,0,1-.458.188" transform="translate(5.119 6.207)" fill="#00569e"/><path d="M11.167,25.4a2.723,2.723,0,0,1-1.939-.8L.8,16.174A2.739,2.739,0,0,1,.8,12.3a2.8,2.8,0,0,1,3.876,0L13.1,20.721a2.739,2.739,0,0,1,0,3.876l0,0a2.72,2.72,0,0,1-1.937.8M2.741,12.8a1.433,1.433,0,0,0-1.012,2.448l8.424,8.422a1.463,1.463,0,0,0,2.026,0v0a1.415,1.415,0,0,0,.419-1.012,1.43,1.43,0,0,0-.419-1.014L3.755,13.221A1.422,1.422,0,0,0,2.741,12.8" transform="translate(0 9.491)" fill="#2d9539"/><path d="M14.442,14.41a7.2,7.2,0,1,1,7.2-7.206,7.213,7.213,0,0,1-7.2,7.206m0-13.1a5.9,5.9,0,1,0,5.9,5.9,5.9,5.9,0,0,0-5.9-5.9" transform="translate(5.963 0)" fill="#2d9539"/><path d="M12.629,9.319h-.8A1.909,1.909,0,0,1,9.923,7.412V7.087a.654.654,0,0,1,1.308,0v.325a.6.6,0,0,0,.6.6h.8A.6.6,0,0,0,12.9,6.876l-1.92-.961A1.9,1.9,0,0,1,9.923,4.207V3.832a1.909,1.909,0,0,1,1.908-1.908h.8a1.909,1.909,0,0,1,1.908,1.908v.4a.654.654,0,0,1-1.308,0v-.4a.6.6,0,0,0-.6-.6h-.8a.6.6,0,0,0-.6.6v.376a.593.593,0,0,0,.332.536l1.92.963a1.907,1.907,0,0,1-.854,3.613" transform="translate(8.174 1.585)" fill="#2d9539"/><path d="M11.51,7.545a.652.652,0,0,1-.653-.653v-.97a.653.653,0,0,1,1.306,0v.97a.652.652,0,0,1-.653.653" transform="translate(8.944 4.341)" fill="#2d9539"/><path d="M11.51,3.487a.652.652,0,0,1-.653-.653v-.8a.653.653,0,1,1,1.306,0v.8a.652.652,0,0,1-.653.653" transform="translate(8.944 1.14)" fill="#2d9539"/></g></g></svg>