<svg xmlns="http://www.w3.org/2000/svg" xmlns:xlink="http://www.w3.org/1999/xlink" width="36" height="41.445" viewBox="0 0 36 41.445"><defs><clipPath id="a"><rect width="36" height="41.445" fill="none"/></clipPath></defs><g transform="translate(0 0)"><g transform="translate(0 0)" clip-path="url(#a)"><path d="M3.076,18.7a.684.684,0,0,1-.49-1.16l4.089-4.192a4.057,4.057,0,0,1,2.889-1.217h13.05a2.726,2.726,0,0,1,0,5.452H15.7a.684.684,0,1,1,0-1.367h6.917a1.36,1.36,0,0,0,0-2.719H9.564a2.691,2.691,0,0,0-1.909.8L3.566,18.5a.683.683,0,0,1-.49.206" transform="translate(2.17 11.007)" fill="#00569e"/><path d="M6.9,27.646a.675.675,0,0,1-.486-.2.683.683,0,0,1,.008-.969L10.052,22.9a4.051,4.051,0,0,1,2.863-1.173h6.713a2.7,2.7,0,0,0,1.919-.8l7.041-7.041a1.4,1.4,0,0,0-1.981-1.98l-4.823,4.808a.684.684,0,1,1-.965-.969l4.823-4.808a2.768,2.768,0,0,1,3.913,3.917L22.513,21.9a4.052,4.052,0,0,1-2.885,1.194H12.914a2.7,2.7,0,0,0-1.9.78L7.378,27.449a.674.674,0,0,1-.479.2" transform="translate(5.638 9.193)" fill="#00569e"/><path d="M11.677,28.648a2.851,2.851,0,0,1-2.027-.841L.841,19a2.866,2.866,0,0,1,4.051-4.054L13.7,23.754a2.866,2.866,0,0,1,0,4.053v0a2.857,2.857,0,0,1-2.027.839m1.543-1.324h0ZM2.866,15.474a1.5,1.5,0,0,0-1.06,2.555l8.811,8.811a1.526,1.526,0,0,0,2.121,0,1.5,1.5,0,0,0,0-2.117L3.927,15.91a1.5,1.5,0,0,0-1.06-.437" transform="translate(0 12.797)" fill="#2d9539"/><path d="M27.908,18.808H7.046a3.6,3.6,0,0,1-3.591-3.591V3.8A3.6,3.6,0,0,1,7.046.21H22.07a.684.684,0,0,1,0,1.367H7.046A2.226,2.226,0,0,0,4.822,3.8V15.217A2.226,2.226,0,0,0,7.046,17.44H27.908a2.228,2.228,0,0,0,2.226-2.224V8.622a.683.683,0,0,1,1.365,0v6.595a3.6,3.6,0,0,1-3.591,3.591" transform="translate(3.134 0.191)" fill="#2d9539"/><path d="M9.783,7.314H6.232a.684.684,0,0,1,0-1.367H9.783a.684.684,0,0,1,0,1.367" transform="translate(5.033 5.395)" fill="#2d9539"/><path d="M13.752,7.314H10.2a.684.684,0,1,1,0-1.367h3.549a.684.684,0,0,1,0,1.367" transform="translate(8.634 5.395)" fill="#2d9539"/><path d="M17.722,7.314H14.173a.684.684,0,1,1,0-1.367h3.549a.684.684,0,0,1,0,1.367" transform="translate(12.235 5.395)" fill="#2d9539"/><path d="M19.6,6.7a.674.674,0,0,1-.523-.244L14.591,1.123A.684.684,0,1,1,15.638.244l4.48,5.328a.683.683,0,0,1-.082.963.675.675,0,0,1-.441.16" transform="translate(13.09 0)" fill="#00569e"/><path d="M15.174,6.7a.675.675,0,0,1-.441-.16.683.683,0,0,1-.082-.963L19.131.244a.684.684,0,1,1,1.047.879L15.7,6.452a.674.674,0,0,1-.523.244" transform="translate(13.144 0)" fill="#00569e"/></g></g></svg>