<svg xmlns="http://www.w3.org/2000/svg" xmlns:xlink="http://www.w3.org/1999/xlink" width="73.943" height="66.386" viewBox="0 0 73.943 66.386"><defs><clipPath id="a"><rect width="73.943" height="66.386" fill="none"/></clipPath></defs><g transform="translate(0 0)"><g transform="translate(0 0)" clip-path="url(#a)"><path d="M12.479,8.423H2.119a.859.859,0,0,1-.857-.861v-.78a.855.855,0,0,1,.857-.857h10.36a.859.859,0,0,1,.861.857v.78a.862.862,0,0,1-.861.861" transform="translate(3.379 15.867)" fill="#0869ad"/><path d="M15.26,8.423H9.641a.862.862,0,0,1-.861-.861v-.78a.859.859,0,0,1,.861-.857H15.26a.859.859,0,0,1,.861.857v.78a.862.862,0,0,1-.861.861" transform="translate(23.51 15.867)" fill="#0869ad"/><path d="M17.766,8.423H12.147a.862.862,0,0,1-.861-.861v-.78a.859.859,0,0,1,.861-.857h5.619a.859.859,0,0,1,.861.857v.78a.862.862,0,0,1-.861.861" transform="translate(30.22 15.867)" fill="#0869ad"/><path d="M12.753,8.423H7.134a.862.862,0,0,1-.861-.861v-.78a.859.859,0,0,1,.861-.857h5.619a.859.859,0,0,1,.861.857v.78a.862.862,0,0,1-.861.861" transform="translate(16.797 15.867)" fill="#0869ad"/><path d="M20.275,30.123a1.13,1.13,0,0,1-.8-.331l-3.648-3.648L12.548,29.4a1.131,1.131,0,0,1-1.872-.449L4.388,9.992a1.135,1.135,0,0,1,.28-1.158,1.124,1.124,0,0,1,1.162-.268L24.688,15a1.136,1.136,0,0,1,.434,1.876l-3.244,3.229,3.641,3.641a1.13,1.13,0,0,1,.331.8,1.115,1.115,0,0,1-.331.8l-4.446,4.446A1.121,1.121,0,0,1,20.275,30.123Zm-4.446-6.708a1.13,1.13,0,0,1,.8.331l3.645,3.645,2.843-2.843L19.477,20.9a1.128,1.128,0,0,1,0-1.6l2.758-2.744L7.256,11.441,12.251,26.5l2.78-2.762A1.14,1.14,0,0,1,15.829,23.415Z" transform="translate(11.599 22.768)" fill="#02a34d"/><path d="M50.084,53.945H4.37A4.374,4.374,0,0,1,0,49.576V9.015A4.372,4.372,0,0,1,4.37,4.646H50.084a4.369,4.369,0,0,1,4.365,4.369V49.576a4.371,4.371,0,0,1-4.365,4.369M4.37,7.283A1.736,1.736,0,0,0,2.634,9.015V49.576A1.739,1.739,0,0,0,4.37,51.312H50.084a1.735,1.735,0,0,0,1.729-1.736V9.015a1.732,1.732,0,0,0-1.729-1.732Z" transform="translate(0.003 12.439)" fill="#0167ab"/><path d="M53.135,18.321H1.317a1.318,1.318,0,0,1,0-2.637H53.135a1.318,1.318,0,0,1,0,2.637" transform="translate(0 41.996)" fill="#0167ab"/><path d="M24.139,19.741a1.318,1.318,0,0,1-1.232-.846c-1.574-4.119-2.648-5.193-6.763-6.763a1.32,1.32,0,0,1,0-2.464C20.259,8.094,21.333,7.02,22.907,2.9a1.32,1.32,0,0,1,2.464,0c1.57,4.115,2.644,5.189,6.763,6.763a1.32,1.32,0,0,1,0,2.464c-4.119,1.57-5.193,2.644-6.763,6.763a1.315,1.315,0,0,1-1.232.846M19.866,10.9a9.607,9.607,0,0,1,4.273,4.273A9.571,9.571,0,0,1,28.413,10.9a9.607,9.607,0,0,1-4.273-4.273A9.644,9.644,0,0,1,19.866,10.9" transform="translate(40.963 5.512)" fill="#02a34d"/><path d="M17.211,12.78a1.1,1.1,0,0,1-1.03-.71c-1.089-2.854-1.831-3.6-4.682-4.685a1.1,1.1,0,0,1,0-2.059C14.35,4.237,15.093,3.494,16.181.64a1.151,1.151,0,0,1,2.063,0c1.089,2.854,1.831,3.6,4.682,4.685a1.1,1.1,0,0,1,0,2.059c-2.85,1.089-3.593,1.831-4.682,4.685a1.1,1.1,0,0,1-1.033.71M14.53,6.355a6.883,6.883,0,0,1,2.681,2.681A6.917,6.917,0,0,1,19.9,6.355a6.917,6.917,0,0,1-2.685-2.681A6.883,6.883,0,0,1,14.53,6.355" transform="translate(28.881 -0.001)" fill="#02a34d"/></g></g></svg>