<svg xmlns="http://www.w3.org/2000/svg" xmlns:xlink="http://www.w3.org/1999/xlink" width="63.231" height="63.231" viewBox="0 0 63.231 63.231">
  <defs>
    <filter id="Rect치ngulo_148030" x="0" y="0" width="63.231" height="63.231" filterUnits="userSpaceOnUse">
      <feOffset dy="3" input="SourceAlpha"/>
      <feGaussianBlur stdDeviation="3" result="blur"/>
      <feFlood flood-opacity="0.161"/>
      <feComposite operator="in" in2="blur"/>
      <feComposite in="SourceGraphic"/>
    </filter>
  </defs>
  <g id="Grupo_162769" data-name="Grupo 162769" transform="translate(9 6)">
    <g transform="matrix(1, 0, 0, 1, -9, -6)" filter="url(#Rect치ngulo_148030)">
      <rect id="Rect치ngulo_148030-2" data-name="Rect치ngulo 148030" width="45.231" height="45.231" rx="7" transform="translate(9 6)" fill="#fff"/>
    </g>
    <path id="Trazado_83976" data-name="Trazado 83976" d="M25.921,6.061l-2.48.016h-.292L19.165,0,8.513,7.081l.875,1.23A13.192,13.192,0,0,0,3.442,19.216L0,19.237,9.1,32.851h2.644c.423.626.638,1,1.056,1.626.727,1.1,1.289,1.9,2.049,2.974l1.034,1.467,10.468-6.99-.922-1.391A14.314,14.314,0,0,0,31.3,19.7l3.75.062Z" transform="translate(4.635 3.294)" fill="#fff"/>
    <path id="Trazado_83977" data-name="Trazado 83977" d="M45.655,80.779l-.343-.445c-2.936,1.916-6.464,1.806-9.976,1.81-.447,0-.895,0-1.339.005q.465.717.927,1.438c.667,1.039,1.354,2.109,2.049,3.134Z" transform="translate(-16.23 -46.009)" fill="#00569e"/>
    <path id="Trazado_83978" data-name="Trazado 83978" d="M32.557,18.648H23.713a12.767,12.767,0,0,0-5.193,1.4,12.147,12.147,0,0,0-6.608,10.52H24.277a1.241,1.241,0,0,1,.659-.613L25,29.93H40.13Z" transform="translate(-2.676 -8.151)" fill="#00569e"/>
    <path id="Trazado_83979" data-name="Trazado 83979" d="M33.536,51H21.372a1.145,1.145,0,0,1-.613.661l-.051.018H5.481L13.1,62.989l8.643-.032A12.386,12.386,0,0,0,33.536,51" transform="translate(1.271 -28.006)" fill="#2d9539"/>
    <path id="Trazado_83980" data-name="Trazado 83980" d="M34.973,4.178,26.308,9.954l.358.583.639-.382c2.66-1.63,6.036-1.575,9.3-1.522.456.006.909.014,1.359.017l-.371-.566c-.852-1.3-1.729-2.633-2.622-3.906" transform="translate(-11.511 0.73)" fill="#2d9539"/>
  </g>
</svg>
