<svg xmlns="http://www.w3.org/2000/svg" xmlns:xlink="http://www.w3.org/1999/xlink" width="60" height="49.409" viewBox="0 0 60 49.409"><defs><clipPath id="a"><rect width="60" height="49.409" fill="#fff"/></clipPath></defs><g transform="translate(0 0)"><g transform="translate(0 0)" clip-path="url(#a)"><path d="M7.182,16.27a6.3,6.3,0,1,1,6.3-6.306,6.31,6.31,0,0,1-6.3,6.306m0-9.964A3.66,3.66,0,1,0,10.84,9.964,3.663,3.663,0,0,0,7.182,6.306" transform="translate(2.354 9.84)" fill="#fff"/><path d="M19.946,17.746H0L.022,16.4c.155-9.046,5-9.8,9.953-9.8s9.794.756,9.949,9.8ZM2.729,15.1H17.217c-.446-5.439-3.09-5.856-7.242-5.856s-6.8.417-7.246,5.856" transform="translate(0 17.742)" fill="#fff"/><path d="M18.042,16.27a6.3,6.3,0,1,1,6.3-6.306,6.31,6.31,0,0,1-6.3,6.306m0-9.964A3.66,3.66,0,1,0,21.7,9.964a3.663,3.663,0,0,0-3.658-3.658" transform="translate(31.541 9.84)" fill="#fff"/><path d="M30.814,17.746H10.861l.022-1.342c.155-9.046,5-9.8,9.953-9.8s9.794.756,9.953,9.8ZM13.59,15.1H28.082c-.45-5.439-3.094-5.856-7.246-5.856s-6.8.417-7.246,5.856" transform="translate(29.189 17.742)" fill="#fff"/><path d="M12.517,12.608A6.3,6.3,0,1,1,18.823,6.3a6.309,6.309,0,0,1-6.306,6.306m0-9.964A3.66,3.66,0,1,0,16.179,6.3a3.662,3.662,0,0,0-3.662-3.658" transform="translate(16.703 -0.001)" fill="#fff"/><path d="M25.285,14.084H5.339l.022-1.342c.155-9.046,5-9.8,9.949-9.8s9.8.756,9.953,9.8ZM8.068,11.44H22.556C22.11,6,19.462,5.584,15.31,5.584S8.514,6,8.068,11.44" transform="translate(14.349 7.9)" fill="#fff"/><path d="M12.517,20.045a6.3,6.3,0,1,1,6.306-6.306,6.309,6.309,0,0,1-6.306,6.306m0-9.964a3.66,3.66,0,1,0,3.662,3.658,3.662,3.662,0,0,0-3.662-3.658" transform="translate(16.703 19.986)" fill="#fff"/><path d="M25.285,21.522H5.339l.022-1.342c.155-9.046,5-9.8,9.949-9.8s9.8.756,9.953,9.8ZM8.068,18.878H22.556c-.446-5.439-3.094-5.856-7.246-5.856s-6.8.417-7.242,5.856" transform="translate(14.349 27.89)" fill="#fff"/><path d="M10.983,15.972a1.33,1.33,0,0,1-.457-.081,25.752,25.752,0,0,1-7-3.842A1.325,1.325,0,0,1,5.168,9.965a22.994,22.994,0,0,0,6.273,3.448,1.32,1.32,0,0,1-.457,2.559" transform="translate(8.137 26.024)" fill="#fff"/><path d="M11.7,16.184a1.321,1.321,0,0,1-.428-2.57,23.058,23.058,0,0,0,6.833-3.651,1.325,1.325,0,0,1,1.637,2.083A25.794,25.794,0,0,1,12.13,16.11a1.229,1.229,0,0,1-.428.074" transform="translate(27.898 26.018)" fill="#fff"/><path d="M19.5,8.334a1.322,1.322,0,0,1-.738-.225,24.934,24.934,0,0,0-8.068-3.474,1.323,1.323,0,0,1,.627-2.57,27.582,27.582,0,0,1,8.916,3.85A1.321,1.321,0,0,1,19.5,8.334" transform="translate(26.028 5.441)" fill="#fff"/><path d="M4.7,8.2a1.321,1.321,0,0,1-.738-2.419,27.229,27.229,0,0,1,8.19-3.665,1.323,1.323,0,1,1,.686,2.555,24.636,24.636,0,0,0-7.4,3.3A1.322,1.322,0,0,1,4.7,8.2" transform="translate(9.077 5.578)" fill="#fff"/></g></g></svg>