<svg xmlns="http://www.w3.org/2000/svg" xmlns:xlink="http://www.w3.org/1999/xlink" width="25.518" height="29.989" viewBox="0 0 25.518 29.989"><defs><clipPath id="a"><rect width="25.518" height="29.989" fill="none"/></clipPath></defs><g transform="translate(-858.772 -662.823)"><g transform="translate(858.772 662.823)"><g clip-path="url(#a)"><path d="M6.954,24.916H2.291A2.294,2.294,0,0,1,0,22.625V2.291A2.294,2.294,0,0,1,2.291,0H12.969A2.294,2.294,0,0,1,15.26,2.291V15.069a.641.641,0,1,1-1.283,0V2.291a1.009,1.009,0,0,0-1.008-1.008H2.291A1.009,1.009,0,0,0,1.283,2.291V22.625a1.009,1.009,0,0,0,1.008,1.008H6.954a.641.641,0,1,1,0,1.283" fill="#fff"/><path d="M26.265,13.416H19.5a.641.641,0,1,1,0-1.283h6.763a.641.641,0,1,1,0,1.283" transform="translate(-15.404 -9.909)" fill="#fff"/><path d="M23.812,44.345a3.72,3.72,0,1,1,3.647-2.973.641.641,0,1,1-1.257-.258,2.436,2.436,0,1,0-1.763,1.867.641.641,0,0,1,.329,1.24,3.734,3.734,0,0,1-.957.124" transform="translate(-16.407 -30.137)" fill="#fff"/><path d="M37.474,69.811a.643.643,0,0,1-.2-.031l-1.108-.358a6.379,6.379,0,0,1-2.578-1.593L29.139,63.3a1.955,1.955,0,0,1,1.1-3.3,2.024,2.024,0,0,1,1.807-2.334,1.957,1.957,0,0,1,1.251-2.036l-3.371-3.45a2.012,2.012,0,0,1,2.845-2.845L38,54.443l.153-.124a3,3,0,0,1,4.032.214l2.88,2.9a4,4,0,0,1,1.068,1.955c.135.608.318,1.452.425,2.017a1.455,1.455,0,0,0,.385.743l1.741,1.8a.641.641,0,1,1-.922.892l-1.742-1.8a2.736,2.736,0,0,1-.722-1.4c-.1-.548-.285-1.379-.418-1.979a2.717,2.717,0,0,0-.726-1.329l-2.881-2.9a1.718,1.718,0,0,0-2.312-.123l-.009.008,1.2,1.226a.641.641,0,0,1-.907.907L31.87,50.249a.729.729,0,0,0-1.031,1.031l5.44,5.567a.641.641,0,0,1-.872.939l-1-.84a.668.668,0,0,0-.908.977l.748.765a.642.642,0,0,1-.854.954l-.7-.549a.745.745,0,0,0-.985,1.113l.468.468a.642.642,0,0,1-.794,1l-.5-.312a.669.669,0,0,0-.832,1.037l4.452,4.532A5.089,5.089,0,0,0,36.563,68.2l1.108.358a.642.642,0,0,1-.2,1.252" transform="translate(-23.343 -39.822)" fill="#fff"/></g></g></g></svg>