<svg xmlns="http://www.w3.org/2000/svg" width="30.71" height="34.557" viewBox="0 0 30.71 34.557">
  <g id="Grupo_162557" data-name="Grupo 162557" transform="translate(-476.081 -554.885)">
    <path id="Trazado_84072" data-name="Trazado 84072" d="M8.013,2.181V1.195A.832.832,0,0,1,8.842.359H13.67a.832.832,0,0,1,.829.836v.987" transform="translate(481.156 555.276)" fill="none" stroke="#fff" stroke-linecap="round" stroke-width="1.5"/>
    <path id="Trazado_84073" data-name="Trazado 84073" d="M4.977,4.816l.057,5.736a1.589,1.589,0,0,0,1.584,1.595H19.544a1.589,1.589,0,0,0,1.584-1.595V4.816" transform="translate(479.36 557.913)" fill="none" stroke="#fff" stroke-linecap="round" stroke-width="1.5"/>
    <path id="Trazado_84074" data-name="Trazado 84074" d="M2.751,16.589l3.412-3.5a2.8,2.8,0,0,1,2-.844H19.057a1.705,1.705,0,0,1,0,3.411H13.284" transform="translate(478.043 562.309)" fill="none" stroke="#fff" stroke-linecap="round" stroke-width="1.5"/>
    <path id="Trazado_84075" data-name="Trazado 84075" d="M6.573,23.723l3.032-2.984a2.834,2.834,0,0,1,1.988-.815h5.6a2.84,2.84,0,0,0,2-.829l5.878-5.878a1.74,1.74,0,1,0-2.461-2.461l-4.024,4.013" transform="translate(480.304 561.126)" fill="none" stroke="#fff" stroke-linecap="round" stroke-width="1.5"/>
    <path id="Trazado_84076" data-name="Trazado 84076" d="M10.821,24.682h0a1.82,1.82,0,0,1-2.575,0L.892,17.329a1.821,1.821,0,0,1,2.575-2.575l7.353,7.353A1.82,1.82,0,0,1,10.821,24.682Z" transform="translate(476.628 563.476)" fill="none" stroke="#fff" stroke-linecap="round" stroke-width="1.5"/>
    <path id="Trazado_84077" data-name="Trazado 84077" d="M17.069,9.741H9.21A4.379,4.379,0,0,1,4.831,5.362V3.685A2.18,2.18,0,0,1,7.012,1.5H19.267a2.18,2.18,0,0,1,2.181,2.181V5.362A4.379,4.379,0,0,1,17.069,9.741Z" transform="translate(479.274 555.953)" fill="none" stroke="#fff" stroke-linecap="round" stroke-width="1.5"/>
  </g>
</svg>
