<svg xmlns="http://www.w3.org/2000/svg" xmlns:xlink="http://www.w3.org/1999/xlink" width="26.039" height="40.686" viewBox="0 0 26.039 40.686"><defs><clipPath id="a"><rect width="26.039" height="40.686" fill="none"/></clipPath></defs><g transform="translate(0 0)" clip-path="url(#a)"><path d="M12.56,12.247H1.513a.818.818,0,1,1,0-1.636H12.56a.818.818,0,1,1,0,1.636" transform="translate(0.912 13.942)" fill="#02a34d"/><path d="M18.09,21.312,13.233,19.32,8.006,21.31l-1.613-4.6L1.025,18.1a.812.812,0,0,1-1-.588.822.822,0,0,1,.588-1l6.828-1.77,1.553,4.433,4.262-1.62,3.952,1.617,1.853-4.433,6.377,1.777A.818.818,0,1,1,25,18.1l-4.984-1.386Z" transform="translate(0 19.374)" fill="#02a34d"/><path d="M12.988,32.925A12.975,12.975,0,0,1,.025,19.965V10.031A10.04,10.04,0,0,1,10.056,0h5.859A10.042,10.042,0,0,1,25.948,10.031v9.934a12.975,12.975,0,0,1-12.96,12.96m-2.932-31.4a8.518,8.518,0,0,0-8.508,8.508v9.934a11.439,11.439,0,0,0,22.878,0V10.031a8.518,8.518,0,0,0-8.511-8.508Z" transform="translate(0.033 0)" fill="#0167ab"/><path d="M17.246,9.42a9.41,9.41,0,0,1-6.169-1.971c-4.306-3.6-9.64-.1-9.867.049A.762.762,0,1,1,.361,6.231c.06-.042,6.5-4.283,11.692.049,4.385,3.663,12.734-.072,12.817-.109A.762.762,0,1,1,25.5,7.557,22.378,22.378,0,0,1,17.246,9.42" transform="translate(0.032 5.693)" fill="#0167ab"/></g></svg>