<svg xmlns="http://www.w3.org/2000/svg" xmlns:xlink="http://www.w3.org/1999/xlink" width="209.848" height="204.129" viewBox="0 0 209.848 204.129">
  <defs>
    <clipPath id="clip-path">
      <rect id="Rectangle_70" data-name="Rectangle 70" width="114.18" height="126.781" fill="none"/>
    </clipPath>
  </defs>
  <g id="Logo_BSC_blanco_Vertical" data-name="Logo BSC blanco Vertical" transform="translate(88.754 6.999)">
    <g id="Group_1740" data-name="Group 1740" transform="translate(-88.754 0.001)">
      <g id="Group_1741" data-name="Group 1741" transform="translate(45.107 124.326)">
        <path id="Path_3301" data-name="Path 3301" d="M92.66,14.179a63.124,63.124,0,0,1,9.5-.678c4.493,0,7.246.431,9.658,1.83a7.058,7.058,0,0,1,3.857,6.418c0,2.848-1.7,5.5-5.362,6.9v.092c3.718.972,6.471,3.815,6.471,7.965a8.693,8.693,0,0,1-3.376,6.945c-2.36,1.883-6.32,2.945-12.789,2.945a57.02,57.02,0,0,1-7.957-.487Zm7.284,12.442h2.415c3.9,0,5.928-1.594,5.928-4,0-2.461-1.876-3.758-5.207-3.758a19.8,19.8,0,0,0-3.135.182Zm0,14.426a23.594,23.594,0,0,0,2.839.094c3.333,0,6.289-1.306,6.289-4.722,0-3.239-2.956-4.541-6.614-4.541H99.944Z" transform="translate(-92.66 -13.501)" fill="#00569e"/>
        <path id="Path_3302" data-name="Path 3302" d="M133.595,38.614a30.9,30.9,0,0,0,.38,5.687h-6.6l-.441-2.36h-.151a8.451,8.451,0,0,1-6.746,2.891,7.233,7.233,0,0,1-7.623-7.233c0-6.132,5.5-9.021,13.845-9.021v-.29c0-1.306-.679-3.085-4.288-3.085a13.278,13.278,0,0,0-6.511,1.779L114.1,22.26a19.4,19.4,0,0,1,9.162-2.123c7.869,0,10.329,4.623,10.329,10.227ZM126.5,33.162c-3.869,0-6.843.917-6.843,3.713a2.622,2.622,0,0,0,2.877,2.8,4.072,4.072,0,0,0,3.829-2.7,6.023,6.023,0,0,0,.137-1.254Z" transform="translate(-86.852 -11.55)" fill="#00569e"/>
        <path id="Path_3303" data-name="Path 3303" d="M131.839,28.23c0-2.94-.091-5.408-.191-7.529h6.367l.342,3.287h.144a8.485,8.485,0,0,1,7.28-3.817c4.827,0,8.449,3.235,8.449,10.183V44.29h-7.342V31.218c0-3.037-1.048-5.111-3.706-5.111a4.035,4.035,0,0,0-3.766,2.748,5.11,5.11,0,0,0-.243,1.835v13.6h-7.332Z" transform="translate(-81.198 -11.54)" fill="#00569e"/>
        <path id="Path_3304" data-name="Path 3304" d="M170.156,43.668a16.828,16.828,0,0,1-6.559,1.114c-7.62,0-12.485-4.686-12.485-12.068,0-6.9,4.718-12.543,13.487-12.543a16.839,16.839,0,0,1,5.606.927l-1.156,5.444a10.01,10.01,0,0,0-4.108-.726c-3.854,0-6.365,2.752-6.32,6.619,0,4.283,2.9,6.6,6.471,6.6a10.4,10.4,0,0,0,4.191-.765Z" transform="translate(-75.475 -11.54)" fill="#00569e"/>
        <path id="Path_3305" data-name="Path 3305" d="M190.662,32.245c0,8.63-6.115,12.587-12.441,12.587-6.9,0-12.21-4.535-12.21-12.153,0-7.664,5.012-12.542,12.641-12.542,7.187,0,12.01,4.972,12.01,12.108m-17.082.242c0,4.052,1.691,7.09,4.829,7.09,2.9,0,4.679-2.848,4.679-7.135,0-3.473-1.35-7.048-4.679-7.048-3.474,0-4.829,3.622-4.829,7.094" transform="translate(-71.094 -11.55)" fill="#00569e"/>
      </g>
      <g id="Group_1742" data-name="Group 1742" transform="translate(0 163.595)">
        <path id="Path_3306" data-name="Path 3306" d="M93.186,69.279a18.675,18.675,0,0,0,8.159,2.024c3.371,0,5.158-1.4,5.158-3.521,0-2.019-1.542-3.187-5.452-4.535-5.4-1.927-8.974-4.917-8.974-9.648,0-5.55,4.682-9.749,12.3-9.749a18.915,18.915,0,0,1,8.3,1.647l-1.634,5.881a15.253,15.253,0,0,0-6.761-1.545c-3.185,0-4.73,1.5-4.73,3.139,0,2.076,1.795,2.99,6.034,4.581,5.745,2.118,8.388,5.115,8.388,9.7,0,5.454-4.147,10.084-13.068,10.084a21.209,21.209,0,0,1-9.212-2.026Z" transform="translate(-91.691 -43.848)" fill="#00569e"/>
        <path id="Path_3307" data-name="Path 3307" d="M131.388,69.148a30.068,30.068,0,0,0,.392,5.7h-6.607l-.443-2.369h-.14a8.489,8.489,0,0,1-6.753,2.9,7.228,7.228,0,0,1-7.62-7.236c0-6.131,5.5-9.023,13.841-9.023v-.287c0-1.3-.675-3.087-4.287-3.087a13.264,13.264,0,0,0-6.52,1.787L111.9,52.793a19.489,19.489,0,0,1,9.163-2.116c7.857,0,10.324,4.63,10.324,10.22Zm-7.094-5.45c-3.863,0-6.843.919-6.843,3.715a2.637,2.637,0,0,0,2.895,2.8,4.036,4.036,0,0,0,3.8-2.7,5.008,5.008,0,0,0,.148-1.251Z" transform="translate(-86.244 -41.84)" fill="#00569e"/>
        <path id="Path_3308" data-name="Path 3308" d="M129.644,58.763c0-2.94-.094-5.4-.2-7.514h6.367l.342,3.273h.145a8.474,8.474,0,0,1,7.288-3.812c4.815,0,8.438,3.236,8.438,10.177V74.833h-7.332V61.759c0-3.041-1.068-5.111-3.722-5.111A4.031,4.031,0,0,0,137.21,59.4a5.34,5.34,0,0,0-.239,1.828v13.6h-7.327Z" transform="translate(-80.59 -41.831)" fill="#00569e"/>
        <path id="Path_3309" data-name="Path 3309" d="M158.408,46.2v6.377h5.26v5.4h-5.26v8.54c0,2.836.727,4.145,2.893,4.145a8.81,8.81,0,0,0,2.173-.2l.038,5.551a15.186,15.186,0,0,1-4.718.63,7.865,7.865,0,0,1-5.554-2.028c-1.348-1.4-2.019-3.669-2.019-7V57.974h-3.134v-5.4h3.134V48.185Z" transform="translate(-75.11 -43.157)" fill="#00569e"/>
        <path id="Path_3310" data-name="Path 3310" d="M181.9,69.148a29.977,29.977,0,0,0,.391,5.7h-6.615l-.432-2.369H175.1a8.478,8.478,0,0,1-6.751,2.9,7.225,7.225,0,0,1-7.62-7.236c0-6.131,5.5-9.023,13.838-9.023v-.287c0-1.3-.673-3.087-4.294-3.087a13.224,13.224,0,0,0-6.511,1.787l-1.351-4.735a19.511,19.511,0,0,1,9.163-2.116c7.866,0,10.326,4.63,10.326,10.22Zm-7.1-5.45c-3.852,0-6.848.919-6.848,3.715a2.64,2.64,0,0,0,2.9,2.8,4.054,4.054,0,0,0,3.808-2.7,5.263,5.263,0,0,0,.137-1.251Z" transform="translate(-71.395 -41.84)" fill="#00569e"/>
        <path id="Path_3311" data-name="Path 3311" d="M210.492,75.978a21.4,21.4,0,0,1-8.3,1.4c-11.229,0-17.028-7.045-17.028-16.3,0-11.1,7.914-17.234,17.752-17.234a18.435,18.435,0,0,1,8.015,1.448l-1.545,5.8a15.443,15.443,0,0,0-6.179-1.206c-5.789,0-10.322,3.516-10.322,10.76,0,6.5,3.863,10.611,10.379,10.611a17.711,17.711,0,0,0,6.172-1.062Z" transform="translate(-64.208 -43.848)" fill="#00569e"/>
        <path id="Path_3312" data-name="Path 3312" d="M206.716,59.018c0-3.473-.045-5.736-.182-7.758H212.8l.289,4.334h.194a6.87,6.87,0,0,1,6.365-4.919,7.326,7.326,0,0,1,1.545.14v6.909a10.407,10.407,0,0,0-1.979-.2c-2.7,0-4.533,1.445-5.012,3.714a7.959,7.959,0,0,0-.151,1.637V74.844h-7.332Z" transform="translate(-57.927 -41.841)" fill="#00569e"/>
        <path id="Path_3313" data-name="Path 3313" d="M241.5,67.139c0,3.082.1,5.588.192,7.57h-6.367l-.336-3.331h-.145a8.4,8.4,0,0,1-7.378,3.863c-4.827,0-8.3-2.99-8.3-10.274V51.126H226.5V63.807c0,3.427,1.106,5.5,3.706,5.5a3.892,3.892,0,0,0,3.67-2.558,3.934,3.934,0,0,0,.294-1.588V51.126H241.5Z" transform="translate(-54.213 -41.708)" fill="#00569e"/>
        <path id="Path_3314" data-name="Path 3314" d="M238.021,70.515l7.43-9.312c1.351-1.548,2.411-2.751,3.711-4.152v-.094H238.841V51.126h19.292v4.436l-7.083,8.921c-1.306,1.493-2.513,2.99-3.864,4.3v.094h11.33v5.839h-20.5Z" transform="translate(-48.669 -41.708)" fill="#00569e"/>
      </g>
      <g id="Isotipo" transform="translate(47.834 -7)">
        <g id="Group_113" data-name="Group 113" clip-path="url(#clip-path)">
          <path id="Path_14" data-name="Path 14" d="M84.446,19.744l-8.079.052-.952,0L62.438,0l-34.7,23.067,2.851,4.008C19.1,35.34,11.891,46.028,11.216,62.6L0,62.668l29.664,44.35h8.613c1.377,2.039,2.077,3.241,3.44,5.3,2.368,3.578,4.2,6.176,6.676,9.689l3.367,4.778,34.1-22.77-3-4.532c11.529-7.9,18.216-21.63,19.1-35.3l12.218.2Z" fill="#fff"/>
          <path id="Path_15" data-name="Path 15" d="M129.528,217.778l-1.117-1.45c-9.564,6.242-21.058,5.883-32.5,5.9-1.457,0-2.915,0-4.364.017q1.515,2.337,3.02,4.684c2.173,3.384,4.412,6.871,6.673,10.209Z" transform="translate(-48.77 -115.241)" fill="#00569e"/>
          <path id="Path_16" data-name="Path 16" d="M99.333,50.218H70.518A41.567,41.567,0,0,0,53.6,54.785C40.356,61.908,32.174,74.976,32.077,89.058H72.359a4.04,4.04,0,0,1,2.146-2l.2-.089H124Z" transform="translate(-17.088 -26.752)" fill="#00569e"/>
          <path id="Path_17" data-name="Path 17" d="M106.155,137.336H66.53a3.729,3.729,0,0,1-2,2.153l-.167.059H14.762l24.819,36.845,28.155-.105a40.349,40.349,0,0,0,38.419-38.952" transform="translate(-7.864 -73.161)" fill="#2d9539"/>
          <path id="Path_18" data-name="Path 18" d="M99.071,11.25,70.844,30.065l1.165,1.9,2.083-1.244c8.666-5.308,19.663-5.13,30.3-4.956,1.486.021,2.961.046,4.428.056l-1.209-1.843c-2.774-4.221-5.633-8.578-8.541-12.726" transform="translate(-37.739 -5.993)" fill="#2d9539"/>
        </g>
      </g>
    </g>
  </g>
</svg>
