<svg xmlns="http://www.w3.org/2000/svg" width="40.892" height="32.66" viewBox="0 0 40.892 32.66">
  <g id="Layer_1-2" transform="translate(1 1)">
    <path id="Trazado_83332" data-name="Trazado 83332" d="M17.6,4.145V3.655A1.538,1.538,0,0,0,16.066,2.12h-.979a1.538,1.538,0,0,0-1.535,1.535v.467A1.569,1.569,0,0,0,14.4,5.5l2.336,1.179a1.543,1.543,0,0,1,.845,1.379h0A1.538,1.538,0,0,1,16.044,9.6h-.979A1.538,1.538,0,0,1,13.53,8.061v-.4" transform="translate(15.772 1.796)" fill="none" stroke="#02a34d" stroke-linecap="round" stroke-miterlimit="10" stroke-width="2"/>
    <line id="Línea_227" data-name="Línea 227" y2="1.201" transform="translate(31.416 11.347)" fill="none" stroke="#02a34d" stroke-linecap="round" stroke-miterlimit="10" stroke-width="2"/>
    <line id="Línea_228" data-name="Línea 228" y2="0.979" transform="translate(31.416 2.714)" fill="none" stroke="#02a34d" stroke-linecap="round" stroke-miterlimit="10" stroke-width="2"/>
    <path id="Trazado_83333" data-name="Trazado 83333" d="M31.487,14.121v7.7A3.38,3.38,0,0,1,28.1,25.2H3.742A3.38,3.38,0,0,1,.36,21.819V8.492A3.38,3.38,0,0,1,3.742,5.11H19.828" transform="translate(-0.36 5.458)" fill="none" stroke="#0167ab" stroke-linecap="round" stroke-miterlimit="10" stroke-width="2"/>
    <line id="Línea_229" data-name="Línea 229" x2="4.138" transform="translate(4.65 23.34)" fill="none" stroke="#0167ab" stroke-linecap="round" stroke-miterlimit="10" stroke-width="2"/>
    <line id="Línea_230" data-name="Línea 230" x2="4.138" transform="translate(13.483 23.34)" fill="none" stroke="#0167ab" stroke-linecap="round" stroke-miterlimit="10" stroke-width="2"/>
    <line id="Línea_231" data-name="Línea 231" x2="4.138" transform="translate(22.316 23.34)" fill="none" stroke="#0167ab" stroke-linecap="round" stroke-miterlimit="10" stroke-width="2"/>
    <ellipse id="Elipse_2" data-name="Elipse 2" cx="7.765" cy="7.765" rx="7.765" ry="7.765" transform="translate(23.362 0)" fill="none" stroke="#02a34d" stroke-linecap="round" stroke-miterlimit="10" stroke-width="2"/>
  </g>
</svg>
