<svg width="1195" height="936" viewBox="0 0 1195 936" fill="none" xmlns="http://www.w3.org/2000/svg">
<!-- <path d="M0 48C0 31.1984 0 22.7976 3.2698 16.3803C6.14601 10.7354 10.7354 6.14601 16.3803 3.2698C22.7976 0 31.1984 0 48 0H1147C1163.8 0 1172.2 0 1178.62 3.2698C1184.26 6.14601 1188.85 10.7354 1191.73 16.3803C1195 22.7976 1195 31.1984 1195 48V888C1195 904.802 1195 913.202 1191.73 919.62C1188.85 925.265 1184.26 929.854 1178.62 932.73C1172.2 936 1163.8 936 1147 936H48C31.1984 936 22.7976 936 16.3803 932.73C10.7354 929.854 6.14601 925.265 3.2698 919.62C0 913.202 0 904.802 0 888V48Z" fill="#D9D9D9"/> -->
<path d="M213 331.5H1016.5" stroke="black"/>
<rect x="213.5" y="224.5" width="804" height="444" rx="19.5" fill="white" stroke="black"/>
<path d="M218.5 264.5H1012.5" stroke="black"/>
<path d="M896 225.5V666.5M343.5 225.5V666.5M482 225.5V666.5M624.5 225.5V666.5M769 225.5V666.5" stroke="black"/>
<rect x="234" y="239" width="96" height="13" fill="#D9D9D9"/>
<rect x="359" y="236" width="109" height="16" fill="#D9D9D9"/>
<rect x="497" y="236" width="109" height="16" fill="#D9D9D9"/>
<rect x="645" y="236" width="109" height="16" fill="#D9D9D9"/>
<rect x="793" y="236" width="85" height="16" fill="#D9D9D9"/>
<rect x="918" y="236" width="85" height="16" fill="#D9D9D9"/>
<rect x="234" y="295" width="74" height="7" fill="#D9D9D9"/>
<rect x="245" y="312" width="74" height="7" fill="#D9D9D9"/>
<rect x="371" y="295" width="74" height="7" fill="#D9D9D9"/>
<rect x="382" y="312" width="74" height="7" fill="#D9D9D9"/>
<rect x="509" y="295" width="74" height="7" fill="#D9D9D9"/>
<rect x="520" y="312" width="74" height="7" fill="#D9D9D9"/>
<rect x="647" y="295" width="74" height="7" fill="#D9D9D9"/>
<rect x="658" y="312" width="74" height="7" fill="#D9D9D9"/>
<rect x="793" y="295" width="74" height="7" fill="#D9D9D9"/>
<rect x="804" y="312" width="74" height="7" fill="#D9D9D9"/>
<rect x="918" y="295" width="74" height="7" fill="#D9D9D9"/>
<rect x="929" y="312" width="74" height="7" fill="#D9D9D9"/>
<rect x="231" y="350" width="74" height="7" fill="#D9D9D9"/>
<rect x="242" y="367" width="74" height="7" fill="#D9D9D9"/>
<rect x="368" y="350" width="74" height="7" fill="#D9D9D9"/>
<rect x="379" y="367" width="74" height="7" fill="#D9D9D9"/>
<rect x="506" y="350" width="74" height="7" fill="#D9D9D9"/>
<rect x="517" y="367" width="74" height="7" fill="#D9D9D9"/>
<rect x="644" y="350" width="74" height="7" fill="#D9D9D9"/>
<rect x="655" y="367" width="74" height="7" fill="#D9D9D9"/>
<rect x="790" y="350" width="74" height="7" fill="#D9D9D9"/>
<rect x="801" y="367" width="74" height="7" fill="#D9D9D9"/>
<rect x="915" y="350" width="74" height="7" fill="#D9D9D9"/>
<rect x="926" y="367" width="74" height="7" fill="#D9D9D9"/>
<rect x="235" y="405" width="74" height="7" fill="#D9D9D9"/>
<rect x="246" y="422" width="74" height="7" fill="#D9D9D9"/>
<rect x="372" y="405" width="74" height="7" fill="#D9D9D9"/>
<rect x="383" y="422" width="74" height="7" fill="#D9D9D9"/>
<rect x="510" y="405" width="74" height="7" fill="#D9D9D9"/>
<rect x="521" y="422" width="74" height="7" fill="#D9D9D9"/>
<rect x="648" y="405" width="74" height="7" fill="#D9D9D9"/>
<rect x="659" y="422" width="74" height="7" fill="#D9D9D9"/>
<rect x="794" y="405" width="74" height="7" fill="#D9D9D9"/>
<rect x="805" y="422" width="74" height="7" fill="#D9D9D9"/>
<rect x="919" y="405" width="74" height="7" fill="#D9D9D9"/>
<rect x="930" y="422" width="74" height="7" fill="#D9D9D9"/>
<rect x="235" y="456" width="74" height="7" fill="#D9D9D9"/>
<rect x="246" y="473" width="74" height="7" fill="#D9D9D9"/>
<rect x="372" y="456" width="74" height="7" fill="#D9D9D9"/>
<rect x="383" y="473" width="74" height="7" fill="#D9D9D9"/>
<rect x="510" y="456" width="74" height="7" fill="#D9D9D9"/>
<rect x="521" y="473" width="74" height="7" fill="#D9D9D9"/>
<rect x="648" y="456" width="74" height="7" fill="#D9D9D9"/>
<rect x="659" y="473" width="74" height="7" fill="#D9D9D9"/>
<rect x="794" y="456" width="74" height="7" fill="#D9D9D9"/>
<rect x="805" y="473" width="74" height="7" fill="#D9D9D9"/>
<rect x="919" y="456" width="74" height="7" fill="#D9D9D9"/>
<rect x="930" y="473" width="74" height="7" fill="#D9D9D9"/>
<rect x="234" y="511" width="74" height="7" fill="#D9D9D9"/>
<rect x="245" y="528" width="74" height="7" fill="#D9D9D9"/>
<rect x="371" y="511" width="74" height="7" fill="#D9D9D9"/>
<rect x="382" y="528" width="74" height="7" fill="#D9D9D9"/>
<rect x="509" y="511" width="74" height="7" fill="#D9D9D9"/>
<rect x="520" y="528" width="74" height="7" fill="#D9D9D9"/>
<rect x="647" y="511" width="74" height="7" fill="#D9D9D9"/>
<rect x="658" y="528" width="74" height="7" fill="#D9D9D9"/>
<rect x="793" y="511" width="74" height="7" fill="#D9D9D9"/>
<rect x="804" y="528" width="74" height="7" fill="#D9D9D9"/>
<rect x="918" y="511" width="74" height="7" fill="#D9D9D9"/>
<rect x="929" y="528" width="74" height="7" fill="#D9D9D9"/>
<rect x="231" y="562" width="74" height="7" fill="#D9D9D9"/>
<rect x="242" y="579" width="74" height="7" fill="#D9D9D9"/>
<rect x="368" y="562" width="74" height="7" fill="#D9D9D9"/>
<rect x="379" y="579" width="74" height="7" fill="#D9D9D9"/>
<rect x="506" y="562" width="74" height="7" fill="#D9D9D9"/>
<rect x="517" y="579" width="74" height="7" fill="#D9D9D9"/>
<rect x="644" y="562" width="74" height="7" fill="#D9D9D9"/>
<rect x="655" y="579" width="74" height="7" fill="#D9D9D9"/>
<rect x="790" y="562" width="74" height="7" fill="#D9D9D9"/>
<rect x="801" y="579" width="74" height="7" fill="#D9D9D9"/>
<rect x="915" y="562" width="74" height="7" fill="#D9D9D9"/>
<rect x="926" y="579" width="74" height="7" fill="#D9D9D9"/>
<rect x="231" y="613" width="74" height="7" fill="#D9D9D9"/>
<rect x="242" y="630" width="74" height="7" fill="#D9D9D9"/>
<rect x="368" y="613" width="74" height="7" fill="#D9D9D9"/>
<rect x="379" y="630" width="74" height="7" fill="#D9D9D9"/>
<rect x="506" y="613" width="74" height="7" fill="#D9D9D9"/>
<rect x="517" y="630" width="74" height="7" fill="#D9D9D9"/>
<rect x="644" y="613" width="74" height="7" fill="#D9D9D9"/>
<rect x="655" y="630" width="74" height="7" fill="#D9D9D9"/>
<rect x="790" y="613" width="74" height="7" fill="#D9D9D9"/>
<rect x="801" y="630" width="74" height="7" fill="#D9D9D9"/>
<rect x="915" y="613" width="74" height="7" fill="#D9D9D9"/>
<rect x="926" y="630" width="74" height="7" fill="#D9D9D9"/>
</svg>
