<svg width="250" height="250" viewBox="0 0 640 200" xmlns="http://www.w3.org/2000/svg">
  <!-- Background -->
  <rect width="100%" height="100%" fill="#f2f2f2"></rect>

  <!-- Thumbnail 1 -->
  <g>
    <rect x="40" y="30" width="100" height="120" fill="#cccccc" rx="8"></rect>
    <polygon points="50,130 75,90 100,115 115,100 130,130" fill="#aaaaaa"></polygon>
    <circle cx="65" cy="50" r="8" fill="#bbbbbb"></circle>
  </g>

  <!-- Thumbnail 2 -->
  <g>
    <rect x="180" y="30" width="100" height="120" fill="#cccccc" rx="8"></rect>
    <polygon points="190,130 215,90 240,115 255,100 270,130" fill="#aaaaaa"></polygon>
    <circle cx="205" cy="50" r="8" fill="#bbbbbb"></circle>
  </g>

  <!-- Thumbnail 3 -->
  <g>
    <rect x="320" y="30" width="100" height="120" fill="#cccccc" rx="8"></rect>
    <polygon points="330,130 355,90 380,115 395,100 410,130" fill="#aaaaaa"></polygon>
    <circle cx="345" cy="50" r="8" fill="#bbbbbb"></circle>
  </g>

  <!-- Thumbnail 4 -->
  <g>
    <rect x="460" y="30" width="100" height="120" fill="#cccccc" rx="8"></rect>
    <polygon points="470,130 495,90 520,115 535,100 550,130" fill="#aaaaaa"></polygon>
    <circle cx="485" cy="50" r="8" fill="#bbbbbb"></circle>
  </g>
</svg>
