<svg width="663" height="183" viewBox="0 0 663 183" fill="none" xmlns="http://www.w3.org/2000/svg">
	<g opacity="0.8">
		<rect x="239" y="1" width="179" height="180" fill="white" />
		<rect width="179" height="180" fill="white" />
		<circle cx="282" cy="42" r="26" fill="#D9D9D9" />
		<path d="M70 44C70 58.3594 58.3594 70 44 70C29.6406 70 18 58.3594 18 44C18 29.6406 29.6406 18 44 18C58.3594 18 70 29.6406 70 44Z" fill="#D9D9D9" />
		<rect x="256" y="83" width="123" height="5" fill="#8C8C8C" />
		<rect x="256" y="111" width="123" height="5" fill="#8C8C8C" />
		<rect x="256" y="97" width="144" height="5" fill="#8C8C8C" />
		<rect x="18" y="86" width="123" height="5" fill="#8C8C8C" />
		<rect x="18" y="114" width="123" height="5" fill="#8C8C8C" />
		<rect x="18" y="100" width="144" height="5" fill="#8C8C8C" />
		<rect x="484" y="3" width="179" height="180" fill="white" />
		<circle cx="527" cy="44" r="26" fill="#D9D9D9" />
		<rect x="501" y="85" width="123" height="5" fill="#8C8C8C" />
		<rect x="501" y="113" width="123" height="5" fill="#8C8C8C" />
		<rect x="501" y="99" width="144" height="5" fill="#8C8C8C" />
	</g>
	<rect x="50" y="136" width="79" height="23" fill="#D9D9D9" />
	<rect x="293" y="136" width="79" height="23" fill="#D9D9D9" />
	<rect x="536" y="136" width="79" height="23" fill="#D9D9D9" />
</svg>
