<svg width="707" height="492" viewBox="0 0 707 492" fill="none" xmlns="http://www.w3.org/2000/svg">
	<g opacity="0.8">
		<rect width="707" height="91" fill="white" />
		<rect x="269" y="25" width="170" height="13" fill="#8C8C8C" />
		<rect x="113" y="53" width="482" height="13" fill="#D9D9D9" />
		<rect x="260" y="143" width="179" height="143" fill="white" />
		<rect x="21" y="142" width="179" height="143" fill="white" />
		<circle cx="303" cy="184" r="26" fill="#D9D9D9" />
		<circle cx="65" cy="186" r="26" fill="#D9D9D9" />
		<rect x="277" y="225" width="123" height="5" fill="#8C8C8C" />
		<rect x="277" y="253" width="123" height="5" fill="#8C8C8C" />
		<rect x="277" y="239" width="144" height="5" fill="#8C8C8C" />
		<rect x="39" y="228" width="123" height="5" fill="#8C8C8C" />
		<rect x="39" y="256" width="123" height="5" fill="#8C8C8C" />
		<rect x="39" y="242" width="144" height="5" fill="#8C8C8C" />
		<rect x="505" y="145" width="179" height="143" fill="white" />
		<circle cx="548" cy="186" r="26" fill="#D9D9D9" />
		<rect x="522" y="227" width="123" height="5" fill="#8C8C8C" />
		<rect x="522" y="255" width="123" height="5" fill="#8C8C8C" />
		<rect x="522" y="241" width="144" height="5" fill="#8C8C8C" />
		<rect x="22" y="349" width="179" height="143" fill="white" />
		<circle cx="65" cy="390" r="26" fill="#D9D9D9" />
		<rect x="39" y="431" width="123" height="5" fill="#8C8C8C" />
		<rect x="39" y="459" width="123" height="5" fill="#8C8C8C" />
		<rect x="39" y="445" width="144" height="5" fill="#8C8C8C" />
	</g>
</svg>
