<svg width="642" height="223" viewBox="0 0 642 223" fill="none" xmlns="http://www.w3.org/2000/svg">
	<rect width="642" height="223" fill="white" />
	<path d="M55 165.5C55 154.73 63.7304 146 74.5 146H186.5C197.27 146 206 154.73 206 165.5V165.5C206 176.27 197.27 185 186.5 185H74.5C63.7304 185 55 176.27 55 165.5V165.5Z" fill="#D9D9D9" />
	<path d="M423 61C423 49.9543 431.954 41 443 41H554C565.046 41 574 49.9543 574 61V165C574 176.046 565.046 185 554 185H443C431.954 185 423 176.046 423 165V61Z" fill="#D9D9D9" />
	<path d="M59 86H230V94H59V86Z" fill="#D9D9D9" />
	<path d="M59 58H206V66H59V58Z" fill="#D9D9D9" />
	<path d="M59 100H185V108H59V100Z" fill="#D9D9D9" />
	<path d="M59 114H169V122H59V114Z" fill="#D9D9D9" />
</svg>
