<svg xmlns="http://www.w3.org/2000/svg" xmlns:xlink="http://www.w3.org/1999/xlink" width="7.97" height="6.77" viewBox="0 0 7.97 6.77"><defs><clipPath id="a"><rect width="7.97" height="6.77" fill="#00a34c"/></clipPath></defs><g clip-path="url(#a)"><path d="M2.871,4.844,4.423,2.929Q5.511,1.587,6.6.246c.255-.312.366-.32.682-.071.163.129.326.258.486.39.253.208.27.356.057.611q-.9,1.079-1.809,2.153l-2.7,3.212c-.242.288-.359.3-.651.058q-1.208-1-2.414-2c-.311-.258-.32-.356-.074-.683.113-.15.227-.3.343-.445.219-.275.35-.291.618-.07q.813.672,1.623,1.347l.114.092" transform="translate(0 0.001)" fill="#00a34c"/></g></svg>