<svg id="gobackward.45" xmlns="http://www.w3.org/2000/svg" xmlns:xlink="http://www.w3.org/1999/xlink" width="39.392" height="46.922" viewBox="0 0 39.392 46.922">
  <defs>
    <clipPath id="clip-path">
      <rect id="Rectangle_7" data-name="Rectangle 7" width="20.135" height="23.403" fill="#2a5fa7"/>
    </clipPath>
  </defs>
  <rect id="Rectangle_6" data-name="Rectangle 6" width="39.392" height="46.922" fill="#2a5fa7" opacity="0"/>
  <path id="Path_10" data-name="Path 10" d="M0,23.469A19.817,19.817,0,0,0,19.688,43.157a19.82,19.82,0,0,0,19.7-19.688A19.835,19.835,0,0,0,23.348,4.128v-2.9c0-1.225-.847-1.558-1.8-.877L15.409,4.642a1.112,1.112,0,0,0,0,1.981l6.124,4.295c.968.7,1.815.348,1.815-.877V7A16.933,16.933,0,1,1,10.162,9.587a1.443,1.443,0,0,0,.469-1.981,1.358,1.358,0,0,0-2.041-.3A19.655,19.655,0,0,0,0,23.469Z" transform="translate(0 0)" fill="#2a5fa7"/>
  <g id="Group_8" data-name="Group 8" transform="translate(9.628 11.759)">
    <g id="Group_7" data-name="Group 7" clip-path="url(#clip-path)">
      <path id="Path_11" data-name="Path 11" d="M17.612,100.339H2.53A2.863,2.863,0,0,1,.14,97.477a66.95,66.95,0,0,1,0-8.63,2.774,2.774,0,0,1,2.439-2.866c4.843.283,10.087-.362,14.883,0,1.7.128,2.438,1.385,2.548,2.964a70.436,70.436,0,0,1,0,8.434,2.91,2.91,0,0,1-2.4,2.96M4.591,91.313a1.815,1.815,0,1,0,.279,3.618,1.817,1.817,0,0,0-.279-3.618m5.3,0a1.828,1.828,0,1,0,1.733,2.781,1.851,1.851,0,0,0-1.733-2.781m5.408,0a1.821,1.821,0,1,0,.481,3.61c2.172-.272,1.9-3.8-.481-3.61" transform="translate(0 -76.936)" fill="#2a5fa7"/>
      <path id="Path_12" data-name="Path 12" d="M35.154,0c4.437.449,6.226,2.944,6.453,7.224.015.287.071.7-.16.889H38.9V6.4a3.677,3.677,0,0,0-2.261-3.355c-2.689-1.013-6.788-.151-6.788,3.355V8.113H27.3c-.231-.19-.175-.6-.16-.889C27.363,3.034,29.188.354,33.594,0Z" transform="translate(-24.303)" fill="#2a5fa7"/>
    </g>
  </g>
</svg>
