<svg xmlns="http://www.w3.org/2000/svg" xmlns:xlink="http://www.w3.org/1999/xlink" width="25.751" height="40.239" viewBox="0 0 25.751 40.239"><defs><clipPath id="a"><rect width="25.751" height="40.239" fill="none"/></clipPath></defs><g clip-path="url(#a)"><path d="M12.429,12.229H1.5a.809.809,0,1,1,0-1.618H12.429a.809.809,0,1,1,0,1.618" transform="translate(0.894 13.671)" fill="#2d9539"/><path d="M17.891,21.242l-4.8-1.973-5.17,1.97L6.326,16.688,1.014,18.065A.81.81,0,1,1,.607,16.5L7.36,14.747,8.9,19.134l4.215-1.6,3.906,1.6,1.833-4.387L25.157,16.5a.809.809,0,1,1-.433,1.558L19.8,16.69Z" transform="translate(0 18.998)" fill="#2d9539"/><path d="M12.844,32.562A12.832,12.832,0,0,1,.024,19.744V9.92A9.931,9.931,0,0,1,9.947,0h5.794a9.931,9.931,0,0,1,9.923,9.92v9.824a12.832,12.832,0,0,1-12.82,12.817M9.947,1.506A8.424,8.424,0,0,0,1.532,9.92v9.824a11.312,11.312,0,0,0,22.623,0V9.92a8.423,8.423,0,0,0-8.414-8.414Z" transform="translate(0.031)" fill="#00569e"/><path d="M17.058,9.364a9.312,9.312,0,0,1-6.1-1.95C6.7,3.855,1.421,7.313,1.2,7.462A.754.754,0,0,1,.357,6.21c.064-.041,6.433-4.236,11.566.048,4.33,3.625,12.591-.073,12.673-.108a.754.754,0,1,1,.627,1.371,22.146,22.146,0,0,1-8.165,1.842" transform="translate(0.032 5.582)" fill="#00569e"/></g></svg>