<svg xmlns="http://www.w3.org/2000/svg" xmlns:xlink="http://www.w3.org/1999/xlink" width="38.033" height="25.688" viewBox="0 0 38.033 25.688"><defs><clipPath id="a"><rect width="38.033" height="25.687" fill="none"/></clipPath></defs><path d="M2.057,4.956H5.943V15.813H2.057ZM.523,17.342H7.477V3.422H.523Z" transform="translate(0.695 4.545)" fill="#00569e"/><path d="M19.836,17.342H12.882V3.422h6.954Zm-5.42-1.532H18.3V4.956H14.416Z" transform="translate(17.11 4.545)" fill="#00569e"/><path d="M11.478,19.7H4.645V1.65h6.833Zm-5.3-1.532H9.944V3.182H6.182Z" transform="translate(6.169 2.192)" fill="#00569e"/><path d="M10.25,1.532h3.986V20.358H10.25ZM8.716,21.887H15.77V0H8.716Z" transform="translate(11.577)" fill="#00569e"/><g transform="translate(0 0)"><g clip-path="url(#a)"><path d="M37.212,11.972H.824a.823.823,0,1,1,0-1.646H37.212a.823.823,0,1,1,0,1.646" transform="translate(0 13.715)" fill="#2d9539"/></g></g></svg>