<svg xmlns="http://www.w3.org/2000/svg" xmlns:xlink="http://www.w3.org/1999/xlink" width="56.949" height="21.268" viewBox="0 0 56.949 21.268"><defs><clipPath id="a"><rect width="56.949" height="21.268" fill="none"/></clipPath></defs><g transform="translate(0 0)"><g transform="translate(0 0)" clip-path="url(#a)"><path d="M44.166,18.017H7.6A7.6,7.6,0,1,1,7.6,2.81H41.312a.79.79,0,0,1,0,1.581H7.6a6.024,6.024,0,1,0,0,12.048H44.166a6.042,6.042,0,0,0,5.9-4.81.789.789,0,1,1,1.546.317,7.626,7.626,0,0,1-7.447,6.071" transform="translate(0 3.25)" fill="#2d9539"/><path d="M7.954,7.69a2.63,2.63,0,1,0-2.629,2.629A2.63,2.63,0,0,0,7.954,7.69" transform="translate(3.116 5.854)" fill="#00569e"/><path d="M11.944,7.69a2.63,2.63,0,1,0-2.629,2.629A2.63,2.63,0,0,0,11.944,7.69" transform="translate(7.732 5.854)" fill="#00569e"/><path d="M15.934,7.69a2.63,2.63,0,1,0-2.629,2.629A2.63,2.63,0,0,0,15.934,7.69" transform="translate(12.347 5.854)" fill="#00569e"/><path d="M19.925,7.69A2.63,2.63,0,1,0,17.3,10.319,2.63,2.63,0,0,0,19.925,7.69" transform="translate(16.964 5.854)" fill="#00569e"/><path d="M29.246,10.31H20.332V2.356h8.914ZM21.365,9.277h6.85V3.387h-6.85Z" transform="translate(23.519 2.725)" fill="#2d9539"/><path d="M29.329,5.812a.514.514,0,0,1-.515-.515V3.2a2.174,2.174,0,1,0-4.348,0V5.3a.517.517,0,0,1-1.033,0V3.2a3.2,3.2,0,1,1,6.41,0V5.3a.514.514,0,0,1-.513.515" transform="translate(27.105 -0.001)" fill="#2d9539"/></g></g></svg>