<svg xmlns="http://www.w3.org/2000/svg" xmlns:xlink="http://www.w3.org/1999/xlink" width="43.701" height="32.9" viewBox="0 0 43.701 32.9"><defs><clipPath id="a"><rect width="43.701" height="32.9" fill="none"/></clipPath></defs><g transform="translate(0 0)"><g transform="translate(0 0)" clip-path="url(#a)"><path d="M14.265,8.689H9.714a3.82,3.82,0,0,1-1.932-.526L6.348,7.326a2.929,2.929,0,0,0-1.489-.4H2.885a.853.853,0,0,1,0-1.706H4.859a4.66,4.66,0,0,1,2.35.638l1.434.837a2.13,2.13,0,0,0,1.071.293h4.551a.853.853,0,0,1,0,1.706" transform="translate(2.803 7.192)" fill="#00569e"/><path d="M27.18,7.63a.85.85,0,0,1-.6-.247L21.6,2.4H7.209a2.039,2.039,0,0,0-.737.14L3.284,3.8a.854.854,0,0,1-.626-1.589L5.846.954A3.729,3.729,0,0,1,7.209.7h15.1l5.476,5.479a.852.852,0,0,1-.6,1.456" transform="translate(2.92 0.958)" fill="#00569e"/><path d="M34.3,17.713H6.817V8.285a.853.853,0,0,1,1.706,0v7.722H32.595V4.655H14.444a.853.853,0,1,1,0-1.706H34.3Z" transform="translate(9.4 4.066)" fill="#2d9539"/><path d="M14.419,11.166h-.695a1.659,1.659,0,0,1-1.658-1.658.569.569,0,1,1,1.137,0,.519.519,0,0,0,.521.519h.695a.519.519,0,0,0,.521-.519.532.532,0,0,0-.288-.466l-1.67-.835a1.662,1.662,0,0,1-.916-1.482V6.4a1.659,1.659,0,0,1,1.658-1.658h.695A1.659,1.659,0,0,1,16.077,6.4a.569.569,0,1,1-1.137,0,.521.521,0,0,0-.521-.521h-.695A.521.521,0,0,0,13.2,6.4v.328a.52.52,0,0,0,.285.464l1.672.837a1.658,1.658,0,0,1-.742,3.14" transform="translate(16.638 6.533)" fill="#2d9539"/><path d="M13.256,8.946a.569.569,0,0,1-.569-.569V7.536a.569.569,0,1,1,1.137,0v.842a.569.569,0,0,1-.569.569" transform="translate(17.494 9.607)" fill="#2d9539"/><path d="M13.256,6.209a.569.569,0,0,1-.569-.569V4.948a.569.569,0,1,1,1.137,0V5.64a.569.569,0,0,1-.569.569" transform="translate(17.494 6.035)" fill="#2d9539"/><path d="M3.093,17.2A3.1,3.1,0,0,1,0,14.107V3.093a3.093,3.093,0,0,1,6.185,0V14.107A3.1,3.1,0,0,1,3.093,17.2m0-15.494A1.39,1.39,0,0,0,1.706,3.093V14.107a1.387,1.387,0,1,0,2.774,0V3.093A1.388,1.388,0,0,0,3.093,1.706" transform="translate(0 0)" fill="#2d9539"/><path d="M19.169,11.691a3.054,3.054,0,0,1-2.122-.859L13.835,7.723a6.074,6.074,0,0,1-4.508,2.341,5.1,5.1,0,0,1-5.05-2.61.853.853,0,0,1,1.549-.716A3.38,3.38,0,0,0,9.232,8.36a4.442,4.442,0,0,0,3.685-2.334l.511-1.066L18.234,9.6A1.345,1.345,0,0,0,20.12,7.687L16.473,4.04a.854.854,0,0,1,1.206-1.208l3.647,3.649a3.052,3.052,0,0,1-2.158,5.21" transform="translate(5.788 3.565)" fill="#00569e"/><path d="M16.366,18.276a.741.741,0,0,1-.476-1.311l2.724-2.284-2.4-2.857a.74.74,0,1,1,1.135-.952l3.352,3.989L16.842,18.1a.732.732,0,0,1-.476.171" transform="translate(21.544 14.624)" fill="#00569e"/><path d="M33.033,13.51H6.135a.783.783,0,1,1,0-1.565h26.9a.783.783,0,1,1,0,1.565" transform="translate(7.38 16.471)" fill="#00569e"/></g></g></svg>