<svg xmlns="http://www.w3.org/2000/svg" xmlns:xlink="http://www.w3.org/1999/xlink" width="21.774" height="22.265" viewBox="0 0 21.774 22.265"><defs><clipPath id="a"><rect width="21.774" height="22.265" fill="#fff"/></clipPath></defs><g transform="translate(0 0)"><g transform="translate(0 -0.001)" clip-path="url(#a)"><path d="M13.772,21.659h-.038a7.63,7.63,0,0,1-3.8-1.134,21.247,21.247,0,0,1-5.149-4.486,26.765,26.765,0,0,1-3.148-4.375,13.168,13.168,0,0,1-1.461-3.6A6.143,6.143,0,0,1,.429,4.323,4.711,4.711,0,0,1,5.062,1.305,1.77,1.77,0,0,1,6.2,1.573a2.058,2.058,0,0,1,.821,1.165c.138.468.249.941.349,1.417.114.545.221,1.093.325,1.641l.185.947a1.2,1.2,0,0,1-.349,1.123,2.874,2.874,0,0,1-.956.6l-.155.066c-.2.085-.4.171-.6.267-.069-.007-.066.028-.051.129a4.983,4.983,0,0,0,.569,1.447l.089.171a11.561,11.561,0,0,0,3.794,4.294l.262.191a4.883,4.883,0,0,0,.465.315c.334.192.362.207.6-.166.191-.3.388-.588.6-.872a1.529,1.529,0,0,1,.311-.3,1.22,1.22,0,0,1,1.231-.254,24.382,24.382,0,0,1,3.963,1.677,1.58,1.58,0,0,1,1.011,1.939,4.892,4.892,0,0,1-3.558,4.108,6.836,6.836,0,0,1-.916.138ZM5.062,2.269a3.756,3.756,0,0,0-3.74,2.42,5.14,5.14,0,0,0-.2,3.167A12.271,12.271,0,0,0,2.48,11.19a25.9,25.9,0,0,0,3.04,4.216,20.253,20.253,0,0,0,4.914,4.29,6.706,6.706,0,0,0,3.3,1l.361-.04a6.475,6.475,0,0,0,.791-.116,3.957,3.957,0,0,0,2.824-3.284c.076-.642.062-.668-.51-.975a23.767,23.767,0,0,0-3.809-1.611.237.237,0,0,0-.255.035,1.631,1.631,0,0,0-.207.177c-.2.267-.384.539-.561.816a1.227,1.227,0,0,1-1.892.488,6.011,6.011,0,0,1-.558-.377l-.24-.173a12.542,12.542,0,0,1-4.105-4.65l-.086-.169a5.666,5.666,0,0,1-.664-1.738.944.944,0,0,1,.575-1.145c.213-.106.431-.2.649-.29l.152-.066a1.984,1.984,0,0,0,.649-.39.244.244,0,0,0,.086-.254L6.744,5.98c-.1-.544-.21-1.086-.321-1.627-.1-.451-.2-.9-.333-1.34a1.084,1.084,0,0,0-.431-.639,1.4,1.4,0,0,0-.6-.106" transform="translate(0 0.605)" fill="#fff"/><path d="M9.7,12.416a.811.811,0,0,1-.553-.289l-.163-.161c-.158-.157-.317-.312-.463-.476a.961.961,0,0,1-.237-.68c.035-.469.082-.936.13-1.4l.034-.344c.155-1.555.3-3,.453-4.452-.551-.5-1.13-1.087-1.709-1.672a2.627,2.627,0,0,1-.712-1.172A2.19,2.19,0,0,1,6.4,1.038a1.074,1.074,0,0,1,.422-.8,1.363,1.363,0,0,1,1.111-.2A2.751,2.751,0,0,1,9.316.809l.158.16c.516.516,1.032,1.032,1.554,1.542.771-.072,1.546-.151,2.323-.23l3.79-.378a.918.918,0,0,1,.808.3c.128.136.259.267.393.4l.173.17a.743.743,0,0,1,.273.66.738.738,0,0,1-.481.511l-4.024,1.81c.312.318.621.632.932.942l.113-.009c.333-.025.664-.051.991-.1a1.384,1.384,0,0,1,1.471.557l.163.148a.712.712,0,0,1,.24.626.705.705,0,0,1-.45.5l-.626.287c-.456.208-.915.418-1.367.635-.252.494-.463.958-.674,1.425l-.267.582a.65.65,0,0,1-1.153.211l-.157-.158c-.086-.088-.174-.177-.264-.259a.894.894,0,0,1-.3-.8c.057-.5.1-.992.147-1.49-.314-.315-.63-.626-.948-.941l-1.8,4.011a.742.742,0,0,1-.516.492.61.61,0,0,1-.113.01M7.583,1.049a.21.21,0,0,0-.128.028A1.151,1.151,0,0,0,7.5,1.5a1.574,1.574,0,0,0,.444.7C8.521,2.78,9.1,3.361,9.677,3.935a.908.908,0,0,1,.273.781Q9.725,6.89,9.51,9.059l-.047.453c-.045.459-.091.917-.128,1.378a1.035,1.035,0,0,1,.229.17l2.141-4.765.629.331.256.251c.463.454.915.9,1.362,1.347a.759.759,0,0,1,.188.624c-.048.539-.1,1.073-.158,1.606a.141.141,0,0,1,.064.022l.07-.152c.215-.472.429-.942.654-1.41a1.172,1.172,0,0,1,.525-.528c.459-.22.922-.431,1.385-.642l.183-.085c-.053-.05-.139-.076-.378-.037-.356.057-.715.086-1.074.114l-.22.018a.806.806,0,0,1-.62-.214c-.418-.418-.832-.838-1.256-1.269l-.843-.857,4.962-2.228c-.086-.088-.171-.174-.254-.262l-3.724.4q-1.218.125-2.439.242a.955.955,0,0,1-.683-.264c-.538-.528-1.07-1.06-1.6-1.592l-.16-.16a1.7,1.7,0,0,0-.857-.488.681.681,0,0,0-.132-.015M13.2,8.964v0m1.9-2.257h0Z" transform="translate(2.978 0.001)" fill="#fff"/></g></g></svg>