<svg xmlns="http://www.w3.org/2000/svg" xmlns:xlink="http://www.w3.org/1999/xlink" width="26.44" height="26.5" viewBox="0 0 26.44 26.5"><defs><clipPath id="a"><rect width="26.44" height="26.5" fill="none"/></clipPath></defs><g clip-path="url(#a)"><path d="M19.607,72.025a.491.491,0,0,1-.491-.491V59.99a.491.491,0,1,1,.982,0V71.534a.491.491,0,0,1-.491.491" transform="translate(-16.039 -49.923)" fill="#fff"/><path d="M139.879,72.025a.491.491,0,0,1-.491-.491V59.99a.491.491,0,0,1,.982,0V71.534a.491.491,0,0,1-.491.491" transform="translate(-116.954 -49.923)" fill="#fff"/><path d="M59.617,85.308a.491.491,0,0,1-.491-.491v-9a.491.491,0,1,1,.982,0v9a.491.491,0,0,1-.491.491" transform="translate(-49.61 -63.206)" fill="#fff"/><path d="M99.748,85.308a.491.491,0,0,1-.491-.491v-9a.491.491,0,1,1,.982,0v9a.491.491,0,0,1-.491.491" transform="translate(-83.282 -63.206)" fill="#fff"/><path d="M26.808,136.6H1.515a.491.491,0,0,1-.491-.491v-4.4a.491.491,0,0,1,.491-.491H26.808a.491.491,0,0,1,.491.491v4.4a.491.491,0,0,1-.491.491m-24.8-.982H26.317v-3.415H2.006Z" transform="translate(-0.859 -110.103)" fill="#fff"/><path d="M25.949,10.558H.491A.491.491,0,0,1,0,10.067V6.845a.491.491,0,0,1,.272-.439L12.986.052a.49.49,0,0,1,.439,0L26.168,6.405a.491.491,0,0,1,.272.439v3.223a.491.491,0,0,1-.491.491M.982,9.576H25.458V7.149L13.205,1.04.982,7.148Z" transform="translate(0 0)" fill="#fff"/><path d="M67.966,33.559H62.457a.491.491,0,1,1,0-.982h5.508a.491.491,0,0,1,0,.982" transform="translate(-51.993 -27.334)" fill="#fff"/></g></svg>