<svg xmlns="http://www.w3.org/2000/svg" width="31.557" height="28" viewBox="0 0 31.557 28"><g transform="translate(-250.222 -1319.261)"><path d="M28,14.018A14,14,0,1,1,14.022,0,14.029,14.029,0,0,1,28,14.018M13.984,20.179c0-.034,0-.069.006-.1.569,0,1.14.026,1.708,0,1.474-.081,2.953-.137,4.419-.3a2.234,2.234,0,0,0,2.3-2.26,24.961,24.961,0,0,0-.025-7.223,2.122,2.122,0,0,0-2.028-2.056,30.731,30.731,0,0,0-4.183-.322q-4.058.02-8.115.247c-1.666.1-2.381.9-2.539,2.559a33.048,33.048,0,0,0,.006,6.546c.169,1.64.822,2.366,2.464,2.521,1.989.188,3.989.268,5.984.394" transform="translate(250.222 1319.261)" fill="#0167ab"/><path d="M27.122,39.528c-2-.127-3.995-.207-5.984-.394-1.642-.155-2.295-.881-2.464-2.521a33.048,33.048,0,0,1-.006-6.546c.158-1.655.874-2.462,2.539-2.559q4.051-.234,8.115-.247a30.735,30.735,0,0,1,4.183.322,2.122,2.122,0,0,1,2.028,2.056,24.971,24.971,0,0,1,.025,7.223,2.234,2.234,0,0,1-2.3,2.26c-1.466.161-2.945.217-4.419.3-.568.031-1.139,0-1.708,0l-.005.1m-1.678-3.6,4.455-2.6-4.455-2.555Z" transform="translate(237.084 1299.911)" fill="#fff"/><path d="M42.411,44.5V39.343L46.866,41.9l-4.455,2.6" transform="translate(220.117 1291.335)" fill="#0167ab"/><path d="M82.408,52.551a5.384,5.384,0,1,1-5.384-5.384,5.384,5.384,0,0,1,5.384,5.384" transform="translate(199.37 1285.781)" fill="#2c9539"/><path d="M77.186,62.265c.056-.1,1.873-2.9,1.873-2.9a.941.941,0,0,1,.906-.431.9.9,0,0,1,.4.153l1.493,1.107a.344.344,0,0,0,.413,0L84.22,58.7a.308.308,0,0,1,.413.035l.01.011a.272.272,0,0,1,.029.322s-1.565,2.554-1.816,2.968a.816.816,0,0,1-1.224.317l-1.606-1.164a.376.376,0,0,0-.45.007s-1.615,1.3-1.917,1.478c-.366.22-.654-.1-.473-.413" transform="translate(195.473 1277.638)" fill="#fffdff"/><rect width="31.557" height="28" transform="translate(250.222 1319.261)" fill="none"/></g></svg>