<svg xmlns="http://www.w3.org/2000/svg" width="26.188" height="26.188" viewBox="0 0 26.188 26.188">
	<g transform="translate(-1432.813 -88)">
		<path d="M0,2.44v10.2H12.642V0H2.44A2.44,2.44,0,0,0,0,2.44ZM9.03,7.224H7.224V9.03a.9.9,0,0,1-1.806,0V7.224H3.612a.9.9,0,0,1,0-1.806H5.418V3.612a.9.9,0,0,1,1.806,0V5.418H9.03a.9.9,0,0,1,0,1.806Z" transform="translate(1432.813 88)" fill="#ffffff">
		</path>
		<path d="M30,0V12.642H42.642V2.44A2.44,2.44,0,0,0,40.2,0Zm9.03,7.224H33.612a.9.9,0,0,1,0-1.806H39.03a.9.9,0,1,1,0,1.806Z" transform="translate(1416.358 88)" fill="#ffffff">
		</path>
		<path d="M30,30V42.642H40.2a2.44,2.44,0,0,0,2.44-2.44V30Zm9.03,8.579H33.612a.9.9,0,0,1,0-1.806H39.03a.9.9,0,1,1,0,1.806Zm0-2.709H33.612a.9.9,0,0,1,0-1.806H39.03a.9.9,0,1,1,0,1.806Z" transform="translate(1416.358 71.545)" fill="#ffffff">
		</path>
		<path d="M0,30V40.2a2.44,2.44,0,0,0,2.44,2.44h10.2V30Zm9.217,7.94A.9.9,0,1,1,7.94,39.217L6.321,37.6,4.7,39.217A.9.9,0,1,1,3.425,37.94l1.619-1.619L3.425,34.7A.9.9,0,1,1,4.7,33.425l1.619,1.619L7.94,33.425A.9.9,0,1,1,9.217,34.7L7.6,36.321Z" transform="translate(1432.813 71.545)" fill="#ffffff">
		</path>
	</g>
</svg>
