<svg xmlns="http://www.w3.org/2000/svg" width="23.771" height="29.998" viewBox="0 0 23.771 29.998">
	<g transform="translate(-1518.299 -86.188)">
		<path d="M1095.648,692.909a10.235,10.235,0,1,0-10.235-10.242A10.237,10.237,0,0,0,1095.648,692.909Zm-3.571-6.185c.094-.334.182-.675.29-1,.124-.385.225-.435.581-.247a5.624,5.624,0,0,0,1.924.581,2.417,2.417,0,0,0,1.263-.167.983.983,0,0,0,.232-1.728,2.865,2.865,0,0,0-.719-.421,15.933,15.933,0,0,1-1.967-.886,2.779,2.779,0,0,1-1.575-2.664,2.938,2.938,0,0,1,2.149-2.722c.523-.189.53-.182.53-.733v-.559c.007-.414.08-.486.493-.5.131-.007.254,0,.385,0,.879,0,.879,0,.886.878,0,.624,0,.624.624.719a5.276,5.276,0,0,1,1.365.406.4.4,0,0,1,.261.53c-.109.378-.211.762-.334,1.14-.116.356-.225.406-.566.24a4.307,4.307,0,0,0-2.163-.428,1.626,1.626,0,0,0-.581.116.821.821,0,0,0-.2,1.459,3.849,3.849,0,0,0,.936.53,16.442,16.442,0,0,1,1.713.777,3.077,3.077,0,0,1,.994,4.675,3.333,3.333,0,0,1-1.706,1.1.477.477,0,0,0-.414.544c.015.3,0,.6,0,.907a.375.375,0,0,1-.406.421c-.327.007-.653.007-.973,0a.392.392,0,0,1-.421-.443c0-.218-.007-.443-.007-.661-.007-.486-.022-.508-.486-.581a5.95,5.95,0,0,1-1.735-.5C1092,687.283,1091.953,687.174,1092.077,686.724Z" transform="translate(434.534 -581.487)" fill="#0961ad">
		</path>
		<path d="M1053.545,946.806a13.247,13.247,0,0,1-18.171.508h.778a.888.888,0,0,0,.888-.888h0a.888.888,0,0,0-.888-.888H1033.2a.888.888,0,0,0-.888.888v2.951a.888.888,0,0,0,.888.888h0a.888.888,0,0,0,.888-.888v-.833a15.016,15.016,0,0,0,20.711-.484l0,0a.887.887,0,0,0,0-1.255h0a.887.887,0,0,0-1.255,0Z" transform="translate(485.986 -836.265)" fill="#0961ad">
		</path>
		<path d="M1069.958,571.512v.833a15.016,15.016,0,0,0-20.711.484h0a.883.883,0,0,0,0,1.249l.006.006a.883.883,0,0,0,1.249,0l.006-.006a13.247,13.247,0,0,1,18.171-.508h-.777a.888.888,0,0,0-.888.888h0a.888.888,0,0,0,.888.888h2.951a.888.888,0,0,0,.888-.888v-2.945a.888.888,0,0,0-.888-.888h-.006A.888.888,0,0,0,1069.958,571.512Z" transform="translate(470.331 -482.252)" fill="#0961ad">
		</path>
	</g>
</svg>
