<svg xmlns="http://www.w3.org/2000/svg" xmlns:xlink="http://www.w3.org/1999/xlink" width="34" height="34" viewBox="0 0 34 34"><defs><clipPath id="a"><rect width="16.751" height="18.237" fill="none"/></clipPath></defs><g transform="translate(-232 -972)"><circle cx="17" cy="17" r="17" transform="translate(232 972)" fill="rgba(20,175,65,0.2)"/><g transform="translate(241.749 979.763)"><g transform="translate(0 0)" clip-path="url(#a)"><path d="M12.339,18.236h-.034a6.841,6.841,0,0,1-3.4-1.016A19.025,19.025,0,0,1,4.287,13.2,23.978,23.978,0,0,1,1.468,9.28,11.79,11.79,0,0,1,.159,6.06,5.493,5.493,0,0,1,.384,2.7,4.3,4.3,0,0,1,4.553,0a1.721,1.721,0,0,1,1,.24,1.845,1.845,0,0,1,.734,1.044c.123.419.225.843.314,1.27.1.494.2.989.294,1.484l.163.835a1.081,1.081,0,0,1-.313,1.006,2.568,2.568,0,0,1-.855.536l-.133.056c-.184.077-.366.155-.542.242-.051,0-.059.022-.045.116a4.316,4.316,0,0,0,.506,1.289l.083.162a10.363,10.363,0,0,0,3.4,3.846l.236.171a4.215,4.215,0,0,0,.416.282c.3.172.326.186.537-.147q.254-.4.536-.781a1.441,1.441,0,0,1,.282-.274,1.1,1.1,0,0,1,1.1-.225,22.3,22.3,0,0,1,3.552,1.5,1.419,1.419,0,0,1,.906,1.74,4.386,4.386,0,0,1-3.188,3.681,6.065,6.065,0,0,1-.817.122ZM4.534.864a3.363,3.363,0,0,0-3.35,2.169A4.593,4.593,0,0,0,1,5.871,10.97,10.97,0,0,0,2.222,8.857a23.321,23.321,0,0,0,2.722,3.778,18.187,18.187,0,0,0,4.4,3.843,5.992,5.992,0,0,0,2.953.892l.328-.037a5.755,5.755,0,0,0,.706-.1,3.549,3.549,0,0,0,2.528-2.943c.068-.576.055-.6-.456-.875a21.393,21.393,0,0,0-3.414-1.443.209.209,0,0,0-.228.032,1.581,1.581,0,0,0-.186.16c-.176.238-.343.483-.5.731a1.1,1.1,0,0,1-1.7.436,5.216,5.216,0,0,1-.5-.337l-.217-.155A11.236,11.236,0,0,1,4.989,8.672l-.081-.158a5.075,5.075,0,0,1-.592-1.552.847.847,0,0,1,.516-1.024c.193-.1.39-.18.588-.264l.131-.055a1.74,1.74,0,0,0,.579-.348.221.221,0,0,0,.079-.23L6.046,4.2c-.095-.491-.19-.982-.292-1.471-.084-.4-.18-.8-.3-1.2A.983.983,0,0,0,5.071.959.967.967,0,0,0,4.534.864" transform="translate(0 0)" fill="#00569e"/></g></g></g></svg>