<svg xmlns="http://www.w3.org/2000/svg" xmlns:xlink="http://www.w3.org/1999/xlink" width="96.994" height="28.767" viewBox="0 0 96.994 28.767"><defs><linearGradient id="a" x1="0.807" y1="0.502" x2="-1.575" y2="0.502" gradientUnits="objectBoundingBox"><stop offset="0" stop-color="#fdd900"/><stop offset="0.08" stop-color="#fbd000"/><stop offset="0.48" stop-color="#f6a902"/><stop offset="0.8" stop-color="#f39003"/><stop offset="1" stop-color="#f28804"/></linearGradient><linearGradient id="b" x1="0.864" y1="0.176" x2="-0.501" y2="1.947" gradientUnits="objectBoundingBox"><stop offset="0" stop-color="#e32b37"/><stop offset="1" stop-color="#b3005b"/></linearGradient><linearGradient id="c" x1="-0.511" y1="-0.956" x2="0.604" y2="0.491" gradientUnits="objectBoundingBox"><stop offset="0" stop-color="#2d8f5a"/><stop offset="0.35" stop-color="#47a055"/><stop offset="0.75" stop-color="#60b152"/><stop offset="1" stop-color="#69b751"/></linearGradient></defs><g transform="translate(0)"><path d="M10.7,6.927a.513.513,0,0,1-.515-.515V2.095A.513.513,0,0,1,10.7,1.58H12.02a2.652,2.652,0,0,1,1.944.743,2.521,2.521,0,0,1,.743,1.916,2.631,2.631,0,0,1-.743,1.916,2.72,2.72,0,0,1-1.944.772ZM12.02,5.355a1.086,1.086,0,0,0,.829-.286,1.045,1.045,0,0,0,.286-.829,1.086,1.086,0,0,0-.286-.829,1.045,1.045,0,0,0-.829-.286h-.257v2.2h.257Z" transform="translate(18.948 2.938)" fill="#fff" stroke="#fff" stroke-miterlimit="10" stroke-width="0.1"/><path d="M12.2,1.58h.543a.513.513,0,0,1,.515.515V6.413a.513.513,0,0,1-.515.515H12.2a.513.513,0,0,1-.515-.515V2.095A.513.513,0,0,1,12.2,1.58Z" transform="translate(21.737 2.938)" fill="#fff" stroke="#fff" stroke-miterlimit="10" stroke-width="0.1"/><path d="M14.151,7.087a2.086,2.086,0,0,1-1.2-.4,1.908,1.908,0,0,1-.8-1.172.523.523,0,0,1,.315-.6l.515-.2a1.015,1.015,0,0,1,.2-.029h.114a2.592,2.592,0,0,1-.543-.372A1.53,1.53,0,0,1,12.292,3.2a1.475,1.475,0,0,1,.543-1.172,1.864,1.864,0,0,1,1.315-.486,2,2,0,0,1,1.2.372,1.7,1.7,0,0,1,.6.858.512.512,0,0,1-.286.629l-.515.2a1.011,1.011,0,0,1-.172.029c.143.086.315.172.486.286a1.63,1.63,0,0,1,.686,1.373,1.451,1.451,0,0,1-.2.8,1.323,1.323,0,0,1-.515.6,2.863,2.863,0,0,1-.6.286,2.437,2.437,0,0,1-.658.086Zm-.686-2.316a.918.918,0,0,1,.2.286.686.686,0,0,0,.2.343.367.367,0,0,0,.286.114c.143,0,.229,0,.315-.086.029,0,.057-.029.057-.114,0-.114-.029-.143-.057-.143a1.8,1.8,0,0,0-.658-.286C13.694,4.857,13.579,4.8,13.465,4.771Zm.658-1.659s-.172,0-.229.057q.043.129.429.257a.546.546,0,0,1,.229.086.353.353,0,0,1-.114-.229.342.342,0,0,0-.114-.114.334.334,0,0,0-.229-.057Z" transform="translate(22.565 2.864)" fill="#fff" stroke="#fff" stroke-miterlimit="10" stroke-width="0.1"/><path d="M13.955,6.927a.513.513,0,0,1-.515-.515V2.095a.513.513,0,0,1,.515-.515h1.458a1.966,1.966,0,0,1,1.315.486A1.752,1.752,0,0,1,17.3,3.381,1.752,1.752,0,0,1,16.728,4.7a1.834,1.834,0,0,1-1.315.486h-.4v1.23a.513.513,0,0,1-.515.515ZM15.442,3.61a.593.593,0,0,0,.172-.057.442.442,0,0,0,.086-.172.193.193,0,0,0-.086-.172c-.029-.029-.057-.057-.172-.057h-.4V3.61h.4Z" transform="translate(24.991 2.938)" fill="#fff" stroke="#fff" stroke-miterlimit="10" stroke-width="0.1"/><path d="M17.315,7.069a2.567,2.567,0,0,1-1.944-.8,2.773,2.773,0,0,1-.8-1.944,2.72,2.72,0,0,1,.8-1.973,2.727,2.727,0,0,1,3.889.029,2.765,2.765,0,0,1,.772,1.973A2.651,2.651,0,0,1,19.26,6.3a2.567,2.567,0,0,1-1.944.8Zm0-3.975a1.056,1.056,0,0,0-.8.315,1.185,1.185,0,0,0-.343.886,1.185,1.185,0,0,0,.343.886,1.176,1.176,0,0,0,1.6,0,1.185,1.185,0,0,0,.343-.886,1.185,1.185,0,0,0-.343-.886A1.056,1.056,0,0,0,17.315,3.094Z" transform="translate(27.093 2.882)" fill="#fff" stroke="#fff" stroke-miterlimit="10" stroke-width="0.1"/><path d="M19.65,6.927a.549.549,0,0,1-.458-.257L17.963,4.7V6.413a.513.513,0,0,1-.515.515H16.9a.513.513,0,0,1-.515-.515V2.095A.513.513,0,0,1,16.9,1.58h.686a.472.472,0,0,1,.429.257l1.144,1.83V2.123a.513.513,0,0,1,.515-.515h.572a.513.513,0,0,1,.515.515V6.441a.513.513,0,0,1-.515.515h-.572Z" transform="translate(30.477 2.938)" fill="#fff" stroke="#fff" stroke-miterlimit="10" stroke-width="0.1"/><path d="M18.433,1.58h.543a.513.513,0,0,1,.515.515V6.413a.513.513,0,0,1-.515.515H18.4a.513.513,0,0,1-.515-.515V2.095A.513.513,0,0,1,18.4,1.58Z" transform="translate(33.266 2.938)" fill="#fff" stroke="#fff" stroke-miterlimit="10" stroke-width="0.1"/><path d="M18.955,6.927a.513.513,0,0,1-.515-.515V2.095a.513.513,0,0,1,.515-.515h1.573a1.921,1.921,0,0,1,1.23.458,1.644,1.644,0,0,1,.543,1.23,1.362,1.362,0,0,1-.257.829h0c0,.057.057.086.086.143a1.478,1.478,0,0,1,.315.915A1.706,1.706,0,0,1,21.9,6.413a1.947,1.947,0,0,1-1.287.486h-1.63Zm1.659-1.573s.114,0,.114-.057c.057-.086.057-.114.057-.143a.289.289,0,0,0-.057-.143c0-.029-.057-.057-.143-.057h-.572v.372h.6ZM20.5,3.41s.114,0,.114-.029c.057-.057.057-.086.057-.114,0,0,0-.029-.057-.114h-.629v.286h.486Z" transform="translate(34.289 2.938)" fill="#fff" stroke="#fff" stroke-miterlimit="10" stroke-width="0.1"/><path d="M20.245,6.927a.513.513,0,0,1-.515-.515V2.095a.513.513,0,0,1,.515-.515h.543a.513.513,0,0,1,.515.515v3.26h1.344a.513.513,0,0,1,.515.515v.543a.513.513,0,0,1-.515.515Z" transform="translate(36.688 2.938)" fill="#fff" stroke="#fff" stroke-miterlimit="10" stroke-width="0.1"/><path d="M21.335,6.927a.513.513,0,0,1-.515-.515V2.095a.513.513,0,0,1,.515-.515h2.516a.513.513,0,0,1,.515.515v.543a.513.513,0,0,1-.515.515h-1.43v.315h1.258a.513.513,0,0,1,.515.515V4.5a.513.513,0,0,1-.515.515H22.421v.343h1.43a.513.513,0,0,1,.515.515v.543a.513.513,0,0,1-.515.515Z" transform="translate(38.715 2.938)" fill="#fff" stroke="#fff" stroke-miterlimit="10" stroke-width="0.1"/><path d="M23.025,6.927a.513.513,0,0,1-.515-.515V2.095a.513.513,0,0,1,.515-.515h2.516a.513.513,0,0,1,.515.515v.543a.513.513,0,0,1-.515.515H24.083v.315h1.258a.513.513,0,0,1,.515.515V4.5a.513.513,0,0,1-.515.515H24.083v.343h1.458a.513.513,0,0,1,.515.515v.543a.513.513,0,0,1-.515.515Z" transform="translate(41.857 2.938)" fill="#fff" stroke="#fff" stroke-miterlimit="10" stroke-width="0.1"/><path d="M26.931,6.927A.472.472,0,0,1,26.5,6.67L25.273,4.7V6.413a.513.513,0,0,1-.515.515h-.543a.513.513,0,0,1-.515-.515V2.095a.513.513,0,0,1,.515-.515h.658a.549.549,0,0,1,.458.257l1.144,1.83V2.123a.513.513,0,0,1,.515-.515h.543a.513.513,0,0,1,.515.515V6.441a.513.513,0,0,1-.515.515H26.96Z" transform="translate(44.07 2.938)" fill="#fff" stroke="#fff" stroke-miterlimit="10" stroke-width="0.1"/><path d="M36.686,17.378a3.485,3.485,0,0,1-3.2-2.116.475.475,0,0,1,.286-.658l1.115-.458a3.643,3.643,0,0,1-1.43-1.773,3.53,3.53,0,0,1-3.346,2.259,3.571,3.571,0,0,1-3.346-2.259,3.593,3.593,0,0,1-6.806-.4,4.281,4.281,0,0,1-.8,1.172,4.87,4.87,0,0,1-3.689,1.487,5.262,5.262,0,1,1,0-10.523,5.007,5.007,0,0,1,3.6,1.43.473.473,0,0,1,.143.372.544.544,0,0,1-.143.372l-.915.915a.976.976,0,0,1-.372.143.6.6,0,0,1-.372-.143,2.693,2.693,0,0,0-1.973-.772,2.931,2.931,0,0,0,0,5.862,2.648,2.648,0,0,0,2.03-.8,1.6,1.6,0,0,0,.429-.743H15.44a.513.513,0,0,1-.515-.515V8.943a.513.513,0,0,1,.515-.515h4.375a.52.52,0,0,1,.515.429,1.475,1.475,0,0,0,.057.315,3.594,3.594,0,0,1,6.377.629,3.555,3.555,0,0,1,3.346-2.288A3.594,3.594,0,0,1,33.484,9.8a3.481,3.481,0,0,1,3.2-2.288A2.88,2.88,0,0,1,38,7.827a.474.474,0,0,1,.343-.143H39.6a.5.5,0,0,1,.4.2V4.968a.513.513,0,0,1,.515-.515h1.344a.513.513,0,0,1,.515.515v4.4a3.39,3.39,0,0,1,3.031-1.887A3.327,3.327,0,0,1,48.5,9.772l.143.343a.475.475,0,0,1-.286.658l-3.46,1.43a1,1,0,0,0,.658.2,1.267,1.267,0,0,0,1.087-.629.543.543,0,0,1,.429-.229.346.346,0,0,1,.286.086l1.029.686a.971.971,0,0,1,.229.343.6.6,0,0,1-.086.372,3.592,3.592,0,0,1-6.148-.343v1.23a.513.513,0,0,1-.515.515H40.518a.493.493,0,0,1-.429-.257,3.252,3.252,0,0,1-3.4,3.174Zm-1-2.888a1.14,1.14,0,0,0,1,.658.933.933,0,0,0,1.029-.715,2.723,2.723,0,0,1-1.087.2,3.468,3.468,0,0,1-.972-.143Zm1.087-4.747A1.259,1.259,0,0,0,35.6,11.087,1.233,1.233,0,0,0,36.772,12.4a1.191,1.191,0,0,0,1.115-1.315A1.236,1.236,0,0,0,36.772,9.743Zm-6.663,0a1.246,1.246,0,0,0-1.2,1.344,1.209,1.209,0,1,0,2.4,0A1.246,1.246,0,0,0,30.109,9.743Zm-6.691,0a1.246,1.246,0,0,0-1.2,1.344,1.209,1.209,0,1,0,2.4,0A1.246,1.246,0,0,0,23.418,9.743Zm22.018,0a1.036,1.036,0,0,0-.743.343h0l.858-.343h-.086Zm21.046,7.463a.5.5,0,0,1-.429-.229.493.493,0,0,1-.029-.486l1.287-2.8-1.4-3.2v3.489a.513.513,0,0,1-.515.515H64.109a.519.519,0,0,1-.4-.172,2.717,2.717,0,0,1-1.373.343,2.768,2.768,0,0,1-2.459-1.315v.629a.513.513,0,0,1-.515.515H58.018a.532.532,0,0,1-.515-.515v-4.8a3.488,3.488,0,0,1-3.174,1.916H52.985v2.888a.513.513,0,0,1-.515.515H51.127a.532.532,0,0,1-.515-.515V5a.513.513,0,0,1,.515-.515h3.2A3.546,3.546,0,0,1,57.5,6.426V5a.513.513,0,0,1,.515-.515h1.344A.513.513,0,0,1,59.877,5V9.028a3.06,3.06,0,0,1,2.774-1.516,3.4,3.4,0,0,1,2.316.8.479.479,0,0,1,.086-.343.543.543,0,0,1,.429-.229h1.43a.5.5,0,0,1,.486.315l1.115,2.774L69.6,8.056a.5.5,0,0,1,.486-.315h1.487A.5.5,0,0,1,72,7.97a.493.493,0,0,1,.029.486l-3.689,8.464a.529.529,0,0,1-.486.315h-1.4Zm-3.66-5.462c-.229,0-.886.086-.886.429,0,.143.315.229.543.229a1.079,1.079,0,0,0,.972-.6,1.671,1.671,0,0,0-.6-.086Zm-2.974-.715a2.817,2.817,0,0,1,.858-.886l-.686-.286a1.43,1.43,0,0,1-.2-.143V11ZM54.358,8.8a1.03,1.03,0,1,0,0-2.059h-1.4V8.8Z" transform="translate(18.874 7.643)" fill="#fff"/><path d="M93.42,28.738H3.6a3.606,3.606,0,0,1-3.6-3.6V3.6A3.625,3.625,0,0,1,3.6,0H93.42a3.6,3.6,0,0,1,3.574,3.6V25.164a3.6,3.6,0,0,1-3.574,3.6Z" transform="translate(0)" fill="#1a1818"/><path d="M93.42.572a3.008,3.008,0,0,1,3,3.031V25.164a3.027,3.027,0,0,1-3,3.031H3.6A3.033,3.033,0,0,1,.572,25.164V3.6A3.014,3.014,0,0,1,3.6.572H93.42m0-.572H3.6A3.625,3.625,0,0,0,0,3.6V25.164a3.625,3.625,0,0,0,3.6,3.6H93.42a3.582,3.582,0,0,0,3.574-3.6V3.6A3.6,3.6,0,0,0,93.42,0Z" transform="translate(0)" fill="#97999c"/><path d="M29.765,7.683a3.06,3.06,0,1,0,3.06,3.06A3.009,3.009,0,0,0,29.765,7.683Zm0,4.918a1.775,1.775,0,0,1-1.716-1.859,1.721,1.721,0,1,1,3.431,0A1.757,1.757,0,0,1,29.765,12.6ZM23.073,7.683a3.06,3.06,0,1,0,3.06,3.06A3.009,3.009,0,0,0,23.073,7.683Zm0,4.918a1.757,1.757,0,0,1-1.716-1.859,1.721,1.721,0,1,1,3.431,0A1.757,1.757,0,0,1,23.073,12.6ZM15.124,8.626V9.913h3.117a2.623,2.623,0,0,1-.715,1.63,3.194,3.194,0,0,1-2.4.944,3.405,3.405,0,0,1-3.4-3.46A3.419,3.419,0,0,1,17.469,6.51l.915-.915a4.507,4.507,0,0,0-3.26-1.315,4.8,4.8,0,0,0-4.8,4.747,4.8,4.8,0,0,0,4.8,4.747,4.351,4.351,0,0,0,3.317-1.344A4.268,4.268,0,0,0,19.556,9.4a3.393,3.393,0,0,0-.057-.8H15.124Zm32.57,1a2.843,2.843,0,0,0-2.631-1.944,2.889,2.889,0,0,0-2.888,3.06,2.986,2.986,0,0,0,3.031,3.06,3.071,3.071,0,0,0,2.545-1.344l-1.058-.686a1.682,1.682,0,0,1-1.487.829,1.571,1.571,0,0,1-1.487-.915L47.808,10l-.143-.343Zm-4.175,1a1.677,1.677,0,0,1,1.6-1.773,1.213,1.213,0,0,1,1.144.629ZM40.2,13.6h1.344V4.623H40.2V13.6ZM38,8.369h-.057a2.156,2.156,0,0,0-1.6-.686,3.044,3.044,0,0,0-2.917,3.088A2.992,2.992,0,0,0,36.341,13.8a2.106,2.106,0,0,0,1.6-.686H38v.458c0,1.172-.629,1.8-1.63,1.8a1.7,1.7,0,0,1-1.544-1.087l-1.144.486a2.906,2.906,0,0,0,2.717,1.8c1.573,0,2.888-.915,2.888-3.174V7.912H38.029V8.4ZM36.456,12.6a1.767,1.767,0,0,1-1.716-1.83,1.774,1.774,0,0,1,1.716-1.859,1.693,1.693,0,0,1,1.63,1.859A1.684,1.684,0,0,1,36.456,12.6ZM53.985,4.652h-3.2v8.979h1.344v-3.4h1.887a2.854,2.854,0,0,0,2.945-2.8,2.83,2.83,0,0,0-2.945-2.774Zm.029,4.318H52.1V5.91h1.916a1.544,1.544,0,1,1,0,3.088Zm8.293-1.287a2.547,2.547,0,0,0-2.4,1.373l1.2.486a1.282,1.282,0,0,1,1.23-.658,1.334,1.334,0,0,1,1.43,1.144v.086a3.009,3.009,0,0,0-1.4-.343c-1.287,0-2.6.715-2.6,2.03a2.077,2.077,0,0,0,2.23,1.973,1.9,1.9,0,0,0,1.716-.886h.057v.686h1.287V10.142a2.465,2.465,0,0,0-2.717-2.488ZM62.134,12.6c-.429,0-1.058-.229-1.058-.772,0-.686.772-.972,1.4-.972a2.168,2.168,0,0,1,1.23.315,1.651,1.651,0,0,1-1.6,1.43ZM69.74,7.883,68.2,11.772h-.029l-1.6-3.889h-1.43l2.373,5.433-1.344,3.031h1.4l3.689-8.464H69.769ZM57.673,13.631h1.344V4.652H57.673Z" transform="translate(19.19 7.959)" fill="#fff"/><path d="M2.825,1.937a1.5,1.5,0,0,0-.315,1v15.87a1.445,1.445,0,0,0,.315,1l.057.057,8.893-8.893v-.229L2.882,1.88l-.057.057Z" transform="translate(4.667 3.496)" fill="#53bef2"/><path d="M8.724,10.1,5.75,7.124V6.9L8.724,3.95h.057L12.3,5.98a1.1,1.1,0,0,1,0,2.087l-3.517,2H8.724Z" transform="translate(10.692 7.345)" fill="url(#a)"/><path d="M14.6,8.061,11.57,5.03,2.62,13.98a1.18,1.18,0,0,0,1.487.057L14.6,8.061" transform="translate(4.872 9.353)" fill="url(#b)"/><path d="M14.583,8.015,4.117,2.038c-.629-.343-1.172-.315-1.487.029l8.95,8.95,3.031-3.031Z" transform="translate(4.89 3.338)" fill="url(#c)"/><path d="M10.37,6.078V1.76h1.315a2.179,2.179,0,0,1,1.6.6,2.112,2.112,0,0,1,.6,1.573,2.046,2.046,0,0,1-.6,1.544,2.135,2.135,0,0,1-1.6.6Zm.543-.543h.772a1.6,1.6,0,0,0,1.172-.429,1.624,1.624,0,0,0,.429-1.2,1.624,1.624,0,0,0-.429-1.2,1.6,1.6,0,0,0-1.172-.429h-.772V5.506Z" transform="translate(19.283 3.273)" fill="#fff" stroke="#fff" stroke-miterlimit="10" stroke-width="0.1"/><path d="M11.87,6.078V1.76h.543V6.078Z" transform="translate(22.072 3.273)" fill="#fff" stroke="#fff" stroke-miterlimit="10" stroke-width="0.1"/><path d="M13.807,6.238a1.424,1.424,0,0,1-.915-.315,1.4,1.4,0,0,1-.572-.858l.515-.2a1.124,1.124,0,0,0,.372.6.887.887,0,0,0,.629.257.975.975,0,0,0,.629-.2.577.577,0,0,0,.257-.515.72.72,0,0,0-.257-.572,3.546,3.546,0,0,0-.8-.372,2.4,2.4,0,0,1-.858-.458,1.013,1.013,0,0,1-.286-.743,1.014,1.014,0,0,1,.372-.8,1.345,1.345,0,0,1,.972-.343,1.322,1.322,0,0,1,.886.286,1.306,1.306,0,0,1,.458.6l-.515.2a1.2,1.2,0,0,0-.257-.372.824.824,0,0,0-.543-.172.88.88,0,0,0-.543.172.556.556,0,0,0-.229.458.5.5,0,0,0,.2.4,1.47,1.47,0,0,0,.6.286,3.733,3.733,0,0,1,.543.2,1.707,1.707,0,0,1,.429.257.951.951,0,0,1,.343.4,1.672,1.672,0,0,1,.114.543,1.3,1.3,0,0,1-.143.572.951.951,0,0,1-.343.4,2.28,2.28,0,0,1-.458.229,1.619,1.619,0,0,1-.515.086Z" transform="translate(22.909 3.198)" fill="#fff" stroke="#fff" stroke-miterlimit="10" stroke-width="0.1"/><path d="M14.163,6.078H13.62V1.76h1.458a1.271,1.271,0,0,1,.944.372,1.1,1.1,0,0,1,.4.915,1.1,1.1,0,0,1-.4.915,1.271,1.271,0,0,1-.944.372h-.915V6.078Zm0-2.288h.915a.688.688,0,0,0,.543-.229.829.829,0,0,0,.229-.515.769.769,0,0,0-.229-.515.641.641,0,0,0-.543-.229h-.915V3.79Z" transform="translate(25.326 3.273)" fill="#fff" stroke="#fff" stroke-miterlimit="10" stroke-width="0.1"/><path d="M18.535,5.59a2.209,2.209,0,0,1-3.145,0,2.177,2.177,0,0,1-.629-1.6,2.177,2.177,0,0,1,.629-1.6,2.209,2.209,0,0,1,3.145,0,2.222,2.222,0,0,1,.629,1.6A2.177,2.177,0,0,1,18.535,5.59Zm-2.745-.372a1.657,1.657,0,0,0,2.345,0,1.7,1.7,0,0,0,.486-1.23,1.823,1.823,0,0,0-.486-1.258,1.657,1.657,0,0,0-2.345,0A1.725,1.725,0,0,0,15.3,3.989,1.556,1.556,0,0,0,15.789,5.219Z" transform="translate(27.446 3.217)" fill="#fff" stroke="#fff" stroke-miterlimit="10" stroke-width="0.1"/><path d="M16.57,6.078V1.76h.686l2.087,3.346h0V1.76h.572V6.078h-.572l-2.2-3.517h0V6.078H16.6Z" transform="translate(30.812 3.273)" fill="#fff" stroke="#fff" stroke-miterlimit="10" stroke-width="0.1"/><path d="M18.08,6.078V1.76h.572V6.078Z" transform="translate(33.62 3.273)" fill="#fff" stroke="#fff" stroke-miterlimit="10" stroke-width="0.1"/><path d="M18.62,6.078V1.76h1.573a1.279,1.279,0,0,1,.886.343,1.07,1.07,0,0,1,.372.829.941.941,0,0,1-.172.543.91.91,0,0,1-.429.372h0a1.288,1.288,0,0,1,.543.4.924.924,0,0,1,.2.629,1,1,0,0,1-.4.858,1.349,1.349,0,0,1-.915.343h-1.63Zm.543-2.459h1a.538.538,0,0,0,.486-.229.736.736,0,0,0,.2-.458.761.761,0,0,0-.172-.458.589.589,0,0,0-.486-.2H19.163V3.59Zm0,1.916h1.115a.621.621,0,0,0,.515-.229.69.69,0,0,0,0-.972A.732.732,0,0,0,20.25,4.1H19.163v1.4Z" transform="translate(34.624 3.273)" fill="#fff" stroke="#fff" stroke-miterlimit="10" stroke-width="0.1"/><path d="M19.91,6.078V1.76h.543V5.535h1.859v.543Z" transform="translate(37.022 3.273)" fill="#fff" stroke="#fff" stroke-miterlimit="10" stroke-width="0.1"/><path d="M23.516,2.3H21.572V3.676h1.773v.515H21.572V5.535h1.944v.543H21V1.76h2.516V2.3Z" transform="translate(39.049 3.273)" fill="#fff" stroke="#fff" stroke-miterlimit="10" stroke-width="0.1"/><path d="M25.206,2.3H23.233V3.676h1.773v.515H23.233V5.535h1.973v.543H22.69V1.76h2.516V2.3Z" transform="translate(42.192 3.273)" fill="#fff" stroke="#fff" stroke-miterlimit="10" stroke-width="0.1"/><path d="M23.9,6.078V1.76h.658l2.087,3.346h0V1.76h.543V6.078h-.572l-2.2-3.517h0V6.078H23.87Z" transform="translate(44.386 3.273)" fill="#fff" stroke="#fff" stroke-miterlimit="10" stroke-width="0.1"/></g></svg>