<svg xmlns="http://www.w3.org/2000/svg" xmlns:xlink="http://www.w3.org/1999/xlink" width="34.928" height="41.742" viewBox="0 0 34.928 41.742"><defs><clipPath id="a"><rect width="34.928" height="41.742" fill="none"/></clipPath></defs><g transform="translate(0 0)"><g transform="translate(0 0)" clip-path="url(#a)"><path d="M3.056,19.333a.663.663,0,0,1-.476-1.125l3.967-4.067a3.936,3.936,0,0,1,2.8-1.18H22.012a2.645,2.645,0,0,1,0,5.29H15.3a.663.663,0,1,1,0-1.327h6.711a1.319,1.319,0,0,0,0-2.638H9.35a2.609,2.609,0,0,0-1.854.783L3.531,19.134a.663.663,0,0,1-.476.2" transform="translate(2.034 11.021)" fill="#00569e"/><path d="M6.878,27.953a.655.655,0,0,1-.472-.2.662.662,0,0,1,.007-.94l3.525-3.469a3.926,3.926,0,0,1,2.775-1.138h6.513a2.614,2.614,0,0,0,1.861-.772l6.833-6.831A1.359,1.359,0,0,0,26,12.686l-4.677,4.665a.663.663,0,1,1-.936-.94l4.677-4.665a2.686,2.686,0,0,1,3.8,3.8l-6.831,6.831a3.931,3.931,0,0,1-2.8,1.158H12.714a2.615,2.615,0,0,0-1.845.757L7.342,27.762a.654.654,0,0,1-.464.191" transform="translate(5.284 9.322)" fill="#00569e"/><path d="M11.329,29.042a2.763,2.763,0,0,1-1.967-.816L.816,19.679a2.78,2.78,0,1,1,3.93-3.934l8.548,8.548a2.781,2.781,0,0,1-1.965,4.748M2.781,16.26a1.452,1.452,0,0,0-1.029,2.479L10.3,27.288a1.484,1.484,0,0,0,2.056,0,1.458,1.458,0,0,0,0-2.057L3.81,16.684a1.454,1.454,0,0,0-1.029-.424" transform="translate(0 12.699)" fill="#2d9539"/><path d="M14.547,18.046a7.309,7.309,0,1,1,7.309-7.309,7.317,7.317,0,0,1-7.309,7.309m0-13.291a5.982,5.982,0,1,0,5.982,5.982,5.988,5.988,0,0,0-5.982-5.982" transform="translate(6.154 2.916)" fill="#2d9539"/><path d="M12.669,12.855h-.81a1.937,1.937,0,0,1-1.935-1.935V10.59a.662.662,0,1,1,1.325,0v.329a.61.61,0,0,0,.611.609h.81a.608.608,0,0,0,.272-1.153L10.992,9.4A1.921,1.921,0,0,1,9.923,7.669V7.287a1.937,1.937,0,0,1,1.935-1.935h.81A1.937,1.937,0,0,1,14.6,7.287v.405a.663.663,0,0,1-1.327,0V7.287a.61.61,0,0,0-.609-.609h-.81a.611.611,0,0,0-.611.609v.381a.6.6,0,0,0,.339.544l1.948.977a1.935,1.935,0,0,1-.866,3.665" transform="translate(8.437 4.551)" fill="#2d9539"/><path d="M11.519,11.006a.662.662,0,0,1-.662-.662V9.359a.662.662,0,1,1,1.325,0v.984a.662.662,0,0,1-.662.662" transform="translate(9.231 7.396)" fill="#2d9539"/><path d="M11.519,6.946a.662.662,0,0,1-.662-.662V5.475a.662.662,0,1,1,1.325,0v.809a.662.662,0,0,1-.662.662" transform="translate(9.231 4.093)" fill="#2d9539"/><path d="M12.72,7.275a3.638,3.638,0,1,1,3.638-3.638A3.642,3.642,0,0,1,12.72,7.275m0-5.949a2.311,2.311,0,1,0,2.311,2.311A2.315,2.315,0,0,0,12.72,1.327" transform="translate(7.722 0.001)" fill="#2d9539"/></g></g></svg>