<svg xmlns="http://www.w3.org/2000/svg" xmlns:xlink="http://www.w3.org/1999/xlink" width="31.549" height="35.968" viewBox="0 0 31.549 35.968"><defs><clipPath id="a"><rect width="31.549" height="35.968" fill="none"/></clipPath></defs><g transform="translate(0 0)"><g transform="translate(0 0)" clip-path="url(#a)"><path d="M2.992,17.68a.6.6,0,0,1-.43-1.016L6.147,12.99a3.549,3.549,0,0,1,2.53-1.066H20.115a2.389,2.389,0,1,1,0,4.778H14.053a.6.6,0,0,1,0-1.2h6.062a1.192,1.192,0,0,0,0-2.383H8.678A2.356,2.356,0,0,0,7,13.826L3.421,17.5a.6.6,0,0,1-.43.181" transform="translate(1.606 8.006)" fill="#0167ab"/><path d="M6.814,25.272a.6.6,0,0,1-.421-1.026L9.577,21.11a3.564,3.564,0,0,1,2.509-1.026H17.97a2.4,2.4,0,0,0,1.681-.7l6.169-6.172a1.226,1.226,0,0,0-1.735-1.733l-4.227,4.212a.6.6,0,0,1-.846-.849l4.225-4.212a2.426,2.426,0,1,1,3.431,3.431L20.5,20.236a3.614,3.614,0,0,1-2.529,1.046H12.085a2.377,2.377,0,0,0-1.668.682L7.235,25.1a.6.6,0,0,1-.421.172" transform="translate(4.172 6.663)" fill="#0167ab"/><path d="M10.233,26.639a2.505,2.505,0,0,1-1.775-.732L.737,18.185a2.514,2.514,0,0,1,1.773-4.29h0a2.492,2.492,0,0,1,1.777.737l7.721,7.721a2.509,2.509,0,0,1-1.777,4.285M2.512,15.1h0a1.313,1.313,0,0,0-.928,2.241L9.3,25.058a1.313,1.313,0,0,0,2.241-.929,1.3,1.3,0,0,0-.383-.926L3.441,15.479a1.3,1.3,0,0,0-.929-.384" transform="translate(0 9.329)" fill="#02a34d"/><path d="M24.884,16.3H6.6a3.152,3.152,0,0,1-3.149-3.149v-10A3.152,3.152,0,0,1,6.6,0H24.459a3.577,3.577,0,0,1,3.573,3.575v9.577A3.151,3.151,0,0,1,24.884,16.3M6.6,1.2a1.952,1.952,0,0,0-1.95,1.95v10A1.952,1.952,0,0,0,6.6,15.1H24.884a1.952,1.952,0,0,0,1.95-1.95V3.575A2.378,2.378,0,0,0,24.459,1.2Z" transform="translate(2.319 0.001)" fill="#02a34d"/><path d="M9.259,6.935H6.149a.6.6,0,1,1,0-1.2h3.11a.6.6,0,0,1,0,1.2" transform="translate(3.725 3.852)" fill="#02a34d"/><path d="M13.229,6.935H10.117a.6.6,0,1,1,0-1.2h3.112a.6.6,0,0,1,0,1.2" transform="translate(6.389 3.852)" fill="#02a34d"/><path d="M17.2,6.935H14.087a.6.6,0,1,1,0-1.2H17.2a.6.6,0,0,1,0,1.2" transform="translate(9.054 3.852)" fill="#02a34d"/><path d="M15.139,6.322a.6.6,0,0,1-.6-.6V2.2a.6.6,0,1,1,1.2,0v3.52a.6.6,0,0,1-.6.6" transform="translate(9.76 1.079)" fill="#0167ab"/><path d="M15.659,5.8a.6.6,0,0,1-.346-.109L13.74,4.578a.6.6,0,0,1,.692-.979L16,4.71A.6.6,0,0,1,15.659,5.8" transform="translate(9.053 2.343)" fill="#0167ab"/><path d="M15.083,5.869a.6.6,0,0,1-.313-1.111L16.66,3.61a.6.6,0,0,1,.623,1.026L15.4,5.782a.614.614,0,0,1-.313.087" transform="translate(9.723 2.366)" fill="#0167ab"/></g></g></svg>