<svg xmlns="http://www.w3.org/2000/svg" width="31.305" height="28" viewBox="0 0 31.305 28"><g transform="translate(-250.474 -1141.261)"><path d="M14.022,0A14,14,0,1,0,28,14.017,13.984,13.984,0,0,0,14.022,0" transform="translate(250.474 1141.261)" fill="#0167ab"/><path d="M34.882,36.7c-.6,0-1.2-.023-1.8.009a.768.768,0,0,1-.753-.407c-1.2-1.765-2.41-3.519-3.618-5.276-.331-.482-.332-.479-.7-.053-1.5,1.744-3.01,3.478-4.49,5.238a1.127,1.127,0,0,1-1.106.492c-.1-.015-.209.009-.31-.007a1.452,1.452,0,0,1-.258-.09,1.207,1.207,0,0,1,.116-.209q1.089-1.277,2.184-2.549,1.642-1.908,3.286-3.815c.347-.4.391-.3.032-.822q-2.69-3.917-5.378-7.835a5.348,5.348,0,0,1-.287-.536c.2-.017.4-.047.6-.048,1.1,0,2.2.028,3.295-.016a1.021,1.021,0,0,1,1,.546c1.07,1.6,2.171,3.181,3.261,4.768.082.12.176.232.248.357.113.2.206.129.317,0q.846-.994,1.7-1.983c.918-1.069,1.852-2.124,2.746-3.212a1.059,1.059,0,0,1,1.061-.461c.192.03.383.059.575.088a4.621,4.621,0,0,1-.3.449q-2.427,2.832-4.861,5.657a2.349,2.349,0,0,1-.206.232c-.249.223-.214.424-.03.689,1.44,2.075,2.865,4.16,4.295,6.242.516.751,1.034,1.5,1.544,2.255.172.255.15.292-.17.3-.663.007-1.326,0-1.99,0M24.7,21.873c-.1,0-.208-.006-.311,0-.221.017-.443.041-.664.062.109.195.2.4.329.583q4.246,6.087,8.5,12.168c.236.338.434.773.764.953a2.652,2.652,0,0,0,1.159.063c.246,0,.493-.025.739-.039a6.267,6.267,0,0,0-.363-.68q-4.3-6.163-8.611-12.317c-.689-.982-.324-.769-1.542-.795" transform="translate(234.999 1126.515)" fill="#fff"/><path d="M81.539,52.709a5.384,5.384,0,1,1-5.384-5.384,5.384,5.384,0,0,1,5.384,5.384" transform="translate(200.238 1107.669)" fill="#2c9539"/><path d="M76.317,62.422c.056-.1,1.873-2.9,1.873-2.9a.941.941,0,0,1,.906-.431.9.9,0,0,1,.4.153l1.493,1.107a.344.344,0,0,0,.413,0l1.951-1.489a.308.308,0,0,1,.413.035l.01.011a.272.272,0,0,1,.029.322s-1.566,2.554-1.816,2.968a.816.816,0,0,1-1.224.317l-1.606-1.164a.376.376,0,0,0-.45.007s-1.615,1.3-1.917,1.478c-.367.22-.654-.1-.473-.413" transform="translate(196.342 1099.527)" fill="#fffdff"/><rect width="31.305" height="28" transform="translate(250.474 1141.261)" fill="none"/></g></svg>