<svg xmlns="http://www.w3.org/2000/svg" xmlns:xlink="http://www.w3.org/1999/xlink" width="42.826" height="40.639" viewBox="0 0 42.826 40.639"><defs><clipPath id="a"><rect width="42.826" height="40.639" fill="none"/></clipPath></defs><g transform="translate(0 0)"><g transform="translate(0 0)" clip-path="url(#a)"><path d="M25.919,34.3a1.6,1.6,0,0,1-.3-.028,2.041,2.041,0,0,1-1.433-1.36L19.21,21.835q-1.324,1.3-2.623,2.591c.13,1.4.255,2.769.4,4.125a2.5,2.5,0,0,1-.81,2.2c-.255.235-.494.478-.737.725l-.425.429a2.055,2.055,0,0,1-1.794.721,1.987,1.987,0,0,1-1.4-1.3L11,29.531c-.555-1.223-1.109-2.441-1.692-3.652-1.429-.737-2.785-1.352-4.142-1.972l-1.445-.664a1.974,1.974,0,0,1-1.251-1.364,1.979,1.979,0,0,1,.66-1.733l.32-.3a4,4,0,0,1,4.2-1.66c.911.154,1.83.223,2.749.3l.3.024c.862-.858,1.717-1.725,2.583-2.607l-11.121-5A2.028,2.028,0,0,1,.834,9.482a2.032,2.032,0,0,1,.753-1.814L2.1,7.155c.352-.348.7-.692,1.04-1.057a2.55,2.55,0,0,1,2.247-.842L15.716,6.292c2.19.219,4.372.437,6.559.644,1.336-1.308,2.656-2.632,3.976-3.951L27,2.236A7.6,7.6,0,0,1,30.809.106a3.756,3.756,0,0,1,3.073.547,3.007,3.007,0,0,1,1.17,2.219,6.2,6.2,0,0,1-.239,2,7.119,7.119,0,0,1-1.968,3.239c-1.6,1.619-3.194,3.227-4.81,4.826l1.381,12.49c.15,1.478.3,2.951.417,4.433a2.649,2.649,0,0,1-.652,1.874c-.433.486-.895.939-1.356,1.393l-.385.372a2.187,2.187,0,0,1-1.522.8m-4.83-15.356.17.364,5.049,11.243c.239-.239.474-.482.7-.737-.178-1.182-.328-2.64-.478-4.093L25.246,13.037A2.475,2.475,0,0,1,26,10.875q2.4-2.387,4.773-4.8a4.37,4.37,0,0,0,1.235-1.931,3.635,3.635,0,0,0,.15-1.081c-.045-.109-.247-.211-.741-.117a4.692,4.692,0,0,0-2.368,1.348l-.745.741C26.935,6.4,25.566,7.774,24.182,9.126a2.352,2.352,0,0,1-1.9.725C20,9.64,17.716,9.41,15.425,9.179L5.081,8.142a3.481,3.481,0,0,1-.51.652L18.279,14.96l-2.255,2.291c-1.194,1.219-2.364,2.409-3.547,3.583a2.29,2.29,0,0,1-1.713.587l-.6-.045c-1-.081-1.992-.162-2.98-.324-.656-.1-.907-.032-1.045.105l.231.105c1.372.628,2.745,1.255,4.105,1.907a3.244,3.244,0,0,1,1.457,1.462c.579,1.215,1.146,2.457,1.708,3.7l.263.575c.1-.1.2-.186.3-.279a36.5,36.5,0,0,1-.53-4.17,2.044,2.044,0,0,1,.518-1.737c1.134-1.142,2.279-2.267,3.445-3.413l2.486-2.445.866,1.879-1.32.607Zm-4.838,5.818,0,0,0,0m-5.822-5.988,0,0,0,0M11,18.527h0ZM22.546,6.96h0Z" transform="translate(2.458 0)" fill="#02a34d"/><path d="M41.376,12.224H1.453a1.451,1.451,0,1,1,0-2.9H41.376a1.451,1.451,0,0,1,0,2.9" transform="translate(0 28.417)" fill="#0167ab"/></g></g></svg>