<svg xmlns="http://www.w3.org/2000/svg" width="30.09" height="41.54" viewBox="0 0 30.09 41.54"><g transform="translate(-839.583 -508.842)"><path d="M85.618,0A15.062,15.062,0,0,0,70.573,15.044c0,10.3,13.464,25.408,14.037,26.046a1.355,1.355,0,0,0,2.016,0c.573-.638,14.037-15.752,14.037-26.046A15.062,15.062,0,0,0,85.618,0Z" transform="translate(769.01 508.842)" fill="#0961ad"/><ellipse cx="9.928" cy="10.187" rx="9.928" ry="10.187" transform="translate(844.306 518.177)" fill="#fff"/><g transform="translate(841.438 512.996)"><g transform="translate(1.16 0.21)"><path d="M17.356,37.844c-1.039,0-2.332-.7-3.74-2.031a25.822,25.822,0,0,1-3.932-4.965,35.028,35.028,0,0,1-3.105-6.21,17.22,17.22,0,0,1-1.261-5.765,12.039,12.039,0,0,1,24.078,0,17.22,17.22,0,0,1-1.261,5.765,35.027,35.027,0,0,1-3.105,6.21A25.821,25.821,0,0,1,21.1,35.814C19.689,37.142,18.4,37.844,17.356,37.844ZM8.236,12.022V22.6a8.726,8.726,0,0,0,17.453,0V12.022Z" transform="translate(-5.318 -6.855)" fill="#0961ad"/></g><g transform="translate(0 0)"><ellipse cx="4.81" cy="4.81" rx="4.81" ry="4.81" transform="translate(0 1.374)" fill="#0961ad"/><ellipse cx="4.81" cy="4.81" rx="4.81" ry="4.81" transform="translate(7.986)" fill="#0961ad"/><ellipse cx="4.81" cy="4.81" rx="4.81" ry="4.81" transform="translate(15.972 1.374)" fill="#0961ad"/></g><g transform="translate(5.989 11.475)"><path d="M13.273,13.273h-1.35v-.159a5.412,5.412,0,0,0-10.823,0v.159H-.25v-.159a6.774,6.774,0,0,1,4.272-6.29,3.976,3.976,0,1,1,4.98,0,6.774,6.774,0,0,1,4.272,6.29ZM6.512,1.1A2.626,2.626,0,1,0,9.138,3.726,2.629,2.629,0,0,0,6.512,1.1Z" transform="translate(0.409 0.409)" fill="#0961ad"/><path d="M13.023,13.023A6.613,6.613,0,0,0,8.58,6.781a3.817,3.817,0,1,0-4.319,0A6.613,6.613,0,0,0-.182,13.023H.85a5.571,5.571,0,0,1,11.142,0h1.032M6.421.85A2.785,2.785,0,1,1,3.635,3.635,2.788,2.788,0,0,1,6.421.85m6.921,12.491H11.673v-.318a5.252,5.252,0,0,0-10.5,0v.318H-.5v-.318A6.937,6.937,0,0,1,3.631,6.685a4.135,4.135,0,1,1,5.579,0,6.936,6.936,0,0,1,4.131,6.337ZM6.421,1.168A2.467,2.467,0,1,0,8.888,3.635,2.47,2.47,0,0,0,6.421,1.168Z" transform="translate(0.5 0.5)" fill="#0961ad"/></g><g transform="translate(7.507 0.864)"><line x1="5.596" y2="3.534" transform="translate(0 0)" fill="none" stroke="#fff" stroke-linecap="round" stroke-width="3"/><line x2="5.596" y2="3.534" transform="translate(5.596 0)" fill="none" stroke="#fff" stroke-linecap="round" stroke-width="3"/></g></g></g></svg>