<svg xmlns="http://www.w3.org/2000/svg" width="40.066" height="50.382" viewBox="0 0 40.066 50.382"><g transform="translate(-252 -1701.607)"><g transform="translate(-729.129 742.309)"><path d="M3.153,19.2a.761.761,0,0,1-.546-1.291l4.551-4.665a4.519,4.519,0,0,1,3.216-1.354H24.9a3.035,3.035,0,1,1,0,6.071H17.2a.761.761,0,0,1,0-1.522h7.7a1.514,1.514,0,1,0,0-3.029H10.374a2.993,2.993,0,0,0-2.127.9L3.7,18.97a.76.76,0,0,1-.546.229" transform="translate(983.813 977.418)" fill="#0167ab"/><path d="M6.977,29.381a.753.753,0,0,1-.543-.225.764.764,0,0,1,.006-1.078l4.046-3.98a4.5,4.5,0,0,1,3.184-1.305h7.474a2.994,2.994,0,0,0,2.133-.885l7.837-7.837a1.558,1.558,0,0,0-2.2-2.2l-5.368,5.351a.76.76,0,1,1-1.072-1.078l5.364-5.351a3.082,3.082,0,0,1,4.358,4.36l-7.837,7.837a4.521,4.521,0,0,1-3.211,1.329H13.669a3.007,3.007,0,0,0-2.116.868l-4.041,3.98a.766.766,0,0,1-.535.219" transform="translate(988.104 975.173)" fill="#0167ab"/><path d="M12.992,30.046h0a3.168,3.168,0,0,1-2.252-.936l-9.806-9.8a3.19,3.19,0,0,1,4.511-4.513L15.251,24.6a3.19,3.19,0,0,1-2.258,5.447m-9.8-14.663a1.664,1.664,0,0,0-1.18,2.844l9.806,9.806a1.668,1.668,0,0,0,2.358,0,1.671,1.671,0,0,0,0-2.358L4.366,15.869a1.66,1.66,0,0,0-1.178-.486" transform="translate(981.129 979.634)" fill="#02a34d"/></g><g transform="translate(-690 721.971)"><g transform="translate(949 998.029)" fill="none" stroke="#00a34c" stroke-linecap="round" stroke-linejoin="round" stroke-width="1.5"><rect width="28" height="6" stroke="none"/><rect x="0.75" y="0.75" width="26.5" height="4.5" fill="none"/></g><line y1="10.849" transform="translate(953.219 987.756)" fill="none" stroke="#00a34c" stroke-linecap="round" stroke-width="1.5"/><line y1="10.849" transform="translate(972.506 987.756)" fill="none" stroke="#00a34c" stroke-linecap="round" stroke-width="1.5"/><path d="M8386,986.674h27.122V982.84l-13.876-3.536L8386,982.84Z" transform="translate(-7436.397 1.082)" fill="none" stroke="#00a34c" stroke-linecap="round" stroke-linejoin="round" stroke-width="1.5"/><line y2="10.849" transform="translate(956.835 987.756)" fill="none" stroke="#00a34c" stroke-linecap="round" stroke-width="1.5"/><line y2="10.849" transform="translate(968.89 987.756)" fill="none" stroke="#00a34c" stroke-linecap="round" stroke-width="1.5"/></g></g></svg>