<svg xmlns="http://www.w3.org/2000/svg" xmlns:xlink="http://www.w3.org/1999/xlink" width="40.066" height="45.608" viewBox="0 0 40.066 45.608"><defs><clipPath id="a"><rect width="40.066" height="45.608" fill="none"/></clipPath></defs><g transform="translate(0 0)"><g transform="translate(0 0)" clip-path="url(#a)"><path d="M17.065,3.952a.759.759,0,0,1-.76-.76V1.874a.353.353,0,0,0-.346-.354H9.521a.352.352,0,0,0-.346.354V3.192a.761.761,0,0,1-1.522,0V1.874A1.873,1.873,0,0,1,9.521,0h6.438a1.872,1.872,0,0,1,1.866,1.874V3.192a.759.759,0,0,1-.76.76" transform="translate(8.591 -0.001)" fill="#0167ab"/><path d="M24.805,15.758H7.57A2.885,2.885,0,0,1,4.7,12.869L4.617,5.225a.761.761,0,0,1,.754-.768h.008a.76.76,0,0,1,.76.751l.079,7.652A1.364,1.364,0,0,0,7.57,14.236H24.805a1.362,1.362,0,0,0,1.352-1.367V5.217a.761.761,0,0,1,1.522,0v7.652a2.885,2.885,0,0,1-2.874,2.889" transform="translate(5.183 5.003)" fill="#0167ab"/><path d="M3.153,19.2a.761.761,0,0,1-.546-1.291l4.551-4.665a4.519,4.519,0,0,1,3.216-1.354H24.9a3.035,3.035,0,1,1,0,6.071H17.2a.761.761,0,0,1,0-1.522h7.7a1.514,1.514,0,1,0,0-3.029H10.374a2.993,2.993,0,0,0-2.127.9L3.7,18.97a.76.76,0,0,1-.546.229" transform="translate(2.684 13.346)" fill="#0167ab"/><path d="M6.977,29.381a.753.753,0,0,1-.543-.225.764.764,0,0,1,.006-1.078l4.046-3.98a4.5,4.5,0,0,1,3.184-1.305h7.474a2.994,2.994,0,0,0,2.133-.885l7.837-7.837a1.558,1.558,0,0,0-2.2-2.2l-5.368,5.351a.76.76,0,1,1-1.072-1.078l5.364-5.351a3.082,3.082,0,0,1,4.358,4.36l-7.837,7.837a4.521,4.521,0,0,1-3.211,1.329H13.669a3.007,3.007,0,0,0-2.116.868l-4.041,3.98a.766.766,0,0,1-.535.219" transform="translate(6.975 11.101)" fill="#0167ab"/><path d="M12.992,30.046h0a3.168,3.168,0,0,1-2.252-.936l-9.806-9.8a3.19,3.19,0,0,1,4.511-4.513L15.251,24.6a3.19,3.19,0,0,1-2.258,5.447m-9.8-14.663a1.664,1.664,0,0,0-1.18,2.844l9.806,9.806a1.668,1.668,0,0,0,2.358,0,1.671,1.671,0,0,0,0-2.358L4.366,15.869a1.66,1.66,0,0,0-1.178-.486" transform="translate(0 15.562)" fill="#02a34d"/><path d="M21.552,13.651H11.074a6.609,6.609,0,0,1-6.6-6.6V4.813a3.673,3.673,0,0,1,3.67-3.668H24.483a3.673,3.673,0,0,1,3.67,3.668V7.05a6.607,6.607,0,0,1-6.6,6.6M8.141,2.667A2.147,2.147,0,0,0,5.993,4.813V7.05a5.084,5.084,0,0,0,5.082,5.079H21.552A5.082,5.082,0,0,0,26.631,7.05V4.813a2.147,2.147,0,0,0-2.148-2.146Z" transform="translate(5.019 1.285)" fill="#02a34d"/></g></g></svg>