<svg xmlns="http://www.w3.org/2000/svg" xmlns:xlink="http://www.w3.org/1999/xlink" width="31.229" height="27.405" viewBox="0 0 31.229 27.405"><defs><clipPath id="a"><rect width="31.229" height="27.405" fill="none"/></clipPath></defs><g transform="translate(0)"><g transform="translate(0 0)" clip-path="url(#a)"><path d="M27.405,13.7A13.7,13.7,0,1,1,13.7,0a13.7,13.7,0,0,1,13.7,13.7" transform="translate(0 0)" fill="#0167ab"/><path d="M32.791,22.631c0-.005,0-.01,0-.015a10.151,10.151,0,0,0-1.518-5.35c-.152-.245-.313-.483-.479-.7a10.229,10.229,0,0,0-7.578-4.1q-.3-.018-.6-.018a10.212,10.212,0,0,0-8.182,4.126c-.163.22-.32.45-.465.684a10.152,10.152,0,0,0-1.528,5.366c0,.005,0,.01,0,.015v.005s0,.008,0,.012a10.129,10.129,0,0,0,1.685,5.579c.094.142.194.279.294.415.005.007.008.015.013.022l.026.033c.07.094.144.185.217.276.053.066.1.133.159.2.091.108.186.213.281.317.037.041.073.082.111.122.118.124.239.245.363.363l.045.043a10.141,10.141,0,0,0,5.774,2.7c.053.006.107.009.16.015.144.015.288.03.434.039.2.012.407.019.612.019s.409-.007.612-.019c.146-.009.291-.024.436-.039.052-.005.1-.008.156-.014a10.14,10.14,0,0,0,5.78-2.706L29.616,30c.133-.126.264-.256.391-.391.03-.032.059-.065.089-.1.1-.112.205-.224.3-.341.05-.059.1-.121.145-.181.078-.1.156-.193.231-.293l.018-.023c0-.005.006-.011.01-.016.107-.145.212-.291.312-.442a10.129,10.129,0,0,0,1.675-5.564s0-.008,0-.012v-.005m-1.039-.506H27.234a21.314,21.314,0,0,0-.35-3.491,13.407,13.407,0,0,0,3.341-1.1c.06.09.12.181.178.274a9.116,9.116,0,0,1,1.348,4.32M29.32,28.842l-.064.07c-.106.111-.215.219-.326.325l-.026.025a9.224,9.224,0,0,1-3.976,2.2A10.234,10.234,0,0,0,26.665,27.6a12.862,12.862,0,0,1,2.934.932c-.09.106-.184.209-.278.31m-6.7,2.926c-1.13,0-2.345-1.656-3.035-4.346a21.524,21.524,0,0,1,6.07,0c-.69,2.688-1.905,4.344-3.035,4.344m-5.932-2.186c-.119-.1-.236-.206-.35-.314l-.06-.058c-.1-.095-.2-.192-.292-.291-.039-.041-.075-.083-.113-.125-.077-.084-.155-.168-.229-.255l-.009-.012a12.917,12.917,0,0,1,2.936-.929A10.232,10.232,0,0,0,20.3,31.465a9.227,9.227,0,0,1-3.614-1.88l0,0m5.925-3.4a22.407,22.407,0,0,0-3.252.233,20.089,20.089,0,0,1-.336-3.27H26.21a20.113,20.113,0,0,1-.336,3.272,22.374,22.374,0,0,0-3.265-.235m-3.589-4.06a20.128,20.128,0,0,1,.337-3.312,22.407,22.407,0,0,0,3.252.233,22.407,22.407,0,0,0,3.265-.234,20.116,20.116,0,0,1,.337,3.314Zm-3.156-5.684c.03-.033.059-.067.09-.1q.179-.189.368-.368l.065-.058c.1-.1.211-.193.32-.285.046-.038.093-.074.139-.112.087-.071.175-.141.264-.209.054-.041.11-.079.165-.118.084-.061.169-.121.255-.179.06-.039.12-.077.18-.115.085-.054.169-.107.255-.158.063-.037.128-.073.192-.109.086-.048.171-.095.258-.14.066-.034.133-.067.2-.1.087-.043.174-.084.263-.123q.1-.046.207-.09.133-.056.269-.108l.212-.078c.091-.032.183-.063.275-.092.072-.023.143-.046.215-.067s.162-.045.243-.066a10.239,10.239,0,0,0-1.735,3.866,12.922,12.922,0,0,1-2.936-.929c.076-.09.155-.177.234-.263M25.386,13.9c.092.029.184.06.275.092.071.025.141.051.211.078q.136.052.27.108c.069.029.138.058.206.089.089.04.177.081.265.124.066.032.133.065.2.1.088.045.175.093.261.141.063.035.126.07.188.106.088.052.174.106.26.16.059.037.118.074.176.112.089.059.176.121.262.183.053.038.106.074.158.113.094.07.185.143.276.217.043.035.086.068.128.1.115.1.226.2.336.3l.05.045q.189.178.368.368c.032.034.062.069.093.1.078.085.155.171.23.259a12.88,12.88,0,0,1-2.932.931,10.238,10.238,0,0,0-1.735-3.864c.081.021.162.042.242.065s.143.044.215.067m-2.77-.436c1.13,0,2.345,1.655,3.035,4.344a21.31,21.31,0,0,1-3.042.216,21.271,21.271,0,0,1-3.029-.214c.69-2.689,1.905-4.345,3.035-4.345M14.838,17.79c.054-.086.115-.168.172-.252a13.456,13.456,0,0,0,3.338,1.1A21.357,21.357,0,0,0,18,22.125H13.481a9.119,9.119,0,0,1,1.357-4.335m-1.355,5.357H18a21.307,21.307,0,0,0,.349,3.447A13.462,13.462,0,0,0,15,27.7l-.024-.034a9.1,9.1,0,0,1-1.5-4.514m16.779,4.5c-.012.018-.025.034-.037.052a13.411,13.411,0,0,0-3.34-1.1,21.3,21.3,0,0,0,.349-3.449h4.516a9.094,9.094,0,0,1-1.488,4.5" transform="translate(-8.913 -8.913)" fill="#fff"/><path d="M83.549,62.483a5.261,5.261,0,1,1-5.261-5.261,5.261,5.261,0,0,1,5.261,5.261" transform="translate(-52.319 -40.997)" fill="#2c9539"/><path d="M78.572,72.236c.054-.094,1.83-2.833,1.83-2.833a.92.92,0,0,1,.885-.421.879.879,0,0,1,.389.149l1.459,1.082a.336.336,0,0,0,.4,0l1.906-1.455a.3.3,0,0,1,.4.035l.01.011a.265.265,0,0,1,.028.314s-1.53,2.5-1.774,2.9a.8.8,0,0,1-1.2.31l-1.57-1.137a.368.368,0,0,0-.44.007s-1.579,1.268-1.873,1.444c-.358.215-.639-.1-.462-.4" transform="translate(-56.254 -49.215)" fill="#fffdff"/></g></g></svg>