<svg xmlns="http://www.w3.org/2000/svg" xmlns:xlink="http://www.w3.org/1999/xlink" width="51.25" height="17.572" viewBox="0 0 51.25 17.572"><defs><clipPath id="a"><rect width="51.25" height="17.572" fill="none"/></clipPath></defs><g transform="translate(0 0)"><g transform="translate(0 0)" clip-path="url(#a)"><path d="M43.7,16.252H7.409A7.568,7.568,0,0,1,.017,10.226.784.784,0,0,1,.627,9.3a.8.8,0,0,1,.927.612,6,6,0,0,0,5.855,4.774H43.7a5.979,5.979,0,1,0,0-11.959.785.785,0,0,1,0-1.569,7.548,7.548,0,0,1,0,15.1" transform="translate(0 1.319)" fill="#2d9539"/><path d="M22.525,6.781a.779.779,0,0,1-.612-.3L19.4,3.34,21.8.3a.784.784,0,1,1,1.229.974L21.4,3.336l1.738,2.171a.783.783,0,0,1-.612,1.274" transform="translate(22.127 -0.001)" fill="#2d9539"/><path d="M5.308,3.1H5.284l-1.4.706L3.638,2.715,5.5,1.8H6.708V9.441h-1.4Z" transform="translate(4.151 2.051)" fill="#00569e"/><path d="M7.661,9.51V8.628l.906-.835c1.8-1.67,2.646-2.588,2.659-3.6A1.2,1.2,0,0,0,9.86,2.912a2.77,2.77,0,0,0-1.633.636L7.8,2.525a3.779,3.779,0,0,1,2.353-.788,2.266,2.266,0,0,1,2.515,2.316c0,1.34-.963,2.423-2.293,3.657l-.67.578v.021h3.138v1.2Z" transform="translate(8.74 1.981)" fill="#00569e"/><path d="M12.462,8.018a3.785,3.785,0,0,0,1.741.471c1.107,0,1.552-.623,1.541-1.225,0-.9-.848-1.293-1.73-1.293h-.67V4.914h.647c.67,0,1.518-.308,1.518-1.07,0-.518-.387-.955-1.222-.955a3.069,3.069,0,0,0-1.565.484l-.33-1.047a4.123,4.123,0,0,1,2.2-.589c1.576,0,2.387.871,2.387,1.869a1.861,1.861,0,0,1-1.411,1.788v.026a1.929,1.929,0,0,1,1.683,1.905c0,1.293-1.083,2.316-2.976,2.316a4.187,4.187,0,0,1-2.141-.529Z" transform="translate(13.841 1.981)" fill="#00569e"/><path d="M15.137,5.489a.882.882,0,0,1,.893-.929.868.868,0,0,1,.895.929.895.895,0,1,1-1.788,0" transform="translate(17.269 5.202)" fill="#00569e"/><path d="M16.433,5.489a.882.882,0,0,1,.893-.929.868.868,0,0,1,.895.929.895.895,0,1,1-1.788,0" transform="translate(18.748 5.202)" fill="#00569e"/><path d="M17.73,5.489a.882.882,0,0,1,.893-.929.868.868,0,0,1,.895.929.895.895,0,1,1-1.788,0" transform="translate(20.227 5.202)" fill="#00569e"/></g></g></svg>