<?xml version="1.0" encoding="UTF-8"?>
<svg id="Grupo_162539" data-name="Grupo 162539" xmlns="http://www.w3.org/2000/svg" version="1.1" viewBox="0 0 20.6 27.1">
  <defs>
    <style>
      .cls-1 {
        fill: #00569e;
      }

      .cls-1, .cls-2 {
        stroke-width: 0px;
      }

      .cls-2 {
        fill: #2d9539;
      }
    </style>
  </defs>
  <g id="Grupo_162506" data-name="Grupo 162506">
    <path id="Trazado_84059" data-name="Trazado 84059" class="cls-1" d="M18.2,27.1H2.3c-1.3,0-2.3-1-2.3-2.3V2.3C0,1,1,0,2.3,0h15.9c1.3,0,2.3,1,2.3,2.3v22.4c0,1.3-1,2.3-2.3,2.3M2.3,1c-.7,0-1.3.6-1.3,1.3v22.4c0,.7.6,1.3,1.3,1.3h15.9c.7,0,1.3-.6,1.3-1.3V2.3c0-.7-.6-1.3-1.3-1.3H2.3Z"/>
    <path id="Trazado_84060" data-name="Trazado 84060" class="cls-2" d="M9.3,16.2H2.9c-.3,0-.5-.2-.5-.5h0v-6.5c0-.3.2-.5.5-.5h6.5c.3,0,.5.2.5.5h0v6.5c0,.3-.2.5-.5.5h0M3.4,15.3h5.5v-5.5H3.4v5.5Z"/>
    <path id="Trazado_84061" data-name="Trazado 84061" class="cls-2" d="M6.1,14.7c-.3,0-.5-.2-.5-.5,0,0,0,0,0,0v-3.3c0-.3.2-.5.5-.5s.5.2.5.5v3.3c0,.3-.2.5-.5.5h0"/>
    <path id="Trazado_84062" data-name="Trazado 84062" class="cls-2" d="M7.7,13.1h-3.3c-.3,0-.5-.2-.5-.5,0-.3.2-.5.5-.5h3.3c.3,0,.5.2.5.5,0,.3-.2.5-.5.5"/>
    <path id="Trazado_84063" data-name="Trazado 84063" class="cls-1" d="M17.6,16.2h-6.5c-.3,0-.5-.2-.5-.5v-6.5c0-.3.2-.5.5-.5h6.5c.3,0,.5.2.5.5h0v6.5c0,.3-.2.5-.5.5h0M11.7,15.3h5.5v-5.5h-5.5v5.5Z"/>
    <path id="Trazado_84064" data-name="Trazado 84064" class="cls-1" d="M16,13.1h-3.3c-.3,0-.5-.2-.5-.5,0-.3.2-.5.5-.5,0,0,0,0,0,0h3.3c.3,0,.5.2.5.5,0,.3-.2.5-.5.5"/>
    <path id="Trazado_84065" data-name="Trazado 84065" class="cls-1" d="M9.3,24.7H2.9c-.3,0-.5-.2-.5-.5v-6.5c0-.3.2-.5.5-.5,0,0,0,0,0,0h6.5c.3,0,.5.2.5.5,0,0,0,0,0,0v6.5c0,.3-.2.5-.5.5M3.4,23.8h5.5v-5.5H3.4v5.5Z"/>
    <path id="Trazado_84066" data-name="Trazado 84066" class="cls-1" d="M7.2,22.7c-.1,0-.3,0-.3-.1l-2.3-2.3c-.2-.2-.2-.5,0-.7.2-.2.5-.2.7,0h0l2.3,2.3c.2.2.2.5,0,.7,0,0-.2.1-.3.1"/>
    <path id="Trazado_84067" data-name="Trazado 84067" class="cls-1" d="M4.9,22.7c-.3,0-.5-.2-.5-.5,0-.1,0-.3.1-.3l2.3-2.3c.2-.2.5-.2.7,0,.2.2.2.5,0,.7l-2.3,2.3c0,0-.2.1-.3.1"/>
    <path id="Trazado_84068" data-name="Trazado 84068" class="cls-2" d="M17.6,24.7h-6.5c-.3,0-.5-.2-.5-.5v-6.5c0-.3.2-.5.5-.5h6.5c.3,0,.5.2.5.5,0,0,0,0,0,0v6.5c0,.3-.2.5-.5.5M11.7,23.8h5.5v-5.5h-5.5v5.5Z"/>
    <path id="Trazado_84069" data-name="Trazado 84069" class="cls-2" d="M13.2,22.7c-.3,0-.5-.2-.5-.5,0-.1,0-.3.1-.3l2.3-2.3c.2-.2.5-.2.7,0,.2.2.2.5,0,.7l-2.3,2.3c0,0-.2.1-.3.1"/>
    <path id="Trazado_84070" data-name="Trazado 84070" class="cls-1" d="M17.9,7.6c-.3,0-.5-.2-.5-.5v-3.9H3.2v3.9c0,.3-.2.5-.5.5s-.5-.2-.5-.5V2.9c0-.4.3-.7.7-.7h14.8c.4,0,.7.3.7.7v4.2c0,.3-.2.5-.5.5"/>
  </g>
</svg>