<svg xmlns="http://www.w3.org/2000/svg" xmlns:xlink="http://www.w3.org/1999/xlink" width="39.929" height="44.113" viewBox="0 0 39.929 44.113"><defs><clipPath id="a"><rect width="39.929" height="44.113" fill="none"/></clipPath></defs><g transform="translate(0 0)"><g transform="translate(0 0)" clip-path="url(#a)"><path d="M3.15,18.54a.758.758,0,0,1-.544-1.286L7.144,12.6a4.491,4.491,0,0,1,3.2-1.35H24.822a3.024,3.024,0,1,1,0,6.048H17.15a.758.758,0,0,1,0-1.517h7.672a1.508,1.508,0,1,0,0-3.016H10.347a2.981,2.981,0,0,0-2.117.893l-4.535,4.65a.757.757,0,0,1-.544.228" transform="translate(2.667 12.554)" fill="#0167ab"/><path d="M6.974,28.681a.75.75,0,0,1-.542-.224.761.761,0,0,1,.006-1.075l4.032-3.966a4.488,4.488,0,0,1,3.173-1.3h7.448a3.018,3.018,0,0,0,2.126-.88l7.81-7.812a1.553,1.553,0,1,0-2.2-2.2l-5.35,5.333a.758.758,0,1,1-1.068-1.075l5.345-5.333A3.072,3.072,0,0,1,32.1,14.5l-7.81,7.81a4.559,4.559,0,0,1-3.2,1.324H13.644a3,3,0,0,0-2.109.865L7.507,28.463a.763.763,0,0,1-.533.218" transform="translate(6.93 10.325)" fill="#0167ab"/><path d="M12.948,29.357h0a3.158,3.158,0,0,1-2.244-.933L.928,18.653a3.179,3.179,0,0,1,4.5-4.5L15.2,23.929a3.179,3.179,0,0,1-2.251,5.428M3.177,14.744A1.658,1.658,0,0,0,2,17.578l9.773,9.773a1.662,1.662,0,0,0,2.35,0,1.662,1.662,0,0,0,0-2.348L4.351,15.228a1.654,1.654,0,0,0-1.174-.484" transform="translate(0 14.756)" fill="#02a34d"/><path d="M16.438,21.094A10.547,10.547,0,1,1,26.985,10.549,10.556,10.556,0,0,1,16.438,21.094m0-19.578a9.03,9.03,0,1,0,9.033,9.033,9.041,9.041,0,0,0-9.033-9.033" transform="translate(6.573 0.001)" fill="#02a34d"/><path d="M11.277,12.141a.757.757,0,0,1-.757-.757V4.758a.757.757,0,1,1,1.515,0v6.625a.757.757,0,0,1-.757.757" transform="translate(11.733 4.461)" fill="#0167ab"/><path d="M12.731,3.5a1.213,1.213,0,1,0-1.212,1.212A1.212,1.212,0,0,0,12.731,3.5" transform="translate(11.494 2.553)" fill="#0167ab"/></g></g></svg>