<svg xmlns="http://www.w3.org/2000/svg" xmlns:xlink="http://www.w3.org/1999/xlink" width="52.427" height="47.463" viewBox="0 0 52.427 47.463"><defs><clipPath id="a"><rect width="52.427" height="47.463" fill="none"/></clipPath></defs><g transform="translate(0 0)"><g transform="translate(0 0)" clip-path="url(#a)"><path d="M12.061,3.684H2.087a.827.827,0,0,1-.825-.829V2.1a.824.824,0,0,1,.825-.825h9.974a.827.827,0,0,1,.829.825v.751a.83.83,0,0,1-.829.829" transform="translate(3.206 3.251)" fill="#0869ad"/><path d="M15.018,3.684H9.608a.83.83,0,0,1-.829-.829V2.1a.827.827,0,0,1,.829-.825h5.41a.827.827,0,0,1,.829.825v.751a.83.83,0,0,1-.829.829" transform="translate(22.305 3.251)" fill="#0869ad"/><path d="M17.525,3.684h-5.41a.83.83,0,0,1-.829-.829V2.1a.827.827,0,0,1,.829-.825h5.41a.827.827,0,0,1,.829.825v.751a.83.83,0,0,1-.829.829" transform="translate(28.674 3.251)" fill="#0869ad"/><path d="M12.512,3.684H7.1a.83.83,0,0,1-.829-.829V2.1A.827.827,0,0,1,7.1,1.28h5.41a.827.827,0,0,1,.829.825v.751a.83.83,0,0,1-.829.829" transform="translate(15.938 3.251)" fill="#0869ad"/><path d="M19.681,24.672a1.088,1.088,0,0,1-.772-.319L15.4,20.841l-3.155,3.133a1.088,1.088,0,0,1-1.8-.432L4.386,5.29a1.093,1.093,0,0,1,.269-1.115,1.082,1.082,0,0,1,1.119-.258l18.157,6.2a1.094,1.094,0,0,1,.418,1.806l-3.123,3.109,3.505,3.505a1.088,1.088,0,0,1,.319.772,1.073,1.073,0,0,1-.319.768L20.45,24.353A1.079,1.079,0,0,1,19.681,24.672ZM15.4,18.214a1.088,1.088,0,0,1,.772.319l3.509,3.509L22.418,19.3,18.913,15.8a1.086,1.086,0,0,1,0-1.544l2.656-2.641L7.147,6.685l4.808,14.5,2.677-2.659A1.1,1.1,0,0,1,15.4,18.214Z" transform="translate(11.006 9.799)" fill="#02a34d"/><path d="M48.214,47.463H4.207A4.211,4.211,0,0,1,0,43.256V4.206A4.209,4.209,0,0,1,4.207,0H48.214a4.209,4.209,0,0,1,4.206,4.206v39.05a4.211,4.211,0,0,1-4.206,4.206M4.207,2.539A1.671,1.671,0,0,0,2.536,4.206v39.05a1.674,1.674,0,0,0,1.671,1.671H48.214a1.674,1.674,0,0,0,1.668-1.671V4.206a1.671,1.671,0,0,0-1.668-1.668Z" transform="translate(0.003 -0.001)" fill="#0167ab"/><path d="M51.156,13.577H1.268a1.269,1.269,0,0,1,0-2.539H51.156a1.269,1.269,0,0,1,0,2.539" transform="translate(0 28.043)" fill="#0167ab"/></g></g></svg>