<svg xmlns="http://www.w3.org/2000/svg" xmlns:xlink="http://www.w3.org/1999/xlink" width="41.26" height="41.13" viewBox="0 0 41.26 41.13"><defs><clipPath id="a"><rect width="41.26" height="41.13" fill="none"/></clipPath></defs><g clip-path="url(#a)"><path d="M22.645,26.043a.781.781,0,0,1-.2-1.537A11.672,11.672,0,1,0,13.6,23.3a.782.782,0,0,1-.787,1.352,13.23,13.23,0,1,1,10.031,1.359.722.722,0,0,1-.2.028" transform="translate(8.555 0.001)" fill="#00569e"/><path d="M11.922,13.246a.84.84,0,0,1-.839-.839V2.553a.839.839,0,0,1,1.679,0v9.853a.84.84,0,0,1-.839.839" transform="translate(15.199 2.354)" fill="#2d9539"/><path d="M11.953,9.621a.84.84,0,0,1-.391-1.584l7-3.631A.841.841,0,1,1,19.34,5.9l-7,3.631a.871.871,0,0,1-.384.092" transform="translate(15.24 5.917)" fill="#2d9539"/><path d="M16.781,16.384a.747.747,0,0,1-.37-.1l-4.342-2.528,2.616-4.491a.74.74,0,0,1,1.278.745l-1.871,3.213,3.061,1.783a.738.738,0,0,1-.372,1.378" transform="translate(16.551 12.207)" fill="#00569e"/><path d="M22.285,36.393l-.062,0a12.346,12.346,0,0,1-6.147-1.835A34.468,34.468,0,0,1,7.744,27.3a43.633,43.633,0,0,1-5.091-7.079A21.288,21.288,0,0,1,.285,14.4,9.94,9.94,0,0,1,.693,8.342a7.627,7.627,0,0,1,7.5-4.883,2.945,2.945,0,0,1,1.838.434,3.331,3.331,0,0,1,1.326,1.885c.223.756.406,1.522.567,2.293.187.9.363,1.809.538,2.715l.287,1.475a1.951,1.951,0,0,1-.564,1.814,4.651,4.651,0,0,1-1.546.968l-.249.1c-.325.14-.652.28-.968.434-.1,0-.109.04-.081.209a7.794,7.794,0,0,0,.913,2.329l.149.292a18.732,18.732,0,0,0,6.137,6.946l.427.308a7.612,7.612,0,0,0,.752.51c.543.311.586.334.97-.268.306-.484.628-.956.968-1.411a2.654,2.654,0,0,1,.51-.493,1.956,1.956,0,0,1,1.987-.406,39.631,39.631,0,0,1,6.412,2.713A2.557,2.557,0,0,1,30.2,29.447a7.916,7.916,0,0,1-5.758,6.647,11.518,11.518,0,0,1-1.482.223ZM8.189,5.019A6.074,6.074,0,0,0,2.14,8.934a8.3,8.3,0,0,0-.327,5.125,19.823,19.823,0,0,0,2.2,5.395,42,42,0,0,0,4.916,6.823,32.911,32.911,0,0,0,7.954,6.941,10.851,10.851,0,0,0,5.333,1.61l.581-.066a10.589,10.589,0,0,0,1.288-.185,6.4,6.4,0,0,0,4.565-5.314c.123-1.039.1-1.081-.823-1.577a38.671,38.671,0,0,0-6.166-2.606.374.374,0,0,0-.41.055,2.912,2.912,0,0,0-.339.292c-.318.429-.619.87-.906,1.318a1.99,1.99,0,0,1-3.061.79,9.421,9.421,0,0,1-.9-.609l-.391-.28a20.34,20.34,0,0,1-6.64-7.522l-.147-.287a9.166,9.166,0,0,1-1.07-2.8,1.529,1.529,0,0,1,.932-1.85c.344-.171.7-.32,1.051-.472l.247-.1a3.188,3.188,0,0,0,1.048-.631.394.394,0,0,0,.142-.413l-.287-1.48c-.173-.9-.349-1.8-.534-2.692-.152-.73-.325-1.454-.534-2.17a1.776,1.776,0,0,0-.7-1.032,1.51,1.51,0,0,0-.97-.171" transform="translate(-0.001 4.735)" fill="#00569e"/></g></svg>