<svg xmlns="http://www.w3.org/2000/svg" xmlns:xlink="http://www.w3.org/1999/xlink" width="35.789" height="33.192" viewBox="0 0 35.789 33.192"><defs><clipPath id="a"><rect width="35.789" height="33.192" fill="none"/></clipPath></defs><g transform="translate(0 0)"><g transform="translate(0 0)" clip-path="url(#a)"><path d="M26.691,23.692H2.311V2.457h8.271a.9.9,0,0,1,0,1.809H4.118V21.885H24.884V4.266H18.271a.9.9,0,0,1,0-1.809h8.42Z" transform="translate(3.393 3.607)" fill="#2d9539"/><path d="M7.734,19.547a.813.813,0,0,1-.815-.812V.812a.815.815,0,0,1,1.629,0V18.735a.813.813,0,0,1-.815.812" transform="translate(10.159 -0.001)" fill="#00569e"/><path d="M10.54,11.8,5.25,7.612A.815.815,0,0,1,6.262,6.333l4.273,3.384L15.01,6.138a.813.813,0,1,1,1.017,1.269Z" transform="translate(7.257 8.748)" fill="#00569e"/><path d="M32.538,19.781H3.249L.042,10.206A.813.813,0,0,1,1.585,9.69l2.836,8.466H31.366L34.2,9.69a.813.813,0,0,1,1.543.516Z" transform="translate(0 13.41)" fill="#00569e"/></g></g></svg>