<svg xmlns="http://www.w3.org/2000/svg" xmlns:xlink="http://www.w3.org/1999/xlink" width="53.281" height="67.231" viewBox="0 0 53.281 67.231"><defs><clipPath id="a"><rect width="53.281" height="67.231" fill="none"/></clipPath></defs><g transform="translate(0 0)"><g transform="translate(0 0)" clip-path="url(#a)"><path d="M32.039,9.429H1.236a1.234,1.234,0,1,1,0-2.468h30.8a1.234,1.234,0,0,1,0,2.468" transform="translate(0 16.998)" fill="#0167ab"/><path d="M32.039,18.292H1.236a1.234,1.234,0,1,1,0-2.468h30.8a1.234,1.234,0,0,1,0,2.468" transform="translate(0 38.638)" fill="#0167ab"/><path d="M5.056,19.532h6.2a1.583,1.583,0,0,0,1.583-1.583v-6.2a1.583,1.583,0,0,0-1.583-1.583h-6.2a1.583,1.583,0,0,0-1.583,1.583v6.2a1.583,1.583,0,0,0,1.583,1.583" transform="translate(8.48 24.835)" fill="#02a34d"/><path d="M27.6,56.79H5.665A5.67,5.67,0,0,1,0,51.125V9.945A5.67,5.67,0,0,1,5.665,4.276H27.6a5.673,5.673,0,0,1,5.669,5.669v41.18A5.673,5.673,0,0,1,27.6,56.79M5.665,6.744a3.2,3.2,0,0,0-3.2,3.2v41.18a3.2,3.2,0,0,0,3.2,3.2H27.6a3.2,3.2,0,0,0,3.2-3.2V9.945a3.2,3.2,0,0,0-3.2-3.2Z" transform="translate(0 10.441)" fill="#0167ab"/><path d="M7.153,23.316a3.275,3.275,0,1,1,3.273-3.277,3.276,3.276,0,0,1-3.273,3.277m0-4.082a.8.8,0,0,0-.8.805c0,.888,1.607.888,1.607,0a.806.806,0,0,0-.805-.805" transform="translate(9.481 40.939)" fill="#0167ab"/><path d="M18.947,18.552h0a1.234,1.234,0,0,1-1.153-.792c-1.47-3.851-2.475-4.856-6.329-6.329a1.235,1.235,0,0,1,0-2.306c3.855-1.47,4.86-2.475,6.329-6.329a1.287,1.287,0,0,1,2.306,0c1.473,3.855,2.478,4.86,6.329,6.329a1.235,1.235,0,0,1,0,2.306C22.578,12.9,21.573,13.91,20.1,17.761a1.23,1.23,0,0,1-1.153.792m-4-8.274a8.991,8.991,0,0,1,4,4,9.025,9.025,0,0,1,4-4,8.991,8.991,0,0,1-4-4,8.957,8.957,0,0,1-4,4" transform="translate(26.06 5.083)" fill="#02a34d"/><path d="M12.174,11.96h0a1.029,1.029,0,0,1-.964-.664C10.191,8.629,9.5,7.933,6.825,6.911a1.03,1.03,0,0,1,0-1.927C9.5,3.965,10.191,3.27,11.21.6a1.079,1.079,0,0,1,1.931,0c1.022,2.674,1.717,3.369,4.381,4.388a1.03,1.03,0,0,1,0,1.927c-2.667,1.022-3.363,1.717-4.385,4.388a1.034,1.034,0,0,1-.967.661M9.665,5.948A6.45,6.45,0,0,1,12.174,8.46,6.513,6.513,0,0,1,14.69,5.948a6.5,6.5,0,0,1-2.516-2.509A6.441,6.441,0,0,1,9.665,5.948" transform="translate(15.043 0)" fill="#02a34d"/></g></g></svg>