<svg xmlns="http://www.w3.org/2000/svg" width="32.581" height="28" viewBox="0 0 32.581 28"><g transform="translate(-470.667 -1147)"><path d="M28,14A14,14,0,1,1,14.029,0,13.993,13.993,0,0,1,28,14M11.26,11.191V21.754h3.121c0-.213,0-.381,0-.549,0-1.694-.008-3.388,0-5.082a2.182,2.182,0,0,1,1.852-2.157,2.042,2.042,0,0,1,2.417,2.172c.021,1.709,0,3.419.007,5.128,0,.164.015.327.024.5h3.087a2.435,2.435,0,0,0,.038-.294c0-2.31.01-4.62-.017-6.929a3.786,3.786,0,0,0-.264-1.254c-1.074-2.856-5.3-2.765-6.732-1.183-.108.12-.217.238-.326.356l-.107-.048V11.191ZM6.252,21.764H9.364V11.2H6.252ZM9.7,7.715A1.9,1.9,0,1,0,7.816,9.644,1.893,1.893,0,0,0,9.7,7.715" transform="translate(470.667 1147)" fill="#0167ab"/><path d="M38.805,38.126h3.1v1.227l.107.048c.109-.118.218-.236.326-.356,1.429-1.583,5.657-1.674,6.732,1.183a3.786,3.786,0,0,1,.264,1.254c.027,2.31.017,4.619.017,6.929a2.42,2.42,0,0,1-.038.294H46.23c-.009-.176-.024-.34-.024-.5,0-1.709.014-3.419-.007-5.128A2.042,2.042,0,0,0,43.782,40.9a2.182,2.182,0,0,0-1.852,2.157c-.013,1.694,0,3.388,0,5.082,0,.168,0,.337,0,.549H38.805Z" transform="translate(443.122 1120.065)" fill="#fff"/><rect width="3.112" height="10.565" transform="translate(476.92 1158.199)" fill="#fff"/><path d="M24.128,21.919a1.908,1.908,0,0,1-1.885,1.929,1.919,1.919,0,1,1,1.885-1.929" transform="translate(456.239 1132.796)" fill="#fff"/><path d="M85.939,52.551a5.384,5.384,0,1,1-5.384-5.384,5.384,5.384,0,0,1,5.384,5.384" transform="translate(417.309 1113.52)" fill="#2c9539"/><path d="M80.717,62.264c.056-.1,1.873-2.9,1.873-2.9a.941.941,0,0,1,.906-.431.9.9,0,0,1,.4.153l1.493,1.107a.344.344,0,0,0,.413,0L87.751,58.7a.308.308,0,0,1,.413.035l.01.011a.272.272,0,0,1,.029.322s-1.565,2.554-1.816,2.968a.816.816,0,0,1-1.224.317l-1.606-1.164a.376.376,0,0,0-.45.007s-1.615,1.3-1.917,1.478c-.366.22-.654-.1-.473-.413" transform="translate(413.412 1105.377)" fill="#fffdff"/><rect width="32.581" height="28" transform="translate(470.667 1147)" fill="none"/></g></svg>