<svg xmlns="http://www.w3.org/2000/svg" xmlns:xlink="http://www.w3.org/1999/xlink" width="22.092" height="20" viewBox="0 0 22.092 20"><defs><clipPath id="a"><rect width="22.092" height="20" fill="#fff"/></clipPath></defs><g transform="translate(0 0)"><g transform="translate(0 0)" clip-path="url(#a)"><path d="M5.813,2.293H1.61a.348.348,0,0,1-.348-.349V1.628A.347.347,0,0,1,1.61,1.28h4.2a.348.348,0,0,1,.349.348v.316a.35.35,0,0,1-.349.349" transform="translate(0.621 0.629)" fill="#fff"/><path d="M11.408,2.293H9.128a.35.35,0,0,1-.349-.349V1.628a.348.348,0,0,1,.349-.348h2.28a.348.348,0,0,1,.349.348v.316a.35.35,0,0,1-.349.349" transform="translate(4.319 0.629)" fill="#fff"/><path d="M13.915,2.293h-2.28a.35.35,0,0,1-.349-.349V1.628a.348.348,0,0,1,.349-.348h2.28a.348.348,0,0,1,.349.348v.316a.35.35,0,0,1-.349.349" transform="translate(5.552 0.629)" fill="#fff"/><path d="M8.9,2.293H6.622a.35.35,0,0,1-.349-.349V1.628a.348.348,0,0,1,.349-.348H8.9a.348.348,0,0,1,.349.348v.316a.35.35,0,0,1-.349.349" transform="translate(3.086 0.629)" fill="#fff"/><path d="M10.8,12.628a.458.458,0,0,1-.325-.134l-1.48-1.48-1.329,1.32a.459.459,0,0,1-.759-.182L4.354,4.461a.461.461,0,0,1,.113-.47.456.456,0,0,1,.471-.109L12.59,6.493a.461.461,0,0,1,.176.761L11.45,8.564l1.477,1.477a.458.458,0,0,1,.134.325.452.452,0,0,1-.134.324l-1.8,1.8A.455.455,0,0,1,10.8,12.628ZM9,9.907a.458.458,0,0,1,.325.134L10.8,11.52l1.153-1.153L10.476,8.888a.457.457,0,0,1,0-.651L11.6,7.124,5.518,5.049,7.544,11.16l1.128-1.12A.462.462,0,0,1,9,9.907Z" transform="translate(2.131 1.897)" fill="#fff"/><path d="M20.317,20H1.773A1.775,1.775,0,0,1,0,18.228V1.772A1.774,1.774,0,0,1,1.773,0H20.317A1.774,1.774,0,0,1,22.09,1.772V18.228A1.775,1.775,0,0,1,20.317,20M1.773,1.07a.7.7,0,0,0-.7.7V18.228a.706.706,0,0,0,.7.7H20.317a.705.705,0,0,0,.7-.7V1.772a.7.7,0,0,0-.7-.7Z" transform="translate(0 0)" fill="#fff"/><path d="M21.556,12.108H.534a.535.535,0,0,1,0-1.07H21.556a.535.535,0,0,1,0,1.07" transform="translate(0 5.43)" fill="#fff"/></g></g></svg>