<svg xmlns="http://www.w3.org/2000/svg" xmlns:xlink="http://www.w3.org/1999/xlink" width="71.013" height="54.271" viewBox="0 0 71.013 54.271"><defs><clipPath id="a"><rect width="71.013" height="54.271" fill="#fff"/></clipPath></defs><g transform="translate(0 0)"><g transform="translate(0 0)" clip-path="url(#a)"><path d="M21.786,40.818V31.981H12.831a4.024,4.024,0,0,1-4.019-4.019V4.022A4.025,4.025,0,0,1,12.831,0H50.343a4.025,4.025,0,0,1,4.019,4.022v23.94a4.024,4.024,0,0,1-4.019,4.019H34.907ZM12.831,2.072a1.953,1.953,0,0,0-1.948,1.95v23.94a1.952,1.952,0,0,0,1.948,1.948H23.855v7.016l10.42-7.016H50.343a1.95,1.95,0,0,0,1.948-1.948V4.022a1.951,1.951,0,0,0-1.948-1.95Z" transform="translate(16.651 -0.001)" fill="#fff"/><path d="M32.58,45.474,19.455,36.632H4.019A4.023,4.023,0,0,1,0,32.615V8.675A4.024,4.024,0,0,1,4.019,4.656H22.772a1.036,1.036,0,1,1,0,2.072H4.019a1.953,1.953,0,0,0-1.95,1.948v23.94a1.953,1.953,0,0,0,1.95,1.948H20.088l10.42,7.016V34.563H41.531a1.95,1.95,0,0,0,1.948-1.948,1.036,1.036,0,1,1,2.072,0,4.023,4.023,0,0,1-4.019,4.016H32.58Z" transform="translate(0 8.797)" fill="#fff"/><path d="M16.886,9.637H4.154a1.036,1.036,0,1,1,0-2.072H16.886a1.036,1.036,0,0,1,0,2.072" transform="translate(5.89 14.294)" fill="#fff"/><path d="M16.886,11.175H4.154a1.036,1.036,0,1,1,0-2.072H16.886a1.036,1.036,0,0,1,0,2.072" transform="translate(5.89 17.2)" fill="#fff"/><path d="M16.886,12.713H4.154a1.036,1.036,0,1,1,0-2.072H16.886a1.036,1.036,0,0,1,0,2.072" transform="translate(5.89 20.106)" fill="#fff"/><path d="M28.536,14.251H4.154a1.036,1.036,0,1,1,0-2.072H28.536a1.036,1.036,0,0,1,0,2.072" transform="translate(5.89 23.012)" fill="#fff"/><path d="M19.778,19.241a1.033,1.033,0,0,1-1.034-1.034V15.02a4.6,4.6,0,0,1,1.341-3.239l1.826-1.829a2.784,2.784,0,0,0,.824-1.985V6.915a2.807,2.807,0,0,0-5.614,0v1.2a1.036,1.036,0,1,1-2.072,0v-1.2a4.879,4.879,0,0,1,9.758,0V7.966a4.862,4.862,0,0,1-1.427,3.45l-1.829,1.832a2.512,2.512,0,0,0-.737,1.771v3.187a1.033,1.033,0,0,1-1.034,1.034" transform="translate(28.434 3.848)" fill="#fff"/><path d="M17.656,11.85a1.722,1.722,0,0,0,0-3.441,1.722,1.722,0,0,0,0,3.441" transform="translate(30.223 15.889)" fill="#fff"/></g></g></svg>