<svg xmlns="http://www.w3.org/2000/svg" xmlns:xlink="http://www.w3.org/1999/xlink" width="35.168" height="40.239" viewBox="0 0 35.168 40.239"><defs><clipPath id="a"><rect width="35.168" height="40.239" fill="none"/></clipPath></defs><g transform="translate(0 0)"><g transform="translate(0 0)" clip-path="url(#a)"><path d="M3.028,19.2a.636.636,0,0,1-.456-1.078l3.8-3.9a3.773,3.773,0,0,1,2.687-1.132H21.2a2.536,2.536,0,0,1,0,5.073H14.767a.636.636,0,1,1,0-1.272H21.2a1.266,1.266,0,0,0,0-2.531H9.062a2.5,2.5,0,0,0-1.775.748l-3.8,3.9a.635.635,0,0,1-.456.192" transform="translate(1.851 10.126)" fill="#00569e"/><path d="M6.851,27.376a.628.628,0,0,1-.452-.188.635.635,0,0,1,.007-.9l3.379-3.326a3.763,3.763,0,0,1,2.661-1.091h6.243a2.506,2.506,0,0,0,1.784-.74l6.55-6.548a1.3,1.3,0,1,0-1.843-1.841l-4.486,4.471a.636.636,0,1,1-.9-.9l4.486-4.471a2.574,2.574,0,1,1,3.638,3.643l-6.548,6.548a3.768,3.768,0,0,1-2.684,1.11H12.445a2.506,2.506,0,0,0-1.768.725L7.3,27.193a.627.627,0,0,1-.445.183" transform="translate(4.808 8.58)" fill="#00569e"/><path d="M10.86,28.575a2.648,2.648,0,0,1-1.885-.782L.782,19.6a2.663,2.663,0,0,1,0-3.771,2.728,2.728,0,0,1,3.769,0l8.193,8.191a2.666,2.666,0,0,1-1.884,4.551M2.666,16.323a1.393,1.393,0,0,0-.984,2.38l8.193,8.191a1.423,1.423,0,0,0,1.971,0v0a1.376,1.376,0,0,0,.408-.984,1.39,1.39,0,0,0-.408-.986L3.652,16.73a1.383,1.383,0,0,0-.986-.408" transform="translate(0 11.664)" fill="#2d9539"/><path d="M26.2,18.465H6.8a3.345,3.345,0,0,1-3.342-3.342V4.506A3.345,3.345,0,0,1,6.8,1.166H20.767a.636.636,0,1,1,0,1.272H6.8a2.071,2.071,0,0,0-2.07,2.068V15.123a2.071,2.071,0,0,0,2.07,2.07H26.2a2.072,2.072,0,0,0,2.07-2.07V8.99a.635.635,0,1,1,1.27,0v6.133a3.344,3.344,0,0,1-3.34,3.342" transform="translate(2.672 0.902)" fill="#2d9539"/><path d="M9.486,8.174h-3.3a.636.636,0,1,1,0-1.272h3.3a.636.636,0,0,1,0,1.272" transform="translate(4.292 5.34)" fill="#2d9539"/><path d="M13.456,8.174h-3.3a.636.636,0,1,1,0-1.272h3.3a.636.636,0,0,1,0,1.272" transform="translate(7.364 5.34)" fill="#2d9539"/><path d="M17.426,8.174h-3.3a.636.636,0,1,1,0-1.272h3.3a.636.636,0,0,1,0,1.272" transform="translate(10.435 5.34)" fill="#2d9539"/><path d="M18.349,8.223,14.736,4.782a.637.637,0,0,1,.878-.922l2.579,2.458L22.778.252a.636.636,0,0,1,1.015.766Z" transform="translate(11.248 0)" fill="#2d9539"/></g></g></svg>