<svg xmlns="http://www.w3.org/2000/svg" xmlns:xlink="http://www.w3.org/1999/xlink" width="25.617" height="23.177" viewBox="0 0 25.617 23.177"><defs><clipPath id="a"><rect width="25.617" height="23.177" fill="none"/></clipPath></defs><g clip-path="url(#a)"><path d="M23.634,23.177H1.983A1.985,1.985,0,0,1,0,21.194V1.983A1.985,1.985,0,0,1,1.983,0H23.634a1.985,1.985,0,0,1,1.983,1.983V21.194a1.985,1.985,0,0,1-1.983,1.983M1.983,1.076a.908.908,0,0,0-.907.907V21.194a.908.908,0,0,0,.907.907H23.634a.908.908,0,0,0,.907-.907V1.983a.908.908,0,0,0-.907-.907Z" fill="#fff"/><rect width="24.542" height="1.076" transform="translate(0.538 19.227)" fill="#fff"/><path d="M67.309,58.313a2.913,2.913,0,1,1,.161,0c-.054,0-.107,0-.161,0m.006-4.746-.1,0a1.831,1.831,0,1,0,.1,0" transform="translate(-54.504 -44.424)" fill="#fff"/><path d="M67.474,88.8H66.4v-.587a2.445,2.445,0,1,0-4.89,0V88.8H60.432v-.587a3.521,3.521,0,1,1,7.042,0Z" transform="translate(-51.144 -71.677)" fill="#fff"/><path d="M46.408,46.057a6.707,6.707,0,1,1,6.707-6.707,6.715,6.715,0,0,1-6.707,6.707m0-12.338A5.631,5.631,0,1,0,52.04,39.35a5.638,5.638,0,0,0-5.631-5.631" transform="translate(-33.599 -27.626)" fill="#fff"/><path d="M71.048,4.466a2.233,2.233,0,1,1,2.233-2.233,2.235,2.235,0,0,1-2.233,2.233m0-3.39A1.157,1.157,0,1,0,72.2,2.233a1.158,1.158,0,0,0-1.157-1.157" transform="translate(-58.239)" fill="#fff"/></g></svg>