<svg xmlns="http://www.w3.org/2000/svg" xmlns:xlink="http://www.w3.org/1999/xlink" width="29.196" height="46.082" viewBox="0 0 29.196 46.082"><defs><clipPath id="a"><rect width="29.196" height="46.082" fill="#fff"/></clipPath></defs><g transform="translate(0 0)"><g transform="translate(0 0)" clip-path="url(#a)"><path d="M28.115,4.85H1.084a1.083,1.083,0,1,1,0-2.165H28.115a1.083,1.083,0,0,1,0,2.165" transform="translate(0 5.425)" fill="#fff"/><path d="M28.115,13.713H1.084a1.083,1.083,0,1,1,0-2.165H28.115a1.083,1.083,0,0,1,0,2.165" transform="translate(0 23.33)" fill="#fff"/><path d="M4.862,14.11H10.3a1.389,1.389,0,0,0,1.389-1.389V7.284A1.389,1.389,0,0,0,10.3,5.9H4.862A1.389,1.389,0,0,0,3.473,7.284v5.436A1.389,1.389,0,0,0,4.862,14.11" transform="translate(7.016 11.91)" fill="#fff"/><path d="M24.222,46.082H4.971A4.975,4.975,0,0,1,0,41.111V4.974A4.976,4.976,0,0,1,4.971,0H24.222A4.979,4.979,0,0,1,29.2,4.974V41.111a4.978,4.978,0,0,1-4.974,4.971M4.971,2.165A2.811,2.811,0,0,0,2.162,4.974V41.111a2.811,2.811,0,0,0,2.809,2.806H24.222a2.811,2.811,0,0,0,2.809-2.806V4.974a2.811,2.811,0,0,0-2.809-2.809Z" transform="translate(0 0.001)" fill="#fff"/><path d="M6.752,18.237a2.874,2.874,0,1,1,2.872-2.875,2.875,2.875,0,0,1-2.872,2.875m0-3.582a.705.705,0,0,0-.7.707c0,.779,1.41.779,1.41,0a.708.708,0,0,0-.707-.707" transform="translate(7.844 25.233)" fill="#fff"/></g></g></svg>