<svg xmlns="http://www.w3.org/2000/svg" width="30.09" height="41.776" viewBox="0 0 30.09 41.776"><g transform="translate(-904.583 -508.842)"><path d="M85.618,0A15.1,15.1,0,0,0,70.573,15.129c0,10.354,13.464,25.553,14.037,26.194a1.35,1.35,0,0,0,2.016,0c.573-.642,14.037-15.841,14.037-26.194A15.1,15.1,0,0,0,85.618,0Z" transform="translate(834.01 508.842)" fill="#00a44f"/><g transform="translate(909.113 512.355)"><g transform="translate(0 0)"><g transform="translate(0 0)"><path d="M19.646,42.718H2.959a.968.968,0,0,0,0,1.936H19.646a.968.968,0,0,0,0-1.936Z" transform="translate(-0.749 -22.548)" fill="#fff"/><path d="M3.628,25.489a.968.968,0,0,0,0,1.937H20.413a.968.968,0,0,0,0-1.937h-.239V16.778h.24a.483.483,0,0,0,0-.967H3.628a.483.483,0,0,0,0,.967h.24v8.711h-.24Zm14.627-8.711v8.711H15.377V16.778Zm-4.8,0v8.711H10.581V16.778Zm-7.673,0H8.663v8.711H5.786Z" transform="translate(-1.467 -8.465)" fill="#fff"/><path d="M.965,6.294h19.21a.969.969,0,0,0,.312-1.884s-8.674-4-9.2-4.216a1.433,1.433,0,0,0-1.446,0L.571,4.446A.969.969,0,0,0,.965,6.294Z" transform="translate(-0.012 0.002)" fill="#fff"/></g></g></g></g></svg>