<svg xmlns="http://www.w3.org/2000/svg" width="30.09" height="41.539" viewBox="0 0 30.09 41.539"><g transform="translate(-969.583 -508.842)"><path d="M85.618,0A15.062,15.062,0,0,0,70.573,15.044c0,10.295,13.464,25.408,14.037,26.046a1.355,1.355,0,0,0,2.016,0c.573-.638,14.037-15.752,14.037-26.046A15.062,15.062,0,0,0,85.618,0Z" transform="translate(899.01 508.842)" fill="#0961ad"/><g transform="translate(973.711 513.952)"><g transform="translate(0)"><path d="M10.767,0A10.767,10.767,0,1,0,21.535,10.767,10.768,10.768,0,0,0,10.767,0Zm0,2.691a8.069,8.069,0,0,1,7.581,5.386H3.185a8.069,8.069,0,0,1,7.582-5.386ZM2.689,10.769c3.678,0,6.656,3.543,6.719,7.939a8.073,8.073,0,0,1-6.717-7.941Zm9.432,7.939c.063-4.395,3.041-7.939,6.719-7.939a8.073,8.073,0,0,1-6.717,7.936Z" transform="translate(0.001)" fill="#fff"/></g></g></g></svg>