<svg xmlns="http://www.w3.org/2000/svg" xmlns:xlink="http://www.w3.org/1999/xlink" width="34.291" height="54.124" viewBox="0 0 34.291 54.124"><defs><clipPath id="a"><rect width="34.291" height="54.124" fill="none"/></clipPath></defs><g transform="translate(0 0)"><g transform="translate(0 0)" clip-path="url(#a)"><path d="M33.021,5.228H1.273a1.272,1.272,0,1,1,0-2.543H33.021a1.272,1.272,0,0,1,0,2.543" transform="translate(0 6.84)" fill="#0167ab"/><path d="M33.021,14.091H1.273a1.272,1.272,0,1,1,0-2.543H33.021a1.272,1.272,0,0,1,0,2.543" transform="translate(0 29.416)" fill="#0167ab"/><path d="M5.1,15.543H11.49a1.632,1.632,0,0,0,1.632-1.632V7.527A1.632,1.632,0,0,0,11.49,5.9H5.1A1.632,1.632,0,0,0,3.473,7.527v6.385A1.632,1.632,0,0,0,5.1,15.543" transform="translate(8.847 15.017)" fill="#02a34d"/><path d="M28.449,54.124H5.839A5.844,5.844,0,0,1,0,48.285V5.842A5.844,5.844,0,0,1,5.839,0h22.61a5.847,5.847,0,0,1,5.842,5.842V48.285a5.847,5.847,0,0,1-5.842,5.839M5.839,2.543a3.3,3.3,0,0,0-3.3,3.3V48.285a3.3,3.3,0,0,0,3.3,3.3h22.61a3.3,3.3,0,0,0,3.3-3.3V5.842a3.3,3.3,0,0,0-3.3-3.3Z" transform="translate(0 0.001)" fill="#0167ab"/><path d="M7.253,19.24a3.375,3.375,0,1,1,3.373-3.377A3.377,3.377,0,0,1,7.253,19.24m0-4.207a.828.828,0,0,0-.827.83c0,.915,1.657.915,1.657,0a.831.831,0,0,0-.83-.83" transform="translate(9.891 31.816)" fill="#0167ab"/></g></g></svg>