<svg xmlns="http://www.w3.org/2000/svg" xmlns:xlink="http://www.w3.org/1999/xlink" width="94" height="35.104" viewBox="0 0 94 35.104"><defs><clipPath id="a"><rect width="94" height="35.104" fill="none"/></clipPath></defs><g transform="translate(0 0)"><g transform="translate(0 0)" clip-path="url(#a)"><path d="M72.9,27.911H12.552a12.551,12.551,0,1,1,0-25.1H68.194a1.3,1.3,0,0,1,0,2.609H12.552a9.943,9.943,0,1,0,0,19.886H72.9a9.974,9.974,0,0,0,9.74-7.939,1.306,1.306,0,0,1,2.56.523A12.6,12.6,0,0,1,72.9,27.911" transform="translate(0 7.192)" fill="#02a34d"/><path d="M11.377,9.4a4.341,4.341,0,1,0-4.34,4.34,4.341,4.341,0,0,0,4.34-4.34" transform="translate(6.896 12.955)" fill="#0167ab"/><path d="M15.367,9.4a4.341,4.341,0,1,0-4.34,4.34,4.341,4.341,0,0,0,4.34-4.34" transform="translate(17.111 12.955)" fill="#0167ab"/><path d="M19.358,9.4a4.341,4.341,0,1,0-4.34,4.34,4.341,4.341,0,0,0,4.34-4.34" transform="translate(27.327 12.955)" fill="#0167ab"/><path d="M23.348,9.4a4.341,4.341,0,1,0-4.34,4.34,4.341,4.341,0,0,0,4.34-4.34" transform="translate(37.541 12.955)" fill="#0167ab"/><path d="M35.046,15.485H20.333V2.356H35.046ZM22.038,13.78H33.345V4.058H22.038Z" transform="translate(52.051 6.03)" fill="#02a34d"/><path d="M33.162,9.594a.851.851,0,0,1-.851-.851V5.29a3.588,3.588,0,0,0-7.177,0V8.743a.851.851,0,1,1-1.7,0V5.29a5.29,5.29,0,0,1,10.58,0V8.743a.851.851,0,0,1-.851.851" transform="translate(59.987 -0.001)" fill="#02a34d"/></g></g></svg>