<svg xmlns="http://www.w3.org/2000/svg" width="97.023" height="28.738" viewBox="0 0 97.023 28.738"><g transform="translate(0)"><path d="M8.108,17.479c-1.344,0-2.316-1.4-3.031-2.431C3.333,12.5,2.332,8.3,3.933,5.526A4.763,4.763,0,0,1,7.908,3.1h0a5.284,5.284,0,0,1,2,.486,3.069,3.069,0,0,0,1.058.315,3.213,3.213,0,0,0,1-.315,5.951,5.951,0,0,1,2.2-.572h.315a4.443,4.443,0,0,1,3.546,1.944l.143.229-.229.143a3.932,3.932,0,0,0-1.859,3.288,3.741,3.741,0,0,0,2.288,3.46l.2.086-.057.229A10.2,10.2,0,0,1,17.2,15.077c-.686,1.029-1.544,2.345-3,2.373h0a3.955,3.955,0,0,1-1.516-.343,3.286,3.286,0,0,0-1.516-.372,3.575,3.575,0,0,0-1.6.372,3.862,3.862,0,0,1-1.4.372H8.08Z" transform="translate(5.817 5.597)" fill="#fff"/><path d="M6.154,6.227h-.4V6A4.2,4.2,0,0,1,6.783,2.967,4.329,4.329,0,0,1,9.671,1.48h.257v.229a4.309,4.309,0,0,1-1,3.117,3.8,3.8,0,0,1-2.745,1.4h0Z" transform="translate(10.659 2.752)" fill="#fff"/><path d="M17.135,14.574l-.886-2.831H13.532l-.858,2.831H10.53L13.79,4.48h2.259l3.26,10.094ZM15.82,10.056l-.686-2.173c-.057-.143-.143-.458-.257-.858-.057.257-.143.543-.229.858l-.686,2.173Z" transform="translate(19.58 8.331)" fill="#fff"/><path d="M13.9,15.721V8.029c0-.743,0-1.487-.057-2.259V5.513H15.7l.057.686A2.909,2.909,0,0,1,17.9,5.37a2.874,2.874,0,0,1,2.23,1.058,4.135,4.135,0,0,1,.886,2.717,4.107,4.107,0,0,1-1.029,2.945,3.094,3.094,0,0,1-2.316,1,2.666,2.666,0,0,1-1.744-.572v3.2H13.9Zm3.489-8.636a1.379,1.379,0,0,0-.858.315,1.552,1.552,0,0,0-.515.858,1.116,1.116,0,0,0-.057.4V9.8a1.59,1.59,0,0,0,.4,1.087,1.257,1.257,0,0,0,1,.429,1.3,1.3,0,0,0,1.144-.572,2.721,2.721,0,0,0,.429-1.6,2.709,2.709,0,0,0-.4-1.516,1.357,1.357,0,0,0-1.115-.572Z" transform="translate(25.735 9.986)" fill="#fff"/><path d="M16.667,15.721V8.029c0-.743,0-1.487-.057-2.259V5.513h1.859l.057.686A2.909,2.909,0,0,1,20.67,5.37,2.787,2.787,0,0,1,22.9,6.428a4.135,4.135,0,0,1,.886,2.717,4.107,4.107,0,0,1-1.029,2.945,3.094,3.094,0,0,1-2.316,1,2.534,2.534,0,0,1-1.716-.572v3.2Zm3.489-8.636A1.379,1.379,0,0,0,19.3,7.4a1.552,1.552,0,0,0-.515.858,3.28,3.28,0,0,0-.057.4V9.8a1.466,1.466,0,0,0,.4,1.087,1.408,1.408,0,0,0,2.145-.143,2.721,2.721,0,0,0,.429-1.6,2.709,2.709,0,0,0-.4-1.516,1.357,1.357,0,0,0-1.115-.572Z" transform="translate(30.886 9.986)" fill="#fff"/><path d="M22.742,14.791a5.187,5.187,0,0,1-2.631-.629l-.172-.086.486-1.8.286.172a4.014,4.014,0,0,0,2.087.572,1.739,1.739,0,0,0,1.172-.343.993.993,0,0,0,.372-.829,1.174,1.174,0,0,0-.315-.8,3.4,3.4,0,0,0-1.23-.686C21.027,9.7,20.112,8.7,20.112,7.385a2.712,2.712,0,0,1,.972-2.145,3.744,3.744,0,0,1,2.516-.8,4.928,4.928,0,0,1,2.288.486l.2.086-.543,1.773-.286-.143a3.716,3.716,0,0,0-1.716-.429,1.6,1.6,0,0,0-1.087.343.848.848,0,0,0-.286.686.831.831,0,0,0,.343.715,3.872,3.872,0,0,0,1.315.686,5.04,5.04,0,0,1,1.916,1.23A2.762,2.762,0,0,1,26.4,11.7a2.755,2.755,0,0,1-.944,2.173,4.053,4.053,0,0,1-2.774.915Z" transform="translate(37.078 8.256)" fill="#fff"/><path d="M25.524,14.122a2.152,2.152,0,0,1-1.6-.629,2.874,2.874,0,0,1-.572-2.03V8.26h-1V6.6h1V5.4l2.03-.6V6.6h1.687V8.26H25.381v3.088c0,1.029.429,1.029.629,1.029a1.77,1.77,0,0,0,.6-.057l.315-.086.057,1.659-.172.086a4.122,4.122,0,0,1-1.287.172Z" transform="translate(41.56 8.926)" fill="#fff"/><path d="M27.7,13.081a3.427,3.427,0,0,1-2.631-1.087A3.863,3.863,0,0,1,24.1,9.278a4,4,0,0,1,1-2.8A3.53,3.53,0,0,1,27.789,5.36,3.385,3.385,0,0,1,30.42,6.447a3.928,3.928,0,0,1,.944,2.717,4.1,4.1,0,0,1-.972,2.774,3.461,3.461,0,0,1-2.717,1.144Zm.057-6.062a1.27,1.27,0,0,0-1.172.686,2.943,2.943,0,0,0-.372,1.544,2.671,2.671,0,0,0,.372,1.487,1.276,1.276,0,0,0,1.172.715,1.236,1.236,0,0,0,1.144-.715,2.921,2.921,0,0,0,.4-1.516A3.211,3.211,0,0,0,28.933,7.7a1.289,1.289,0,0,0-1.144-.686Z" transform="translate(44.814 9.967)" fill="#fff"/><path d="M26.959,12.919V7.944c0-.772,0-1.516-.029-2.145V5.513h1.83v.715a3.251,3.251,0,0,1,.458-.429,2.154,2.154,0,0,1,1.258-.429h.658V7.4l-.286-.057s-.286-.029-.429-.029a1.239,1.239,0,0,0-1.058.515,1.99,1.99,0,0,0-.343,1.2v3.889Z" transform="translate(50.076 9.986)" fill="#fff"/><path d="M32.159,13.052a3.6,3.6,0,0,1-2.717-1.029,3.769,3.769,0,0,1-.972-2.717,4.13,4.13,0,0,1,.915-2.745,3.151,3.151,0,0,1,2.6-1.2,2.741,2.741,0,0,1,2.459,1.23A4.021,4.021,0,0,1,35.1,8.906a2.907,2.907,0,0,1-.057.743v.2H30.472a1.73,1.73,0,0,0,.543,1.115,2,2,0,0,0,1.344.429,4.449,4.449,0,0,0,1.773-.315l.286-.114.343,1.573-.2.086a6.244,6.244,0,0,1-2.431.458Zm.972-4.8a1.385,1.385,0,0,0-.257-.772,1.076,1.076,0,0,0-1-.515,1.172,1.172,0,0,0-1,.515,1.886,1.886,0,0,0-.343.772H33.16Z" transform="translate(52.94 9.967)" fill="#fff"/><path d="M13.374,6.949a2.526,2.526,0,0,1-1.859-.686A2.635,2.635,0,0,1,10.8,4.347a2.738,2.738,0,0,1,.772-2,2.679,2.679,0,0,1,1.944-.715,2.714,2.714,0,0,1,1.2.229l.172.114L14.575,3.06l-.286-.114a1.7,1.7,0,0,0-.772-.172,1.383,1.383,0,0,0-1.029.372,1.661,1.661,0,0,0-.4,1.172,1.577,1.577,0,0,0,.372,1.144,1.3,1.3,0,0,0,1.029.372,2.273,2.273,0,0,0,.829-.143l.286-.143.257,1.115-.2.086a3.142,3.142,0,0,1-1.287.229Z" transform="translate(20.082 3.031)" fill="#fff"/><path d="M14.217,6.131a1.788,1.788,0,0,1-1.373-.572,2.041,2.041,0,0,1-.515-1.43,2.114,2.114,0,0,1,.515-1.458,1.8,1.8,0,0,1,1.43-.6,1.852,1.852,0,0,1,1.4.572,1.951,1.951,0,0,1,.486,1.4A2.114,2.114,0,0,1,15.647,5.5a1.878,1.878,0,0,1-1.43.6Zm.029-3a.531.531,0,0,0-.486.286,1.359,1.359,0,0,0-.172.686,1.185,1.185,0,0,0,.172.658.509.509,0,0,0,.915,0,1.286,1.286,0,0,0,.172-.686,1.286,1.286,0,0,0-.172-.686.49.49,0,0,0-.458-.286Z" transform="translate(22.927 3.849)" fill="#fff"/><path d="M16.053,6.036v-2.2c0-.629-.286-.629-.429-.629a.474.474,0,0,0-.343.143.683.683,0,0,0-.143.4V6.008H13.88V2.119h1.172v.2h.057a1.64,1.64,0,0,1,.829-.229,1.412,1.412,0,0,1,.972.372,1.757,1.757,0,0,1,.458,1.315V6.065H16.11Z" transform="translate(25.81 3.886)" fill="#fff"/><path d="M16.557,6.112a2.3,2.3,0,0,1-1.115-.257l-.172-.086.315-1.087.286.172a1.265,1.265,0,0,0,.686.2c.315,0,.315-.086.315-.172,0-.057,0-.086-.057-.114a3.148,3.148,0,0,0-.343-.172c-.715-.257-1.087-.686-1.087-1.23a1.125,1.125,0,0,1,.429-.915,1.452,1.452,0,0,1,1.058-.372,2.035,2.035,0,0,1,.972.229l.172.114L17.7,3.481l-.286-.172a1.031,1.031,0,0,0-.572-.172.272.272,0,0,0-.2.057.288.288,0,0,0-.029.086c0,.029,0,.057.057.086a1.4,1.4,0,0,0,.4.2c.858.343,1.058.886,1.058,1.258a1.217,1.217,0,0,1-.458.972,1.731,1.731,0,0,1-1.115.343Z" transform="translate(28.394 3.868)" fill="#fff"/><path d="M16.573,6.947v-3.8H16.43L17.345,1.6H18.8L17.6,3.03h.257V6.947Z" transform="translate(30.551 2.975)" fill="#fff"/><path d="M18.827,7.484A2.853,2.853,0,0,1,17.54,7.2l-.172-.114L17.683,6l.286.172A1.64,1.64,0,0,0,18.8,6.4a.627.627,0,0,0,.715-.543,1.393,1.393,0,0,1-.715.172,1.517,1.517,0,0,1-1.2-.572A1.919,1.919,0,0,1,17.14,4.11a2.138,2.138,0,0,1,.515-1.487,1.589,1.589,0,0,1,1.23-.543,1.538,1.538,0,0,1,.772.2V2.137h1.2v.286a8.341,8.341,0,0,0-.057.944V5.311a2.251,2.251,0,0,1-.572,1.716,2.059,2.059,0,0,1-1.43.486Zm.2-4.346a.543.543,0,0,0-.429.229,1.033,1.033,0,0,0-.2.686,1.027,1.027,0,0,0,.172.629.491.491,0,0,0,.458.229.483.483,0,0,0,.286-.086,1.027,1.027,0,0,0,.2-.286V3.71a.62.62,0,0,0-.143-.4A.425.425,0,0,0,19,3.138Z" transform="translate(31.872 3.868)" fill="#fff"/><path d="M20.13,6.093a1.38,1.38,0,0,1-1-.4A1.945,1.945,0,0,1,18.7,4.349V2.09h1.258V4.206c0,.715.257.715.4.715a.432.432,0,0,0,.458-.315V2.09h1.258V6.008H20.93V5.836a1.539,1.539,0,0,1-.886.257Z" transform="translate(34.772 3.886)" fill="#fff"/><path d="M22.064,6.112a1.963,1.963,0,0,1-1.43-.543,1.947,1.947,0,0,1-.515-1.43,2.11,2.11,0,0,1,.486-1.43,1.675,1.675,0,0,1,1.4-.629,1.471,1.471,0,0,1,1.315.658,2.114,2.114,0,0,1,.343,1.2,1.758,1.758,0,0,1-.029.4v.229h-2.2a1.667,1.667,0,0,0,.2.315.907.907,0,0,0,.572.172,2.519,2.519,0,0,0,.829-.143l.286-.114.229,1.029-.2.086a2.779,2.779,0,0,1-1.23.229Zm.315-2.631s-.057-.143-.086-.2a.405.405,0,0,0-.4-.2.464.464,0,0,0-.4.2c-.029.057-.086.114-.086.172h.944Z" transform="translate(37.413 3.868)" fill="#fff"/><rect width="1.258" height="5.462" transform="translate(61.622 4.461)" fill="#fff"/><path d="M24.1,6.131a1.788,1.788,0,0,1-1.373-.572,2.041,2.041,0,0,1-.515-1.43,2.114,2.114,0,0,1,.515-1.458,1.8,1.8,0,0,1,1.43-.6,1.852,1.852,0,0,1,1.4.572,1.97,1.97,0,0,1,.515,1.4A2.114,2.114,0,0,1,25.556,5.5a1.878,1.878,0,0,1-1.43.6Zm.029-3a.464.464,0,0,0-.458.286A1.358,1.358,0,0,0,23.5,4.1a1.185,1.185,0,0,0,.172.658.509.509,0,0,0,.915,0,1.22,1.22,0,0,0,.172-.686,1.359,1.359,0,0,0-.172-.686.49.49,0,0,0-.458-.286Z" transform="translate(41.299 3.849)" fill="#fff"/><path d="M26.334,6.112a1.963,1.963,0,0,1-1.43-.543,1.947,1.947,0,0,1-.515-1.43,2.11,2.11,0,0,1,.486-1.43,1.657,1.657,0,0,1,1.373-.629,1.5,1.5,0,0,1,1.315.658,2.051,2.051,0,0,1,.343,1.2,1.759,1.759,0,0,1-.029.4v.229h-2.2a1.667,1.667,0,0,0,.2.315.907.907,0,0,0,.572.172,2.657,2.657,0,0,0,.829-.143l.286-.114.229,1.029-.2.086a2.779,2.779,0,0,1-1.23.229Zm.315-2.631a.5.5,0,0,0-.086-.2.388.388,0,0,0-.372-.2.464.464,0,0,0-.4.2.6.6,0,0,0-.114.172h.944Z" transform="translate(45.353 3.868)" fill="#fff"/><path d="M28.022,6.018v-2.2c0-.629-.257-.629-.429-.629a.428.428,0,0,0-.343.143.7.7,0,0,0-.143.429V6.018H25.849V3.33c0-.286,0-.629-.029-.944V2.129h1.172v.2h.057a1.723,1.723,0,0,1,.829-.229,1.466,1.466,0,0,1,.972.372,1.757,1.757,0,0,1,.458,1.315V6.075H28.05Z" transform="translate(48.012 3.905)" fill="#fff"/><path d="M29.894,6.112a1.963,1.963,0,0,1-1.43-.543,1.947,1.947,0,0,1-.515-1.43,2.251,2.251,0,0,1,.458-1.43,1.675,1.675,0,0,1,1.4-.629,1.471,1.471,0,0,1,1.315.658,2.114,2.114,0,0,1,.343,1.2,1.758,1.758,0,0,1-.029.4v.229h-2.23a1.666,1.666,0,0,0,.2.315.907.907,0,0,0,.572.172,2.518,2.518,0,0,0,.829-.143L31.1,4.8l.229,1.029-.2.086a2.779,2.779,0,0,1-1.23.229Zm.315-2.631a.5.5,0,0,0-.086-.2.388.388,0,0,0-.372-.2.464.464,0,0,0-.4.2.6.6,0,0,1-.114.172h.944Z" transform="translate(51.973 3.868)" fill="#fff"/><rect width="1.287" height="5.462" transform="translate(84.012 4.461)" fill="#fff"/><path d="M93.563,0H3.4A3.393,3.393,0,0,0,0,3.4V25.335a3.393,3.393,0,0,0,3.4,3.4h90.16a3.479,3.479,0,0,0,3.46-3.4V3.4A3.442,3.442,0,0,0,93.563,0Zm2.488,25.335a2.49,2.49,0,0,1-.743,1.773,2.585,2.585,0,0,1-1.773.715H3.4A2.514,2.514,0,0,1,.886,25.335V3.4A2.5,2.5,0,0,1,3.4.915h90.16A2.49,2.49,0,0,1,96.051,3.4V25.335Z" transform="translate(0)" fill="#a2a4a7"/><path d="M95.9,24.926a2.746,2.746,0,0,1-2.745,2.745H2.994A2.77,2.77,0,0,1,.22,24.926V2.994A2.8,2.8,0,0,1,2.994.22h90.16A2.746,2.746,0,0,1,95.9,2.965V24.9h0Z" transform="translate(0.409 0.409)" fill="#1a1818"/><path d="M15.677,8.419A4.212,4.212,0,0,1,17.65,4.931a4.229,4.229,0,0,0-3.374-1.8c-1.4-.143-2.774.858-3.489.858s-1.859-.829-3.031-.8A4.425,4.425,0,0,0,3.981,5.5c-1.63,2.8-.4,6.949,1.144,9.236.772,1.115,1.687,2.373,2.888,2.316,1.172-.057,1.6-.743,3-.743s1.8.743,3.031.715c1.258,0,2.03-1.115,2.8-2.259a10.76,10.76,0,0,0,1.287-2.6,4.052,4.052,0,0,1-2.459-3.717Z" transform="translate(5.969 5.793)" fill="#fff"/><path d="M8.547,4.505A4.158,4.158,0,0,0,9.491,1.56,4.063,4.063,0,0,0,5.83,5.792,3.443,3.443,0,0,0,8.547,4.505Z" transform="translate(10.812 2.901)" fill="#fff"/><path d="M18.742,14.131h-1.63L16.226,11.3H13.109l-.858,2.831h-1.6L13.738,4.58h1.887l3.088,9.551Zm-2.8-3.975-.8-2.488c-.086-.257-.257-.858-.486-1.8h0c-.086.4-.257,1-.458,1.8l-.8,2.488h2.574Z" transform="translate(19.803 8.517)" fill="#fff"/><path d="M20.545,8.967a3.93,3.93,0,0,1-.944,2.774,2.79,2.79,0,0,1-2.116.915,2.044,2.044,0,0,1-1.944-.972h-.029v3.632H14V7.881c0-.743,0-1.516-.057-2.288h1.344L15.37,6.68H15.4a2.536,2.536,0,0,1,2.316-1.23,2.529,2.529,0,0,1,2.03.972,3.836,3.836,0,0,1,.829,2.545Zm-1.573.057a2.712,2.712,0,0,0-.458-1.659,1.607,1.607,0,0,0-2.345-.315,1.649,1.649,0,0,0-.6,1,1.421,1.421,0,0,0-.057.458V9.653a1.8,1.8,0,0,0,.458,1.258,1.558,1.558,0,0,0,1.2.515,1.59,1.59,0,0,0,1.344-.658A3.026,3.026,0,0,0,19,9Z" transform="translate(25.921 10.134)" fill="#fff"/><path d="M23.344,8.967a3.93,3.93,0,0,1-.944,2.774,2.834,2.834,0,0,1-2.116.915,2.044,2.044,0,0,1-1.944-.972h-.029v3.632H16.767V7.881c0-.743,0-1.516-.057-2.288h1.344L18.14,6.68h0a2.706,2.706,0,0,1,4.346-.257,3.823,3.823,0,0,1,.8,2.545Zm-1.573.057a2.711,2.711,0,0,0-.458-1.659,1.639,1.639,0,0,0-2.373-.315,1.649,1.649,0,0,0-.6,1,1.572,1.572,0,0,0-.086.458V9.653a1.8,1.8,0,0,0,.458,1.258,1.558,1.558,0,0,0,1.2.515,1.59,1.59,0,0,0,1.344-.658A3.026,3.026,0,0,0,21.743,9Z" transform="translate(31.072 10.134)" fill="#fff"/><path d="M26,11.573a2.5,2.5,0,0,1-.858,1.973,3.7,3.7,0,0,1-2.6.829,4.577,4.577,0,0,1-2.488-.6l.343-1.287a4.175,4.175,0,0,0,2.2.6,2.275,2.275,0,0,0,1.344-.372,1.291,1.291,0,0,0,.486-1.058,1.314,1.314,0,0,0-.4-.972,3.616,3.616,0,0,0-1.315-.743C21.022,9.314,20.193,8.4,20.193,7.2a2.477,2.477,0,0,1,.858-1.944A3.6,3.6,0,0,1,23.4,4.51a4.529,4.529,0,0,1,2.173.458L25.2,6.226a3.842,3.842,0,0,0-1.83-.429,1.711,1.711,0,0,0-1.258.4,1.114,1.114,0,0,0-.4.858A1.222,1.222,0,0,0,22.137,8a5.4,5.4,0,0,0,1.4.743,4.817,4.817,0,0,1,1.83,1.172,2.484,2.484,0,0,1,.572,1.659Z" transform="translate(37.283 8.386)" fill="#fff"/><path d="M26.633,7.77H24.946v3.346c0,.858.286,1.287.886,1.287a1.672,1.672,0,0,0,.686-.086l.057,1.172a3.562,3.562,0,0,1-1.2.172,1.854,1.854,0,0,1-1.43-.543,2.675,2.675,0,0,1-.515-1.859V7.77h-1V6.626h1V5.368l1.516-.458V6.626h1.687V7.77Z" transform="translate(41.708 9.13)" fill="#fff"/><path d="M30.967,9a3.75,3.75,0,0,1-.915,2.6,3.2,3.2,0,0,1-2.516,1.058,3.032,3.032,0,0,1-2.431-1A3.7,3.7,0,0,1,24.19,9.11a3.758,3.758,0,0,1,.944-2.631A3.235,3.235,0,0,1,27.65,5.45a3.084,3.084,0,0,1,2.431,1,3.563,3.563,0,0,1,.886,2.516Zm-1.6.057a3.276,3.276,0,0,0-.4-1.63,1.513,1.513,0,0,0-1.373-.829,1.556,1.556,0,0,0-1.4.829,3.1,3.1,0,0,0-.4,1.659,3.276,3.276,0,0,0,.4,1.63,1.588,1.588,0,0,0,1.4.829,1.544,1.544,0,0,0,1.373-.829A3.17,3.17,0,0,0,29.366,9.053Z" transform="translate(44.981 10.134)" fill="#fff"/><path d="M30.717,6.928c-.143,0-.315-.029-.486-.029a1.459,1.459,0,0,0-1.258.6A2.348,2.348,0,0,0,28.6,8.873V12.5H27.057V7.786c0-.8,0-1.516-.057-2.173h1.344L28.4,6.928h.057a2.173,2.173,0,0,1,.772-1.087,1.805,1.805,0,0,1,1.115-.372,1.511,1.511,0,0,1,.372.029V6.957Z" transform="translate(50.206 10.172)" fill="#fff"/><path d="M34.7,8.757a2.357,2.357,0,0,1-.057.686h-4.6a1.965,1.965,0,0,0,.658,1.573,2.294,2.294,0,0,0,1.516.486,4.786,4.786,0,0,0,1.859-.343l.229,1.058a5.773,5.773,0,0,1-2.316.429,3.342,3.342,0,0,1-2.516-.944,3.556,3.556,0,0,1-.915-2.545,3.91,3.91,0,0,1,.858-2.6A2.948,2.948,0,0,1,31.838,5.44,2.53,2.53,0,0,1,34.1,6.555a3.754,3.754,0,0,1,.629,2.173Zm-1.458-.4a2.005,2.005,0,0,0-.315-1.172,1.307,1.307,0,0,0-1.23-.629,1.468,1.468,0,0,0-1.23.629,2.26,2.26,0,0,0-.458,1.2h3.2Z" transform="translate(53.089 10.116)" fill="#fff"/><path d="M14.389,1.91l-.172.6a2.13,2.13,0,0,0-.886-.2,1.532,1.532,0,0,0-1.2.458,1.84,1.84,0,0,0-.486,1.344A1.757,1.757,0,0,0,12.1,5.427a1.549,1.549,0,0,0,1.2.486,2.319,2.319,0,0,0,.944-.172l.143.6a2.7,2.7,0,0,1-1.172.2,2.243,2.243,0,0,1-1.687-.629A2.334,2.334,0,0,1,10.9,4.169a2.436,2.436,0,0,1,.686-1.8,2.443,2.443,0,0,1,1.744-.658,2.3,2.3,0,0,1,1.087.2Z" transform="translate(20.268 3.18)" fill="#fff"/><path d="M15.718,3.9a1.822,1.822,0,0,1-.458,1.287,1.577,1.577,0,0,1-1.23.515,1.42,1.42,0,0,1-1.172-.515,1.865,1.865,0,0,1-.429-1.258,1.776,1.776,0,0,1,.458-1.287,1.556,1.556,0,0,1,1.23-.486,1.593,1.593,0,0,1,1.2.486,1.79,1.79,0,0,1,.429,1.23Zm-.772,0a1.451,1.451,0,0,0-.2-.8.77.77,0,0,0-.686-.4.739.739,0,0,0-.686.4,1.451,1.451,0,0,0-.2.8,1.389,1.389,0,0,0,.2.8.8.8,0,0,0,.686.4.776.776,0,0,0,.686-.429,1.451,1.451,0,0,0,.2-.8Z" transform="translate(23.113 4.017)" fill="#fff"/><path d="M16.905,5.649h-.743V3.7c0-.6-.229-.886-.686-.886a.732.732,0,0,0-.543.229.874.874,0,0,0-.2.572v2.03h-.743V3.218c0-.286,0-.629-.029-.972h.658V2.76h.057a1.075,1.075,0,0,1,.4-.4,1.14,1.14,0,0,1,.686-.2,1.174,1.174,0,0,1,.8.315,1.516,1.516,0,0,1,.4,1.115V5.62Z" transform="translate(25.958 4.017)" fill="#fff"/><path d="M17.668,4.629a.979.979,0,0,1-.343.772,1.411,1.411,0,0,1-.972.286,2.035,2.035,0,0,1-.972-.229l.143-.572a1.49,1.49,0,0,0,.829.257c.372,0,.572-.143.572-.429A.43.43,0,0,0,16.81,4.4a.964.964,0,0,0-.458-.229c-.6-.229-.915-.543-.915-.972a.963.963,0,0,1,.343-.743,1.274,1.274,0,0,1,.886-.286,1.59,1.59,0,0,1,.858.2l-.172.543a1.2,1.2,0,0,0-.686-.2c-.143,0-.286,0-.372.114a.4.4,0,0,0-.143.286A.4.4,0,0,0,16.3,3.4a1.329,1.329,0,0,0,.458.229c.572.229.886.572.886,1.029Z" transform="translate(28.599 4.035)" fill="#fff"/><path d="M17.323,6.5H16.58V3.1h.743Zm.658-4.8-.829,1h-.515l.6-1h.772Z" transform="translate(30.83 3.161)" fill="#fff"/><path d="M20.414,2.19c0,.257-.029.6-.029.972V5.107A2.078,2.078,0,0,1,19.9,6.651a1.843,1.843,0,0,1-1.258.4A2.186,2.186,0,0,1,17.5,6.794l.172-.572a1.829,1.829,0,0,0,.972.257c.658,0,1-.343,1-1.058V5.078h0a1.076,1.076,0,0,1-1,.515,1.323,1.323,0,0,1-1-.458,1.818,1.818,0,0,1-.4-1.172A1.8,1.8,0,0,1,17.7,2.648a1.329,1.329,0,0,1,1.029-.458,1.045,1.045,0,0,1,1,.543h0V2.276h.686Zm-.772,1.944v-.6a.7.7,0,0,0-.229-.572.7.7,0,0,0-.572-.229.759.759,0,0,0-.629.315,1.334,1.334,0,0,0-.257.858,1.183,1.183,0,0,0,.229.772.741.741,0,0,0,.658.315.864.864,0,0,0,.458-.143.7.7,0,0,0,.286-.4,1.028,1.028,0,0,0,.057-.315Z" transform="translate(32.058 4.072)" fill="#fff"/><path d="M21.745,5.574h-.658L21.03,5.06h0a1.171,1.171,0,0,1-1.087.6,1.076,1.076,0,0,1-.8-.315A1.657,1.657,0,0,1,18.8,4.2v-2h.743V4.059c0,.658.229.972.686.972a.679.679,0,0,0,.686-.486.846.846,0,0,0,.057-.286V2.2h.743V4.6c0,.315,0,.658.029.972Z" transform="translate(34.958 4.091)" fill="#fff"/><path d="M23.212,3.771v.343H20.953a.969.969,0,0,0,.315.772,1.055,1.055,0,0,0,.743.229,3.069,3.069,0,0,0,.915-.143l.114.515a2.821,2.821,0,0,1-1.144.2,1.6,1.6,0,0,1-1.23-.458A1.758,1.758,0,0,1,20.21,4a1.942,1.942,0,0,1,.429-1.287,1.4,1.4,0,0,1,1.172-.543,1.331,1.331,0,0,1,1.115.543,1.834,1.834,0,0,1,.286,1.058Zm-.715-.2A.95.95,0,0,0,22.355,3a.708.708,0,0,0-.6-.315.746.746,0,0,0-.6.315,1.418,1.418,0,0,0-.229.572H22.5Z" transform="translate(37.58 4.035)" fill="#fff"/><path d="M22.383,6.6H21.64V1.65h.743Z" transform="translate(40.239 3.068)" fill="#fff"/><path d="M25.636,3.9a1.942,1.942,0,0,1-.429,1.287,1.6,1.6,0,0,1-1.258.515,1.477,1.477,0,0,1-1.2-.515,1.884,1.884,0,0,1-.458-1.258,1.776,1.776,0,0,1,.458-1.287,1.556,1.556,0,0,1,1.23-.486,1.593,1.593,0,0,1,1.2.486,1.79,1.79,0,0,1,.429,1.23Zm-.772,0a1.451,1.451,0,0,0-.2-.8.788.788,0,0,0-1.373,0,1.451,1.451,0,0,0-.2.8,1.389,1.389,0,0,0,.2.8.8.8,0,0,0,.686.4.706.706,0,0,0,.658-.429,1.451,1.451,0,0,0,.2-.8Z" transform="translate(41.448 4.017)" fill="#fff"/><path d="M27.5,3.771a1.786,1.786,0,0,1-.029.343H25.213a.969.969,0,0,0,.315.772,1.055,1.055,0,0,0,.743.229,3.069,3.069,0,0,0,.915-.143l.114.515a2.77,2.77,0,0,1-1.115.2,1.706,1.706,0,0,1-1.258-.458A1.758,1.758,0,0,1,24.47,4,1.942,1.942,0,0,1,24.9,2.713a1.4,1.4,0,0,1,1.172-.543,1.331,1.331,0,0,1,1.115.543,1.834,1.834,0,0,1,.286,1.058Zm-.715-.2A.95.95,0,0,0,26.643,3a.73.73,0,0,0-1.2,0,1.1,1.1,0,0,0-.229.572h1.573Z" transform="translate(45.502 4.035)" fill="#fff"/><path d="M28.837,5.649h-.743V3.7c0-.6-.229-.886-.686-.886a.732.732,0,0,0-.543.229.874.874,0,0,0-.2.572v2.03H25.92v-3.4h.658V2.76h.057a1.075,1.075,0,0,1,.4-.4,1.14,1.14,0,0,1,.686-.2,1.174,1.174,0,0,1,.8.315,1.516,1.516,0,0,1,.4,1.115V5.62Z" transform="translate(48.198 4.017)" fill="#fff"/><path d="M31.061,3.771a1.786,1.786,0,0,1-.029.343H28.773a.969.969,0,0,0,.315.772,1.055,1.055,0,0,0,.743.229,3.069,3.069,0,0,0,.915-.143l.114.515a2.732,2.732,0,0,1-1.144.2,1.6,1.6,0,0,1-1.23-.458A1.758,1.758,0,0,1,28.03,4a1.942,1.942,0,0,1,.429-1.287,1.4,1.4,0,0,1,1.172-.543,1.331,1.331,0,0,1,1.115.543,1.849,1.849,0,0,1,.315,1.058Zm-.715-.2A1.209,1.209,0,0,0,30.2,3,.73.73,0,0,0,29,3a1.1,1.1,0,0,0-.229.572Z" transform="translate(52.122 4.035)" fill="#fff"/><path d="M30.223,6.6H29.48V1.65h.743Z" transform="translate(54.818 3.068)" fill="#fff"/></g></svg>