<svg xmlns="http://www.w3.org/2000/svg" xmlns:xlink="http://www.w3.org/1999/xlink" width="23.545" height="26.904" viewBox="0 0 23.545 26.904"><defs><clipPath id="a"><rect width="23.545" height="26.904" fill="none"/></clipPath></defs><g clip-path="url(#a)"><path d="M19.812,26.9H3.733A3.737,3.737,0,0,1,0,23.171V3.733A3.737,3.737,0,0,1,3.733,0H19.812a3.737,3.737,0,0,1,3.733,3.733V23.171A3.737,3.737,0,0,1,19.812,26.9M3.733,1.111A2.625,2.625,0,0,0,1.111,3.733V23.171a2.625,2.625,0,0,0,2.622,2.622H19.812a2.625,2.625,0,0,0,2.622-2.622V3.733a2.625,2.625,0,0,0-2.622-2.622Z" fill="#fff"/><path d="M36.692,82.4H35V81.286h1.69a.532.532,0,0,0,.532-.532V78.643a.532.532,0,0,0-.532-.532H23.312a.532.532,0,0,0-.532.532v2.111a.532.532,0,0,0,.532.532h1.417V82.4H23.312a1.645,1.645,0,0,1-1.643-1.643V78.643A1.645,1.645,0,0,1,23.312,77h13.38a1.645,1.645,0,0,1,1.643,1.643v2.111A1.645,1.645,0,0,1,36.692,82.4" transform="translate(-18.23 -64.778)" fill="#fff"/><path d="M37.191,24.571H23.811a1.645,1.645,0,0,1-1.643-1.643V17.643A1.645,1.645,0,0,1,23.811,16h13.38a1.645,1.645,0,0,1,1.643,1.643v5.285a1.645,1.645,0,0,1-1.643,1.643m-13.38-7.46a.533.533,0,0,0-.532.532v5.285a.533.533,0,0,0,.532.532h13.38a.532.532,0,0,0,.532-.532V17.643a.532.532,0,0,0-.532-.532Z" transform="translate(-18.649 -13.46)" fill="#fff"/><path d="M46.494,91.611H35.225a.556.556,0,0,1,0-1.111H46.494a.556.556,0,0,1,0,1.111" transform="translate(-29.166 -76.135)" fill="#fff"/><path d="M47.73,105.1H39.877a1.71,1.71,0,0,1-1.708-1.708V95.5H39.28v7.895a.6.6,0,0,0,.6.6H47.73a.6.6,0,0,0,.6-.6V95.5h1.111v7.895A1.71,1.71,0,0,1,47.73,105.1" transform="translate(-32.111 -80.342)" fill="#fff"/><rect width="1.508" height="8.65" transform="translate(8.677 15.317)" fill="#fff"/></g></svg>