<svg xmlns="http://www.w3.org/2000/svg" xmlns:xlink="http://www.w3.org/1999/xlink" width="36.66" height="39.668" viewBox="0 0 36.66 39.668"><defs><clipPath id="a"><rect width="36.66" height="39.668" fill="none"/></clipPath></defs><g clip-path="url(#a)"><path d="M11.019,9.7h-.6A1.445,1.445,0,0,1,8.974,8.257V8.013a.494.494,0,1,1,.989,0v.245a.452.452,0,0,0,.453.453h.6a.453.453,0,0,0,.2-.858L9.77,7.127a1.437,1.437,0,0,1-.8-1.29V5.552a1.445,1.445,0,0,1,1.441-1.443h.6A1.445,1.445,0,0,1,12.46,5.552v.3a.494.494,0,0,1-.989,0v-.3a.452.452,0,0,0-.453-.453h-.6a.452.452,0,0,0-.453.453v.285a.45.45,0,0,0,.251.406l1.451.724A1.443,1.443,0,0,1,11.019,9.7" transform="translate(8.455 3.872)" fill="#2d9539"/><path d="M10.129,8.207a.493.493,0,0,1-.493-.5V6.977a.493.493,0,1,1,.987,0v.734a.493.493,0,0,1-.493.5" transform="translate(9.079 6.107)" fill="#2d9539"/><path d="M10.129,5.318a.493.493,0,0,1-.493-.5v-.6a.493.493,0,1,1,.987,0v.6a.493.493,0,0,1-.493.5" transform="translate(9.079 3.512)" fill="#2d9539"/><path d="M3.088,17.518a.7.7,0,0,1-.5-1.181l4.164-4.269a4.125,4.125,0,0,1,2.942-1.239h13.29a2.776,2.776,0,0,1,0,5.553H15.941a.7.7,0,1,1,0-1.393h7.044a1.385,1.385,0,1,0,0-2.77H9.695a2.737,2.737,0,0,0-1.944.82L3.587,17.308a.7.7,0,0,1-.5.21" transform="translate(2.253 10.203)" fill="#00569e"/><path d="M6.91,26.663a.687.687,0,0,1-.5-.206.7.7,0,0,1,.008-.987l3.7-3.643a4.131,4.131,0,0,1,2.913-1.192h6.836a2.779,2.779,0,0,0,1.952-.808L29,12.653a1.425,1.425,0,1,0-2.018-2.014l-4.912,4.894a.7.7,0,0,1-.985,0,.7.7,0,0,1,0-.985L26,9.652a2.818,2.818,0,0,1,3.983,3.987l-7.17,7.172a4.182,4.182,0,0,1-2.938,1.216H13.036a2.754,2.754,0,0,0-1.936.792L7.4,26.463a.686.686,0,0,1-.487.2" transform="translate(5.854 8.319)" fill="#00569e"/><path d="M11.889,27.594a2.916,2.916,0,0,1-2.065-.851L.854,17.771a2.923,2.923,0,0,1,0-4.127,2.986,2.986,0,0,1,4.129,0l8.971,8.971a2.915,2.915,0,0,1-2.063,4.98m1.571-1.344h0ZM2.917,14.18a1.513,1.513,0,0,0-1.078.445,1.533,1.533,0,0,0,0,2.162l8.971,8.971a1.527,1.527,0,0,0,2.606-1.08,1.509,1.509,0,0,0-.449-1.076L4,14.627a1.514,1.514,0,0,0-1.08-.447" transform="translate(0 12.074)" fill="#2d9539"/><path d="M27.573,14.739H3.611V2.606H27.573ZM4.881,13.466H26.3V3.876H4.881Z" transform="translate(3.402 2.456)" fill="#2d9539"/><path d="M28.848,13.576h-3.02a.635.635,0,1,1,0-1.27h1.75V2.711H6.156V4.222a.635.635,0,1,1-1.27,0V1.441H28.848Z" transform="translate(4.603 1.358)" fill="#2d9539"/><path d="M30.067,12.135H27.1a.635.635,0,0,1,0-1.27h1.7V1.27H7.375V3.158a.635.635,0,1,1-1.27,0V0H30.067Z" transform="translate(5.752 0)" fill="#2d9539"/></g></svg>