<?xml version="1.0" encoding="UTF-8"?>
<svg id="Grupo_162538" data-name="Grupo 162538" xmlns="http://www.w3.org/2000/svg" version="1.1" viewBox="0 0 29.8 31.4">
  <defs>
    <style>
      .cls-1 {
        fill: #00569e;
      }

      .cls-1, .cls-2 {
        stroke-width: 0px;
      }

      .cls-2 {
        fill: #2d9539;
      }
    </style>
  </defs>
  <path id="Trazado_84050" data-name="Trazado 84050" class="cls-1" d="M4.3,21.7c-.3,0-.6-.3-.6-.6,0-.1,0-.3.2-.4l3.4-3.5c.6-.6,1.5-1,2.4-1h10.8c1.2,0,2.3,1,2.3,2.3,0,1.2-1,2.3-2.3,2.3h-5.7c-.3,0-.6-.2-.6-.5,0-.3.2-.6.5-.6,0,0,0,0,0,0h5.7c.6,0,1.1-.5,1.1-1.1,0-.6-.5-1.1-1.1-1.1h-10.8c-.6,0-1.2.2-1.6.7l-3.4,3.5c-.1.1-.3.2-.4.2"/>
  <path id="Trazado_84051" data-name="Trazado 84051" class="cls-1" d="M10.4,27.6c-.2,0-.3,0-.4-.2-.2-.2-.2-.6,0-.8l3-3c.6-.6,1.5-1,2.4-1h5.6c.6,0,1.2-.2,1.6-.7l5.8-5.8c.5-.4.5-1.2,0-1.6-.4-.5-1.2-.5-1.6,0,0,0,0,0,0,0l-4,4c-.2.2-.6.3-.8,0-.2-.2-.3-.6,0-.8,0,0,0,0,0,0l4-4c.9-.9,2.3-.9,3.2,0,.9.9.9,2.3,0,3.2l-5.8,5.8c-.6.6-1.5,1-2.4,1h-5.6c-.6,0-1.2.2-1.6.6l-3,3c-.1.1-.3.2-.4.2"/>
  <path id="Trazado_84052" data-name="Trazado 84052" class="cls-2" d="M9.7,31.4c-.6,0-1.2-.3-1.7-.7L.7,23.4c-.9-.9-1-2.4,0-3.4.9-.9,2.4-1,3.4,0,0,0,0,0,0,0l7.3,7.3c.9.9.9,2.4,0,3.4-.4.4-1,.7-1.7.7M2.4,20.5c-.7,0-1.2.6-1.2,1.2,0,.3.1.6.4.9l7.3,7.3c.5.5,1.3.5,1.8,0,.5-.5.5-1.3,0-1.8,0,0,0,0,0,0l-7.3-7.3c-.2-.2-.5-.4-.9-.4"/>
  <path id="Trazado_84053" data-name="Trazado 84053" class="cls-2" d="M12.6,9.2h-.7c-.9,0-1.7-.7-1.7-1.6v-.3c0-.3.3-.6.6-.6s.6.3.6.6v.3c0,.3.2.5.5.5h.7c.3,0,.5-.2.5-.5,0-.2-.1-.4-.3-.5l-1.7-.8c-.6-.3-.9-.9-.9-1.5v-.3c0-.9.7-1.6,1.7-1.6h.7c.9,0,1.7.7,1.7,1.7v.3c0,.3-.3.6-.6.5-.3,0-.5-.2-.5-.5v-.4c0-.3-.2-.5-.5-.5h-.7c-.3,0-.5.2-.5.5v.3c0,.2.1.4.3.5l1.7.8c.8.4,1.1,1.4.7,2.2-.3.6-.8.9-1.5.9"/>
  <path id="Trazado_84054" data-name="Trazado 84054" class="cls-2" d="M12.3,10.3c-.3,0-.6-.3-.6-.6,0,0,0,0,0,0V2.5c0-.3.3-.6.6-.6s.6.3.6.6v7.2c0,.3-.3.6-.6.6,0,0,0,0,0,0"/>
  <path id="Trazado_84055" data-name="Trazado 84055" class="cls-2" d="M26,12.3H8.2c-1.5,0-2.7-1.2-2.7-2.7V2.7c0-1.5,1.2-2.7,2.7-2.7h17.9c1.5,0,2.7,1.2,2.7,2.7v6.9c0,1.5-1.2,2.7-2.7,2.7M8.2,1.1c-.9,0-1.6.7-1.6,1.6v6.9c0,.9.7,1.6,1.6,1.6h17.9c.9,0,1.6-.7,1.6-1.6V2.7c0-.9-.7-1.6-1.6-1.6H8.2Z"/>
  <path id="Trazado_84056" data-name="Trazado 84056" class="cls-2" d="M22.3,9.6c-1.8-.1-3.2-1.7-3.1-3.5-.1-1.8,1.3-3.4,3.1-3.5.4,0,.8,0,1.2.3.3.1.4.5.2.8-.1.3-.5.4-.7.2-.2-.1-.5-.2-.7-.2-1.2.1-2,1.2-1.9,2.4-.1,1.2.8,2.2,1.9,2.4.3,0,.6,0,.8-.2.3-.2.6,0,.8.2.2.3,0,.6-.2.8-.4.2-.9.4-1.4.4"/>
  <path id="Trazado_84057" data-name="Trazado 84057" class="cls-2" d="M23.2,5.9h-4.5c-.3,0-.6-.2-.6-.5s.2-.6.5-.6c0,0,0,0,0,0h4.5c.3,0,.6.3.5.6,0,.3-.2.5-.5.5"/>
  <path id="Trazado_84058" data-name="Trazado 84058" class="cls-2" d="M23.2,7.4h-4.5c-.3,0-.6-.2-.6-.5,0-.3.2-.6.5-.6,0,0,0,0,0,0h4.5c.3,0,.6.3.5.6,0,.3-.2.5-.5.5"/>
</svg>